<svg width="184" height="238" viewBox="0 0 184 238" fill="none" xmlns="http://www.w3.org/2000/svg">
<path d="M20.7617 237.667C17.3367 237.667 14.3953 237.083 11.9375 235.914C9.5199 234.746 7.32397 232.993 5.34961 230.656L10.7891 225.217C12.0382 226.869 13.4887 228.158 15.1408 229.085C16.7928 229.971 18.8074 230.414 21.1847 230.414C23.3202 230.414 25.0125 229.991 26.2617 229.145C27.5509 228.299 28.1956 227.13 28.1956 225.639C28.1956 224.35 27.8331 223.302 27.1077 222.497C26.3823 221.691 25.4154 221.006 24.2065 220.442C23.038 219.878 21.7287 219.374 20.2781 218.931C18.8678 218.447 17.4374 217.903 15.9869 217.299C14.5766 216.694 13.2671 215.949 12.0584 215.062C10.8899 214.136 9.94296 212.967 9.21772 211.557C8.49244 210.107 8.12981 208.294 8.12981 206.118C8.12981 203.539 8.75433 201.343 10.0034 199.53C11.2525 197.716 12.9649 196.327 15.1408 195.36C17.3166 194.392 19.7744 193.909 22.5142 193.909C25.4154 193.909 28.0343 194.453 30.3714 195.541C32.7085 196.629 34.6222 198.039 36.113 199.772L30.6735 205.211C29.4246 203.841 28.1351 202.834 26.8057 202.189C25.5162 201.544 24.0456 201.222 22.3936 201.222C20.4997 201.222 19.0089 201.585 17.921 202.31C16.8331 203.035 16.2891 204.083 16.2891 205.453C16.2891 206.621 16.6517 207.568 17.377 208.294C18.1023 209.019 19.0491 209.643 20.2177 210.167C21.4263 210.691 22.7359 211.195 24.146 211.678C25.5968 212.162 27.0271 212.706 28.4375 213.31C29.8879 213.914 31.1972 214.7 32.3658 215.667C33.5747 216.634 34.5416 217.883 35.267 219.414C35.9924 220.905 36.3549 222.758 36.3549 224.975C36.3549 228.923 34.965 232.026 32.1847 234.282C29.4045 236.539 25.5968 237.667 20.7617 237.667ZM46.2872 237.063V195.722H54.2049V237.063H46.2872ZM39.4577 214.821V207.871H61.0344V214.821H39.4577ZM77.9376 237.667C75.3589 237.667 73.0622 237.123 71.0473 236.035C69.0731 234.947 67.5218 233.436 66.3936 231.502C65.2654 229.568 64.7013 227.332 64.7013 224.794V207.871H72.6791V224.612C72.6791 225.821 72.8807 226.869 73.2836 227.755C73.6868 228.601 74.2908 229.246 75.0969 229.689C75.9029 230.132 76.8497 230.354 77.9376 230.354C79.5896 230.354 80.8787 229.85 81.8057 228.843C82.7324 227.835 83.1957 226.425 83.1957 224.612V207.871H91.1134V224.794C91.1134 227.372 90.5493 229.629 89.4211 231.563C88.3332 233.497 86.782 235.008 84.767 236.096C82.7928 237.143 80.5162 237.667 77.9376 237.667ZM109.748 237.667C107.048 237.667 104.631 237.002 102.495 235.673C100.359 234.343 98.6675 232.529 97.4183 230.233C96.2094 227.936 95.605 225.358 95.605 222.497C95.605 219.596 96.2094 216.997 97.4183 214.7C98.6675 212.403 100.34 210.59 102.435 209.26C104.57 207.931 107.008 207.266 109.748 207.266C111.843 207.266 113.717 207.689 115.369 208.535C117.061 209.381 118.411 210.57 119.418 212.101C120.466 213.592 121.03 215.284 121.11 217.178V227.573C121.03 229.467 120.486 231.18 119.478 232.711C118.471 234.242 117.122 235.451 115.429 236.337C113.737 237.224 111.843 237.667 109.748 237.667ZM111.078 230.354C112.568 230.354 113.858 230.031 114.946 229.387C116.074 228.702 116.94 227.775 117.545 226.606C118.189 225.398 118.511 224.008 118.511 222.436C118.511 220.905 118.189 219.555 117.545 218.387C116.94 217.178 116.074 216.251 114.946 215.606C113.858 214.922 112.589 214.579 111.138 214.579C109.647 214.579 108.338 214.922 107.209 215.606C106.122 216.292 105.255 217.218 104.611 218.387C104.006 219.555 103.704 220.905 103.704 222.436C103.704 224.008 104.006 225.398 104.611 226.606C105.255 227.775 106.142 228.702 107.27 229.387C108.398 230.031 109.667 230.354 111.078 230.354ZM125.945 237.063H118.089V229.205L119.358 222.074L118.028 215.062V193.365H125.945V237.063ZM132.95 237.063V207.871H140.928V237.063H132.95ZM136.939 203.156C135.649 203.156 134.582 202.733 133.736 201.887C132.889 201 132.466 199.912 132.466 198.623C132.466 197.374 132.889 196.306 133.736 195.42C134.582 194.533 135.649 194.09 136.939 194.09C138.268 194.09 139.336 194.533 140.142 195.42C140.988 196.306 141.412 197.374 141.412 198.623C141.412 199.912 140.988 201 140.142 201.887C139.336 202.733 138.268 203.156 136.939 203.156ZM161.661 237.667C158.72 237.667 156.061 237.002 153.684 235.673C151.346 234.302 149.473 232.469 148.063 230.173C146.692 227.835 146.008 225.237 146.008 222.376C146.008 219.515 146.692 216.956 148.063 214.7C149.432 212.403 151.306 210.59 153.684 209.26C156.061 207.891 158.7 207.206 161.601 207.206C164.582 207.206 167.242 207.891 169.579 209.26C171.956 210.59 173.83 212.403 175.2 214.7C176.569 216.956 177.255 219.515 177.255 222.376C177.255 225.237 176.569 227.835 175.2 230.173C173.83 232.469 171.956 234.302 169.579 235.673C167.242 237.002 164.603 237.667 161.661 237.667ZM161.601 230.293C163.092 230.293 164.401 229.971 165.53 229.326C166.698 228.641 167.584 227.715 168.189 226.546C168.834 225.337 169.156 223.967 169.156 222.436C169.156 220.905 168.834 219.555 168.189 218.387C167.544 217.218 166.658 216.312 165.53 215.667C164.401 214.982 163.092 214.64 161.601 214.64C160.15 214.64 158.861 214.982 157.733 215.667C156.605 216.312 155.718 217.218 155.073 218.387C154.429 219.555 154.107 220.905 154.107 222.436C154.107 223.967 154.429 225.337 155.073 226.546C155.718 227.715 156.605 228.641 157.733 229.326C158.861 229.971 160.15 230.293 161.601 230.293Z" fill="white"/>
<path d="M183.639 169.118C184.239 171.956 182.074 174.626 179.173 174.626H5.0701C1.72696 174.626 -0.482019 171.15 0.937203 168.124L57.7579 46.9344C58.9793 44.3295 62.2765 43.4904 64.5946 45.1941L93.6793 66.5741C95.8026 68.1352 98.8027 67.5787 100.225 65.3607L140.475 2.60281C142.678 -0.833222 147.939 0.129764 148.783 4.12355L183.639 169.118ZM116.276 145.956H116.67C121.292 145.956 125.748 144.178 129.075 140.966C130.789 139.417 132.148 137.525 133.062 135.405C133.976 133.284 134.446 130.999 134.408 128.7C134.484 126.479 134.065 124.269 133.176 122.225C132.287 120.193 130.954 118.377 129.266 116.917C126.434 114.073 122.612 112.435 118.6 112.321H118.295C117.775 112.321 117.242 112.384 116.746 112.537L126.612 97.8715L118.752 92.3868L115.032 97.8715L105.522 112.397C103.884 114.81 102.526 116.93 101.675 118.403C100.799 119.965 100.037 121.59 99.4147 123.266C98.7034 125.044 98.3352 126.948 98.3352 128.865C98.3101 131.138 98.7669 133.398 99.6814 135.493C100.583 137.588 101.929 139.455 103.605 141.004C106.893 144.204 111.312 145.994 115.895 145.994L116.264 145.968L116.276 145.956ZM74.4903 130.173L85.3842 145.575H97.0274L84.216 127.697L95.5926 111.902L88.0381 106.671L84.6987 111.077L74.4648 125.501V96.4877L64.2689 88.1713V145.562H74.4648V130.148H74.4774L74.4903 130.173ZM116.289 136.357C114.296 136.357 112.391 135.57 110.982 134.16C109.572 132.751 108.785 130.846 108.785 128.853C108.785 126.859 109.572 124.955 110.982 123.545C112.391 122.136 114.296 121.349 116.289 121.349H116.353C117.343 121.349 118.321 121.552 119.222 121.933C120.136 122.327 120.949 122.885 121.635 123.609C122.358 124.269 122.93 125.069 123.311 125.97C123.704 126.872 123.894 127.837 123.894 128.814C123.869 130.821 123.056 132.725 121.635 134.135C120.212 135.544 118.295 136.331 116.289 136.344V136.357Z" fill="url(#paint0_linear_8910_5647)"/>
<path d="M116.29 136.345C114.297 136.345 112.392 135.558 110.983 134.149C109.574 132.739 108.786 130.835 108.786 128.841C108.786 126.848 109.574 124.943 110.983 123.534C112.392 122.125 114.297 121.338 116.29 121.338H116.354C117.344 121.338 118.322 121.54 119.223 121.921C120.137 122.315 120.95 122.874 121.636 123.597C122.359 124.258 122.931 125.057 123.312 125.959C123.705 126.86 123.896 127.825 123.896 128.803C123.87 130.81 123.058 132.714 121.636 134.124C120.214 135.533 118.296 136.32 116.29 136.333V136.345Z" fill="url(#paint1_linear_8910_5647)"/>
<defs>
<linearGradient id="paint0_linear_8910_5647" x1="91.3456" y1="-6.76512" x2="91.3456" y2="174.626" gradientUnits="userSpaceOnUse">
<stop offset="0.26" stop-color="#F35D29"/>
<stop offset="1" stop-color="#FAAF13"/>
</linearGradient>
<linearGradient id="paint1_linear_8910_5647" x1="116.341" y1="102.976" x2="116.341" y2="149.954" gradientUnits="userSpaceOnUse">
<stop stop-color="#F25B29"/>
<stop offset="1" stop-color="#FCC90B"/>
</linearGradient>
</defs>
</svg>
