<svg width="367" height="475" viewBox="0 0 367 475" fill="none" xmlns="http://www.w3.org/2000/svg">
<path d="M40.5234 474.334C33.6734 474.334 27.7907 473.165 22.875 470.828C18.0398 468.491 13.6479 464.985 9.69922 460.312L20.5783 449.433C23.0764 452.737 25.9775 455.315 29.2815 457.169C32.5855 458.942 36.6147 459.828 41.3694 459.828C45.6404 459.828 49.0251 458.982 51.5235 457.29C54.1017 455.598 55.3912 453.26 55.3912 450.279C55.3912 447.7 54.6662 445.605 53.2154 443.993C51.7646 442.381 49.8307 441.012 47.413 439.884C45.0759 438.756 42.4573 437.748 39.5561 436.861C36.7356 435.894 33.8749 434.806 30.9738 433.598C28.1533 432.389 25.5342 430.898 23.1167 429.125C20.7797 427.272 18.8859 424.935 17.4354 422.114C15.9849 419.214 15.2596 415.587 15.2596 411.235C15.2596 406.078 16.5087 401.686 19.0068 398.06C21.505 394.433 24.9299 391.653 29.2815 389.719C33.6331 387.785 38.5489 386.818 44.0283 386.818C49.8307 386.818 55.0687 387.906 59.7428 390.081C64.417 392.257 68.2445 395.078 71.2259 398.543L60.3469 409.422C57.8493 406.682 55.2703 404.668 52.6114 403.378C50.0323 402.089 47.0912 401.444 43.7872 401.444C39.9993 401.444 37.0177 402.169 34.8419 403.62C32.6661 405.071 31.5782 407.166 31.5782 409.906C31.5782 412.243 32.3034 414.136 33.754 415.587C35.2045 417.038 37.0983 418.286 39.4353 419.334C41.8525 420.381 44.4719 421.389 47.292 422.356C50.1936 423.323 53.0541 424.411 55.8751 425.62C58.7759 426.829 61.3945 428.4 63.7316 430.334C66.1493 432.268 68.0832 434.766 69.534 437.828C70.9848 440.81 71.7098 444.517 71.7098 448.949C71.7098 456.847 68.9299 463.052 63.3694 467.564C57.809 472.077 50.1936 474.334 40.5234 474.334ZM91.5743 473.125V390.444H107.41V473.125H91.5743ZM77.9154 428.642V414.741H121.069V428.642H77.9154ZM154.875 474.334C149.718 474.334 145.124 473.246 141.095 471.07C137.146 468.894 134.044 465.873 131.787 462.004C129.531 458.136 128.403 453.664 128.403 448.587V414.741H144.358V448.224C144.358 450.642 144.761 452.737 145.567 454.51C146.374 456.202 147.582 457.491 149.194 458.378C150.806 459.264 152.699 459.707 154.875 459.707C158.179 459.707 160.757 458.7 162.611 456.685C164.465 454.671 165.391 451.851 165.391 448.224V414.741H181.227V448.587C181.227 453.744 180.099 458.257 177.842 462.125C175.666 465.993 172.564 469.015 168.534 471.191C164.586 473.286 160.032 474.334 154.875 474.334ZM218.496 474.334C213.096 474.334 208.262 473.004 203.991 470.345C199.719 467.685 196.335 464.059 193.837 459.466C191.419 454.873 190.21 449.715 190.21 443.993C190.21 438.191 191.419 432.993 193.837 428.4C196.335 423.806 199.679 420.181 203.87 417.521C208.141 414.862 213.016 413.532 218.496 413.532C222.686 413.532 226.433 414.378 229.738 416.07C233.122 417.763 235.821 420.14 237.836 423.202C239.932 426.184 241.059 429.568 241.221 433.356V454.147C241.059 457.935 239.971 461.36 237.957 464.422C235.942 467.484 233.243 469.902 229.858 471.674C226.474 473.448 222.686 474.334 218.496 474.334ZM221.155 459.707C224.137 459.707 226.716 459.063 228.892 457.773C231.148 456.403 232.88 454.55 234.089 452.213C235.379 449.795 236.023 447.015 236.023 443.873C236.023 440.81 235.379 438.11 234.089 435.773C232.88 433.356 231.148 431.502 228.892 430.213C226.716 428.843 224.177 428.158 221.276 428.158C218.294 428.158 215.675 428.843 213.419 430.213C211.243 431.583 209.51 433.436 208.221 435.773C207.012 438.11 206.408 440.81 206.408 443.873C206.408 447.015 207.012 449.795 208.221 452.213C209.51 454.55 211.283 456.403 213.54 457.773C215.796 459.063 218.334 459.707 221.155 459.707ZM250.891 473.125H235.177V457.41L237.716 443.147L235.056 429.125V385.73H250.891V473.125ZM264.9 473.125V414.741H280.856V473.125H264.9ZM272.878 405.312C270.299 405.312 268.163 404.466 266.471 402.774C264.779 401.001 263.933 398.825 263.933 396.247C263.933 393.748 264.779 391.613 266.471 389.84C268.163 388.067 270.299 387.181 272.878 387.181C275.537 387.181 277.672 388.067 279.284 389.84C280.976 391.613 281.823 393.748 281.823 396.247C281.823 398.825 280.976 401.001 279.284 402.774C277.672 404.466 275.537 405.312 272.878 405.312ZM322.323 474.334C316.44 474.334 311.121 473.004 306.367 470.345C301.693 467.605 297.945 463.938 295.125 459.345C292.385 454.671 291.015 449.473 291.015 443.752C291.015 438.03 292.385 432.913 295.125 428.4C297.865 423.806 301.612 420.181 306.367 417.521C311.121 414.781 316.399 413.411 322.202 413.411C328.165 413.411 333.484 414.781 338.158 417.521C342.912 420.181 346.659 423.806 349.399 428.4C352.139 432.913 353.509 438.03 353.509 443.752C353.509 449.473 352.139 454.671 349.399 459.345C346.659 463.938 342.912 467.605 338.158 470.345C333.484 473.004 328.205 474.334 322.323 474.334ZM322.202 459.586C325.183 459.586 327.803 458.942 330.059 457.652C332.396 456.282 334.169 454.429 335.378 452.092C336.667 449.675 337.312 446.935 337.312 443.873C337.312 440.81 336.667 438.11 335.378 435.773C334.088 433.436 332.316 431.623 330.059 430.334C327.803 428.964 325.183 428.279 322.202 428.279C319.301 428.279 316.722 428.964 314.466 430.334C312.209 431.623 310.436 433.436 309.147 435.773C307.857 438.11 307.213 440.81 307.213 443.873C307.213 446.935 307.857 449.675 309.147 452.092C310.436 454.429 312.209 456.282 314.466 457.652C316.722 458.942 319.301 459.586 322.202 459.586Z" fill="white"/>
<path d="M366.278 337.236C367.477 342.911 363.148 348.252 357.346 348.252H9.1402C2.45392 348.252 -1.96404 341.301 0.874406 335.247L114.516 92.8687C116.959 87.659 123.553 85.9807 128.189 89.3882L186.359 132.148C190.605 135.27 196.605 134.157 199.451 129.721L279.95 4.20555C284.357 -2.66651 294.879 -0.740534 296.566 7.24705L366.278 337.236ZM231.553 290.912H232.34C241.584 290.912 250.497 287.356 257.15 280.932C260.579 277.834 263.295 274.05 265.124 269.809C266.953 265.568 267.892 260.997 267.816 256.401C267.968 251.957 267.131 247.538 265.353 243.45C263.575 239.387 260.909 235.755 257.531 232.835C251.868 227.147 244.224 223.871 236.2 223.642H235.59C234.55 223.642 233.483 223.769 232.493 224.074L252.224 194.743L236.505 183.773L229.064 194.743L210.044 223.795C206.768 228.619 204.051 232.86 202.349 235.806C200.597 238.929 199.073 242.18 197.829 245.532C196.407 249.087 195.67 252.896 195.67 256.731C195.62 261.276 196.534 265.796 198.363 269.987C200.166 274.177 202.857 277.91 206.209 281.008C212.786 287.407 221.623 290.988 230.791 290.988L231.527 290.937L231.553 290.912ZM147.981 259.346L169.768 290.15H193.055L167.432 254.394L190.185 222.804L175.076 212.342L168.397 221.153L147.93 250.001V191.975L127.538 175.343V290.124H147.93V259.295H147.955L147.981 259.346ZM231.578 271.713C227.592 271.713 223.782 270.139 220.963 267.32C218.144 264.501 216.57 260.692 216.57 256.706C216.57 252.718 218.144 248.909 220.963 246.091C223.782 243.272 227.592 241.697 231.578 241.697H231.705C233.686 241.697 235.641 242.104 237.444 242.866C239.273 243.653 240.898 244.77 242.269 246.218C243.717 247.538 244.86 249.138 245.621 250.941C246.409 252.744 246.789 254.674 246.789 256.629C246.739 260.641 245.113 264.45 242.269 267.27C239.425 270.088 235.59 271.662 231.578 271.688V271.713Z" fill="url(#paint0_linear_8910_5641)"/>
<path d="M231.58 271.691C227.594 271.691 223.784 270.116 220.966 267.297C218.147 264.479 216.572 260.669 216.572 256.683C216.572 252.696 218.147 248.886 220.966 246.068C223.784 243.249 227.594 241.675 231.58 241.675H231.707C233.688 241.675 235.643 242.081 237.446 242.843C239.274 243.63 240.9 244.747 242.271 246.195C243.719 247.516 244.862 249.115 245.623 250.918C246.411 252.721 246.792 254.651 246.792 256.607C246.741 260.619 245.116 264.428 242.271 267.247C239.427 270.066 235.592 271.64 231.58 271.666V271.691Z" fill="url(#paint1_linear_8910_5641)"/>
<defs>
<linearGradient id="paint0_linear_8910_5641" x1="181.691" y1="-14.5303" x2="181.691" y2="348.252" gradientUnits="userSpaceOnUse">
<stop offset="0.26" stop-color="#F35D29"/>
<stop offset="1" stop-color="#FAAF13"/>
</linearGradient>
<linearGradient id="paint1_linear_8910_5641" x1="231.682" y1="204.953" x2="231.682" y2="298.908" gradientUnits="userSpaceOnUse">
<stop stop-color="#F25B29"/>
<stop offset="1" stop-color="#FCC90B"/>
</linearGradient>
</defs>
</svg>
