<svg width="733" height="949" viewBox="0 0 733 949" fill="none" xmlns="http://www.w3.org/2000/svg">
<path d="M81.0469 948.668C67.3469 948.668 55.5814 946.331 45.7499 941.657C36.0796 936.982 27.2959 929.971 19.3984 920.624L41.1565 898.866C46.1528 905.474 51.9549 910.631 58.563 914.339C65.1711 917.884 73.2295 919.656 82.7388 919.656C91.2808 919.656 98.0502 917.964 103.047 914.581C108.203 911.195 110.782 906.521 110.782 900.558C110.782 895.4 109.332 891.21 106.431 887.987C103.529 884.763 99.6615 882.024 94.826 879.768C90.1518 877.511 84.9146 875.497 79.1122 873.723C73.4713 871.789 67.7498 869.613 61.9475 867.195C56.3066 864.777 51.0685 861.797 46.2335 858.25C41.5594 854.543 37.7719 849.869 34.8709 844.229C31.9697 838.427 30.5193 831.174 30.5193 822.471C30.5193 812.156 33.0173 803.372 38.0136 796.119C43.0099 788.866 49.8598 783.306 58.563 779.438C67.2663 775.569 77.0977 773.635 88.0566 773.635C99.6615 773.635 110.137 775.811 119.486 780.163C128.834 784.514 136.489 790.156 142.452 797.087L120.694 818.845C115.699 813.364 110.541 809.335 105.223 806.756C100.065 804.177 94.1824 802.889 87.5743 802.889C79.9987 802.889 74.0355 804.339 69.6838 807.24C65.3322 810.142 63.1564 814.332 63.1564 819.811C63.1564 824.485 64.6069 828.273 67.508 831.174C70.409 834.076 74.1966 836.573 78.8706 838.668C83.705 840.763 88.9437 842.779 94.5841 844.713C100.387 846.647 106.108 848.822 111.75 851.24C117.552 853.658 122.789 856.8 127.463 860.668C132.299 864.537 136.166 869.532 139.068 875.656C141.97 881.621 143.42 889.034 143.42 897.898C143.42 913.694 137.86 926.103 126.739 935.129C115.618 944.155 100.387 948.668 81.0469 948.668ZM183.149 946.25V780.889H214.82V946.25H183.149ZM155.831 857.284V829.482H242.137V857.284H155.831ZM309.75 948.668C299.436 948.668 290.249 946.492 282.189 942.14C274.292 937.789 268.087 931.745 263.574 924.008C259.062 916.273 256.805 907.327 256.805 897.174V829.482H288.716V896.448C288.716 901.284 289.523 905.474 291.134 909.019C292.747 912.405 295.163 914.982 298.387 916.756C301.612 918.529 305.399 919.415 309.75 919.415C316.358 919.415 321.515 917.4 325.223 913.371C328.929 909.342 330.783 903.702 330.783 896.448V829.482H362.454V897.174C362.454 907.489 360.197 916.515 355.684 924.25C351.333 931.987 345.128 938.031 337.068 942.382C329.171 946.573 320.065 948.668 309.75 948.668ZM436.991 948.668C426.193 948.668 416.523 946.008 407.981 940.69C399.438 935.371 392.67 928.118 387.673 918.932C382.838 909.745 380.42 899.431 380.42 887.987C380.42 876.382 382.838 865.987 387.673 856.8C392.67 847.613 399.359 840.361 407.739 835.042C416.281 829.724 426.031 827.064 436.991 827.064C445.372 827.064 452.867 828.756 459.475 832.14C466.244 835.526 471.643 840.281 475.672 846.405C479.864 852.368 482.119 859.137 482.441 866.713V908.294C482.119 915.869 479.943 922.719 475.914 928.844C471.885 934.968 466.486 939.803 459.717 943.348C452.948 946.895 445.372 948.668 436.991 948.668ZM442.31 919.415C448.273 919.415 453.431 918.126 457.783 915.547C462.296 912.806 465.76 909.1 468.178 904.426C470.757 899.59 472.046 894.031 472.046 887.745C472.046 881.621 470.757 876.221 468.178 871.547C465.76 866.713 462.296 863.005 457.783 860.426C453.431 857.687 448.354 856.316 442.552 856.316C436.588 856.316 431.351 857.687 426.838 860.426C422.486 863.166 419.02 866.873 416.443 871.547C414.025 876.221 412.815 881.621 412.815 887.745C412.815 894.031 414.025 899.59 416.443 904.426C419.02 909.1 422.567 912.806 427.08 915.547C431.593 918.126 436.669 919.415 442.31 919.415ZM501.782 946.25H470.354V914.821L475.431 886.295L470.112 858.25V771.459H501.782V946.25ZM529.799 946.25V829.482H561.712V946.25H529.799ZM545.756 810.624C540.598 810.624 536.327 808.932 532.943 805.548C529.557 802.001 527.865 797.65 527.865 792.493C527.865 787.497 529.557 783.226 532.943 779.68C536.327 776.134 540.598 774.361 545.756 774.361C551.074 774.361 555.344 776.134 558.569 779.68C561.953 783.226 563.646 787.497 563.646 792.493C563.646 797.65 561.953 802.001 558.569 805.548C555.344 808.932 551.074 810.624 545.756 810.624ZM644.646 948.668C632.879 948.668 622.242 946.008 612.734 940.69C603.386 935.21 595.891 927.876 590.25 918.69C584.77 909.342 582.031 898.947 582.031 887.503C582.031 876.06 584.77 865.826 590.25 856.8C595.729 847.613 603.225 840.361 612.734 835.042C622.242 829.563 632.799 826.822 644.404 826.822C656.329 826.822 666.968 829.563 676.315 835.042C685.825 840.361 693.318 847.613 698.799 856.8C704.278 865.826 707.018 876.06 707.018 887.503C707.018 898.947 704.278 909.342 698.799 918.69C693.318 927.876 685.825 935.21 676.315 940.69C666.968 946.008 656.41 948.668 644.646 948.668ZM644.404 919.173C650.367 919.173 655.605 917.884 660.118 915.305C664.792 912.565 668.338 908.858 670.755 904.184C673.334 899.35 674.623 893.869 674.623 887.745C674.623 881.621 673.334 876.221 670.755 871.547C668.176 866.873 664.631 863.247 660.118 860.668C655.605 857.929 650.367 856.558 644.404 856.558C638.602 856.558 633.444 857.929 628.931 860.668C624.418 863.247 620.873 866.873 618.294 871.547C615.715 876.221 614.426 881.621 614.426 887.745C614.426 893.869 615.715 899.35 618.294 904.184C620.873 908.858 624.418 912.565 628.931 915.305C633.444 917.884 638.602 919.173 644.404 919.173Z" fill="black"/>
<path d="M732.555 674.472C734.953 685.822 726.294 696.504 714.691 696.504H18.2794C4.90686 696.504 -3.92905 682.601 1.74783 670.494L229.031 185.738C233.916 175.318 247.105 171.961 256.377 178.776L372.716 264.296C381.209 270.541 393.21 268.315 398.9 259.443L559.898 8.41117C568.712 -5.33295 589.757 -1.48101 593.132 14.4942L732.555 674.472ZM463.105 581.823H464.68C483.167 581.823 500.993 574.713 514.299 561.864C521.157 555.668 526.59 548.1 530.248 539.619C533.904 531.136 535.783 521.995 535.631 512.801C535.935 503.914 534.26 495.077 530.704 486.9C527.148 478.773 521.817 471.51 515.061 465.67C503.735 454.293 488.448 447.742 472.399 447.284H471.18C469.098 447.284 466.965 447.538 464.984 448.148L504.447 389.486L473.009 367.547L458.128 389.486L420.086 447.589C413.535 457.239 408.101 465.72 404.697 471.612C401.193 477.859 398.146 484.359 395.658 491.065C392.813 498.175 391.34 505.793 391.34 513.462C391.239 522.553 393.067 531.592 396.725 539.973C400.331 548.354 405.714 555.82 412.418 562.016C425.572 574.815 443.246 581.975 461.58 581.975L463.053 581.873L463.105 581.823ZM295.96 518.693L339.536 580.3H386.109L334.863 508.789L380.369 445.608L350.152 424.684L336.794 442.307L295.858 500.002V383.951L255.075 350.685V580.248H295.858V518.591H295.909L295.96 518.693ZM463.155 543.427C455.182 543.427 447.564 540.279 441.925 534.64C436.288 529.003 433.14 521.384 433.14 513.411C433.14 505.437 436.288 497.819 441.925 492.181C447.564 486.544 455.182 483.394 463.155 483.394H463.409C467.371 483.394 471.282 484.208 474.888 485.731C478.544 487.306 481.794 489.54 484.537 492.435C487.433 495.077 489.718 498.275 491.241 501.881C492.816 505.487 493.577 509.347 493.577 513.258C493.477 521.282 490.225 528.901 484.537 534.54C478.848 540.177 471.18 543.325 463.155 543.377V543.427Z" fill="url(#paint0_linear_8756_18089)"/>
<path d="M463.158 543.381C455.185 543.381 447.567 540.232 441.929 534.594C436.292 528.957 433.143 521.339 433.143 513.366C433.143 505.391 436.292 497.773 441.929 492.136C447.567 486.498 455.185 483.35 463.158 483.35H463.412C467.374 483.35 471.285 484.161 474.891 485.686C478.547 487.261 481.799 489.494 484.54 492.39C487.436 495.031 489.721 498.23 491.244 501.836C492.819 505.442 493.581 509.302 493.581 513.214C493.479 521.238 490.229 528.855 484.54 534.494C478.853 540.131 471.183 543.279 463.158 543.331V543.381Z" fill="url(#paint1_linear_8756_18089)"/>
<defs>
<linearGradient id="paint0_linear_8756_18089" x1="363.381" y1="-29.0605" x2="363.381" y2="696.504" gradientUnits="userSpaceOnUse">
<stop offset="0.26" stop-color="#F35D29"/>
<stop offset="1" stop-color="#FAAF13"/>
</linearGradient>
<linearGradient id="paint1_linear_8756_18089" x1="463.362" y1="409.905" x2="463.362" y2="597.816" gradientUnits="userSpaceOnUse">
<stop stop-color="#F25B29"/>
<stop offset="1" stop-color="#FCC90B"/>
</linearGradient>
</defs>
</svg>
