<svg xmlns="http://www.w3.org/2000/svg" width="368" height="257" viewBox="0 0 368 257" fill="none"><path fill="#080821" d="M174.885 256.795c47.313 0 85.669-4.503 85.669-10.058s-38.356-10.057-85.669-10.057c-47.314 0-85.67 4.503-85.67 10.057s38.356 10.058 85.67 10.058" opacity=".1"/><path fill="#F99F10" d="M222.732 180.852c7.26 2.027 65.579 18.872 55.671 33.469-9.294 13.685-54.428-2.558-68.624-12.447"/><path stroke="#3A1103" stroke-linecap="round" stroke-miterlimit="10" stroke-width="3.238" d="M222.732 180.852c7.26 2.027 65.579 18.872 55.671 33.469-9.294 13.685-54.428-2.558-68.624-12.447"/><path fill="#EF6122" d="M139.796 65.474C119.221 51.13 92.895 47.91 88.264 53.06c-3.756 4.17 10.433 27.02 8.134 33.697-2.292 6.677-22.42 2.357-24.623 10.847-1.043 4.035 14.397 13.769 13.983 19.403-.415 5.635-12.338 4.042-13.212 11.334-.59 4.903 10.29 5.984 9.876 11.826-.414 5.841-8.27 4.773-7.927 10.433.279 4.592 8.866 1.567 11.165 9.287 2.293 7.72 54.143-94.412 54.143-94.412z"/><path fill="#FAC20C" stroke="#3A1103" stroke-miterlimit="10" stroke-width="3.238" d="M48.013 202.483c.629-18.885 13.808-23.075 23.38-19.85 9.566 3.225 9.034 14.345 6.619 18.529-3.86 6.677-9.527 3.795-7.41-.881 1.568-4.488 1.86-10.718-5.556-8.737-9.216 2.468-6.347 27.246 13.057 22.376 13.289-3.335 12.246-17.408 11.19-37.932-2.83-19.856.234-45.891 8.679-70.605 17.11-50.075 120.181-66.35 154.396-20.031 44.447 60.165-4.566 118.931-12.105 126.437-23.483 18.225-19.675 34.714-36.5 35.808-15.99 1.043-14.676-15.206-25.251-16.113-.622 0-1.244 0-1.866-.013-12.415.913-14.811 16.398-33.534 16.126-15.258-.22-8.465-13.548-18.658-19.941-2.138-1.01-3.99-1.722-5.7-2.189a31 31 0 0 0-4.533-.595c-.389-.026-2.74-.013-3.426-.013-6.055.11-9.689 1.541-23.373 4.326-24.655 5.012-39.94-10.725-39.409-26.702Z"/><path fill="#EF6122" d="M115.315 78.261c35.05-24.83 75.845-11.269 81.058-7.823s12.603-.648 8.452-10.99c-13.912-34.636-49.803-52.252-59.466-46.287-10.803 6.67 2.785 36.423-4.274 43.398-5.667 5.595-9.527 1.321-19.164-1.91-8.704-2.922-6.606 23.612-6.606 23.612"/><path fill="#5545EF" stroke="#231735" stroke-miterlimit="10" stroke-width="3.238" d="M164.526 145.602h96.031c11.539 0 20.893-9.354 20.893-20.893v-.007c0-11.538-9.354-20.892-20.893-20.892h-96.031c-11.539 0-20.893 9.354-20.893 20.892v.007c0 11.539 9.354 20.893 20.893 20.893Z"/><path fill="#19052D" d="M189.936 139.07h72.872c7.654 0 13.859-6.205 13.859-13.859s-6.205-13.859-13.859-13.859h-72.872c-7.654 0-13.859 6.205-13.859 13.859s6.205 13.859 13.859 13.859"/><path stroke="#fff" stroke-linecap="round" stroke-miterlimit="10" stroke-width="3.355" d="m188.68 128.311 6.411-6.392a2.666 2.666 0 0 1 3.769 0l5 5.012a2.66 2.66 0 0 0 3.769 0l.564-.563a2.667 2.667 0 0 1 3.769 0l6.91 6.929a2.66 2.66 0 0 0 3.769 0l11.723-11.689a2.667 2.667 0 0 1 3.769 0l3.542 3.549a2.664 2.664 0 0 0 3.77 0 2.667 2.667 0 0 1 3.769 0l4.158 4.171a2.663 2.663 0 0 0 3.769 0l7.791-7.772"/><path fill="#F99F10" d="M165.125 183.523c-.402 12.202-4.76 23.542-13.808 22.771-9.993-.848-12.473-11.217-12.13-22.479"/><path stroke="#3A1103" stroke-linecap="round" stroke-miterlimit="10" stroke-width="3.238" d="M165.125 183.523c-.402 12.202-4.76 23.542-13.808 22.771-9.993-.848-12.473-11.217-12.13-22.479"/><path stroke="#3A1103" stroke-miterlimit="10" stroke-width="3.238" d="M127.731 58.533c-17.668-8.315-34.901-12.726-39.467-5.472-4.935 7.843 11.89 24.5 8.134 33.696-3.51 8.6-23.334 1.218-24.623 10.848-1.03 7.707 14.397 13.769 13.982 19.403-.414 5.635-12.486 3.336-13.367 10.634-.589 4.903 10.447 6.684 10.026 12.526-.415 5.841-7.927 4.766-7.927 10.433 0 4.611 13.464 5.006 13.846 14.598"/><path stroke="#3A1103" stroke-miterlimit="10" stroke-width="3.238" d="M196.373 70.441c5.214 3.445 12.603-.648 8.452-10.99-13.911-34.636-48.741-52.316-59.466-46.287-11.256 6.328 2.785 36.423-4.274 43.398-3.944 3.899-9.125 3.73-13.873 1.736"/><path stroke="#3A1103" stroke-miterlimit="10" stroke-width="3.238" d="M196.574 70.604c-18.749-11.114-51.902-11.703-81.311 10.29"/><path fill="#fff" d="M295.674 165.56c22.005 0 39.843-17.838 39.843-39.843 0-22.004-17.838-39.842-39.843-39.842-22.004 0-39.842 17.838-39.842 39.842 0 22.005 17.838 39.843 39.842 39.843" opacity=".2"/><path fill="#0A0016" d="M342.194 134.431c.57-2.992.835-6.049.803-9.093a46.298 46.298 0 0 0-3.601-17.408 47 47 0 0 0-4.196-7.837 46.5 46.5 0 0 0-5.667-6.949 46 46 0 0 0-7.04-5.81 46.8 46.8 0 0 0-17.285-7.09 46 46 0 0 0-9.093-.804 46.5 46.5 0 0 0-8.918.965 46.4 46.4 0 0 0-8.49 2.636 46.452 46.452 0 0 0-14.786 9.863 46 46 0 0 0-5.809 7.04 46.8 46.8 0 0 0-7.092 17.286 46 46 0 0 0-.803 9.092c.032 2.986.356 5.984.965 8.918a46.4 46.4 0 0 0 2.636 8.491 46.472 46.472 0 0 0 9.863 14.785 46 46 0 0 0 7.04 5.809 47 47 0 0 0 4.417 2.623l-4.922 12.008-.596-.247a4.075 4.075 0 0 0-5.304 2.222l-17.926 43.722a4.074 4.074 0 0 0 2.221 5.304l9.073 3.724a4.074 4.074 0 0 0 5.304-2.222l17.927-43.722a4.075 4.075 0 0 0-2.221-5.304l-.596-.246 4.922-12.007a45.996 45.996 0 0 0 14.079 2.04 46.284 46.284 0 0 0 17.409-3.601 47 47 0 0 0 7.836-4.196 46.5 46.5 0 0 0 6.949-5.667 46 46 0 0 0 5.809-7.04 46.808 46.808 0 0 0 7.092-17.285m-60.172 26.954c-19.636-8.05-29.027-30.503-20.976-50.14 8.05-19.636 30.503-29.026 50.139-20.976s29.027 30.503 20.977 50.139-30.503 29.027-50.14 20.977"/><path fill="#fff" d="M277.612 150.852a30.7 30.7 0 0 0 4.676 2.661c-10.317-10.239-12.13-26.695-3.562-39.052s24.623-16.424 37.822-10.349a31 31 0 0 0-4.132-3.445c-13.859-9.611-32.887-6.172-42.498 7.687s-6.172 32.887 7.688 42.498z" opacity=".6"/><path fill="#F99F10" d="M273.733 217.702c7.577-4.313 9.364-13.017 7.467-18.626-1.567-4.624-8.374-6.515-12.376-.887-4.45 6.249 2.823 12.894 2.823 12.894"/><path stroke="#3A1103" stroke-linecap="round" stroke-miterlimit="10" stroke-width="3.238" d="M273.733 217.702c7.577-4.313 9.364-13.017 7.467-18.626-1.567-4.624-8.374-6.515-12.376-.887-4.45 6.249 2.823 12.894 2.823 12.894"/><path stroke="#000" stroke-linecap="round" stroke-miterlimit="10" stroke-width="3.238" d="M221.171 162.887c-8.529 3.808-17.473 1.392-22.92-7.137"/><path fill="#FAC20C" fill-opacity=".7" d="M175.989 39.454a8 8 0 0 0-.254-1.48c-.141-.561-.366-1.144-.676-1.789a10.6 10.6 0 0 0-1.261-1.929c-.197-.252-.451-.505-.676-.73.366-1.451-.451-2.707-.451-2.707-1.401-.084-2.303.45-2.634.674-.056-.028-.112-.056-.169-.056a3.2 3.2 0 0 0-.732-.253c-.254-.056-.507-.14-.789-.224a41 41 0 0 0-.817-.169c-.056 0-.085-.028-.141-.028-.62-1.956-2.388-2.763-2.388-2.763-1.965 1.227-2.331 2.96-2.331 2.96s0 .028-.028.112l-.338.084c-.141.056-.31.112-.451.169-.141.056-.31.112-.451.168-.281.112-.591.28-.866.42-.282.169-.563.337-.817.506-.028-.028-.056-.028-.056-.028-2.719-1.031-5.135.224-5.135.224-.169 2.876 1.12 4.692 1.374 5.029-.056.168-.113.365-.169.533a15 15 0 0 0-.451 2.013c-.028.084-.028.196-.028.309-2.5 1.227-3.254 3.745-3.254 3.745 2.106 2.406 4.515 2.539 4.515 2.539.309.56.676 1.059 1.063 1.564.169.196.338.393.535.59-.76 2.18.113 3.969.113 3.969 2.331.084 3.874-1.003 4.184-1.256.225.085.479.14.704.225.704.196 1.458.28 2.19.337h.923c1.092 1.564 3.028 1.788 3.028 1.788 1.374-1.452 1.458-2.876 1.458-3.184v-.14c.282-.197.564-.421.817-.646a8 8 0 0 0 1.43-1.676c.028-.056.085-.112.113-.168 1.542.084 2.634-.947 2.634-.947-.254-1.62-1.176-2.406-1.374-2.54h-.056s-.028 0-.028-.027c0-.084.028-.197.028-.28 0-.17.028-.338.028-.534v-.673c0-.056 0-.084-.028-.14l-.028-.14-.028-.141c-.028-.168-.057-.365-.113-.533-.169-.702-.451-1.34-.789-1.957a7.3 7.3 0 0 0-1.317-1.564 6 6 0 0 0-1.655-1.06c-.591-.245-1.204-.448-1.824-.504-.31-.028-.62-.056-.923-.056h-.479c-.169 0-.309.028-.479.056a5 5 0 0 0-1.711.645 5.8 5.8 0 0 0-1.317 1.115 5 5 0 0 0-.845 1.396 4.7 4.7 0 0 0-.338 1.508v.73c.028.252.056.505.141.729.14.477.338.89.619 1.255.282.365.592.646.923.891.338.225.704.393 1.064.505.359.112.704.14 1.063.14h.479c.056 0 .084-.028.113-.028s.084-.028.112-.028c.085-.028.141-.028.226-.056l.422-.168c.141-.056.254-.14.367-.225.028-.028.056-.056.084-.056a.264.264 0 0 0 .056-.364c-.084-.113-.225-.14-.338-.056-.028 0-.056.028-.084.056-.085.056-.197.084-.31.14l-.338.084c-.056 0-.113.028-.169.028h-.535a2.8 2.8 0 0 1-.789-.224 3 3 0 0 1-.733-.477 2.7 2.7 0 0 1-.873-1.592c-.028-.169-.028-.337-.028-.477v-.253c0-.084.028-.168.028-.252a3.37 3.37 0 0 1 1.007-1.873q.212-.21.423-.337c.141-.112.31-.196.479-.28a3 3 0 0 1 .535-.197c.197-.056.366-.084.563-.084h.592c.197.028.422.056.62.084a4 4 0 0 1 1.176.45 4.45 4.45 0 0 1 1.74 1.788c.197.393.338.785.394 1.2.028.111.028.224.028.308v.673c0 .112-.028.224-.028.337-.028.112-.028.224-.056.336l-.085.337c-.056.224-.141.449-.225.673-.169.421-.395.842-.676 1.228a5.7 5.7 0 0 1-2.163 1.76 5.7 5.7 0 0 1-1.345.421 6 6 0 0 1-.704.056h-.366c-.141 0-.254 0-.367-.028a6.6 6.6 0 0 1-1.486-.252 8.5 8.5 0 0 1-1.401-.562 7.3 7.3 0 0 1-2.303-1.9 7.7 7.7 0 0 1-.817-1.256 8 8 0 0 1-.536-1.367 6.3 6.3 0 0 1-.253-1.452v-.786c0-.252.028-.477.056-.73.028-.252.085-.504.113-.757.028-.252.113-.505.169-.73.141-.476.31-.946.507-1.367.423-.862.951-1.648 1.571-2.265.169-.169.338-.309.507-.45.169-.14.338-.28.535-.392s.366-.224.563-.337c.085-.056.198-.112.282-.14a.5.5 0 0 1 .141-.056c.028 0 .113-.056.141-.056a5 5 0 0 1 .62-.224c.056-.029.112-.029.169-.057.056-.028.112-.028.169-.056l.338-.084c.056 0 .112-.028.169-.028.056 0 .112-.028.169-.028.056 0 .113-.028.169-.028h.169c.056 0 .113-.028.169-.028s.113 0 .197-.028c.056 0 .141-.028.197-.028h1.409c.423.028.845.056 1.232.14a8.2 8.2 0 0 1 2.219.73c.676.336 1.289.729 1.824 1.17l.085.085.084.084c.057.056.113.112.197.169.085.056.113.112.169.168l.169.168c.226.253.423.477.62.73.366.477.676.974.923 1.423.028.028.028.056.056.084s.028.057.057.085l.084.168.085.168a.4.4 0 0 1 .056.169c.084.224.169.42.225.617a7 7 0 0 1 .254.842c.028.084.113.168.225.14a.19.19 0 0 0 .197-.197c.057-.336.029-.645 0-1.002z"/><rect width="12.602" height="12.602" x="2.832" y="227.948" stroke="#F3F2F9" stroke-width="4.583" rx="6.301" transform="rotate(-74.089 2.832 227.948)"/><rect width="12.602" height="12.602" x="352.291" y="166.291" stroke="#FAC20C" stroke-width="4.583" opacity=".6" rx="6.301"/><rect width="6.874" height="29.788" x="324.457" y="200" fill="#E8E6F4" rx="3.437"/><rect width="6.874" height="29.788" x="342.788" y="211.453" fill="#E8E6F4" rx="3.437" transform="rotate(90 342.788 211.453)"/><rect width="3.966" height="17.185" x="95.673" y="7.477" fill="#E8E6F4" rx="1.983" transform="rotate(-45 95.673 7.477)"/><rect width="3.966" height="17.185" x="107.825" y="4.672" fill="#E8E6F4" rx="1.983" transform="rotate(45 107.825 4.672)"/><rect width="3.966" height="17.185" x="18.142" y="147.602" fill="#E8E6F4" rx="1.983" transform="rotate(-119.089 18.142 147.602)"/><rect width="3.966" height="17.185" x="18.775" y="135.148" fill="#E8E6F4" rx="1.983" transform="rotate(-29.089 18.775 135.148)"/><g fill="#FAC20C" opacity=".6"><rect width="3.966" height="17.185" x="235" y="35.578" rx="1.983" transform="rotate(-90 235 35.578)"/><rect width="3.966" height="17.185" x="241.61" y="25" rx="1.983"/></g><g fill="#FAC20C" opacity=".6"><rect width="3.966" height="17.185" x="31.17" y="76.422" rx="1.983" transform="rotate(-164.089 31.17 76.422)"/><rect width="3.966" height="17.185" x="22.812" y="67.164" rx="1.983" transform="rotate(-74.089 22.812 67.164)"/></g></svg>