<svg width="300" height="200" viewBox="0 0 300 200" fill="none" xmlns="http://www.w3.org/2000/svg">
<g clip-path="url(#clip0_8449_19789)">
<path d="M213.819 1.5826C185.95 -3.23319 157.691 3.56875 130.803 13.5286C114.307 19.6408 98.4141 24.494 81.4862 28.9857C62.4723 34.03 42.4363 39.1657 26.0693 51.5065C6.5444 66.2281 -0.0248601 89.0647 7.06491e-05 114.253C0.0166911 132.569 3.13306 151.807 13.7369 165.947C29.8463 187.425 57.7729 191.056 81.4529 189.282C111.162 187.059 130.242 181.392 159.536 190.691C195.852 202.217 241.363 207.066 273.852 172.907C317.925 126.565 302.032 52.4248 255.386 18.9801C248.555 14.0812 241.197 10.0632 233.51 7.05906C226.982 4.50781 220.413 2.71694 213.819 1.57844V1.5826Z" fill="#FFEFD6"/>
<path opacity="0.3" d="M113.452 170.547C143.808 170.547 168.416 167.658 168.416 164.095C168.416 160.531 143.808 157.642 113.452 157.642C83.0966 157.642 58.4883 160.531 58.4883 164.095C58.4883 167.658 83.0966 170.547 113.452 170.547Z" fill="black"/>
<path d="M144.15 121.824C148.808 123.125 186.225 133.932 179.868 143.298C173.905 152.078 144.948 141.657 135.84 135.312" fill="#F99F10"/>
<path d="M144.15 121.824C148.808 123.125 186.225 133.932 179.868 143.298C173.905 152.078 144.948 141.657 135.84 135.312" stroke="#3A1103" stroke-width="5" stroke-miterlimit="10" stroke-linecap="round"/>
<path d="M90.9393 47.8003C77.7385 38.5967 60.8479 36.5316 57.877 39.8349C55.467 42.5108 64.5709 57.1701 63.0958 61.454C61.6249 65.7379 48.7108 62.9665 47.2981 68.4138C46.6291 71.0025 56.5349 77.2476 56.269 80.8626C56.003 84.4775 48.3535 83.4554 47.7925 88.134C47.4144 91.2795 54.395 91.9734 54.1291 95.7213C53.8631 99.4692 48.823 98.7836 49.0432 102.415C49.2219 105.361 54.7316 103.421 56.2066 108.374C57.6776 113.327 90.9435 47.8003 90.9435 47.8003H90.9393Z" fill="#EF6122"/>
<path d="M32.0525 135.702C32.4556 123.585 40.9113 120.897 47.0526 122.966C53.1897 125.036 52.849 132.17 51.2992 134.854C48.8227 139.138 45.187 137.289 46.5457 134.289C47.5512 131.409 47.7382 127.412 42.9806 128.684C37.0678 130.267 38.9085 146.164 51.3573 143.04C59.8837 140.9 59.2147 131.871 58.5374 118.703C56.7216 105.964 58.687 89.2599 64.1053 73.4039C75.0831 41.2765 141.212 30.8347 163.163 60.5521C191.68 99.1533 160.234 136.857 155.397 141.673C140.331 153.365 142.774 163.944 131.979 164.646C121.72 165.315 122.564 154.89 115.778 154.308C115.379 154.308 114.981 154.308 114.582 154.3C106.616 154.886 105.079 164.821 93.0665 164.646C83.277 164.505 87.6357 155.954 81.0956 151.853C79.7244 151.204 78.536 150.747 77.4391 150.448C76.5748 150.265 75.615 150.132 74.5305 150.066C74.2812 150.049 72.7729 150.058 72.3324 150.058C68.4474 150.128 66.1163 151.047 57.3366 152.833C41.5179 156.049 31.7118 145.952 32.0525 135.702Z" fill="#FAC20C" stroke="#3A1103" stroke-width="5" stroke-miterlimit="10"/>
<path d="M75.2294 56.003C97.7169 40.0723 123.89 48.7731 127.235 50.9837C130.58 53.1942 135.321 50.5681 132.657 43.9324C123.732 21.7108 100.704 10.4089 94.505 14.2357C87.5743 18.5155 96.2917 37.6042 91.7626 42.0792C88.1269 45.6693 85.6504 42.9269 79.4676 40.8535C73.8831 38.9795 75.2294 56.003 75.2294 56.003Z" fill="#EF6122"/>
<path d="M108.906 99.524H170.519C177.921 99.524 183.923 93.5227 183.923 86.1195V86.1154C183.923 78.7122 177.921 72.7109 170.519 72.7109H108.906C101.503 72.7109 95.502 78.7122 95.502 86.1154V86.1195C95.502 93.5227 101.503 99.524 108.906 99.524Z" fill="#5545EF" stroke="#231735" stroke-width="5" stroke-miterlimit="10"/>
<path d="M123.108 95.0154H169.861C174.772 95.0154 178.753 91.0344 178.753 86.1234C178.753 81.2125 174.772 77.2314 169.861 77.2314H123.108C118.197 77.2314 114.216 81.2125 114.216 86.1234C114.216 91.0344 118.197 95.0154 123.108 95.0154Z" fill="#19052D"/>
<path d="M107.19 123.536C106.932 131.364 104.136 138.64 98.3313 138.146C91.9199 137.601 90.3285 130.949 90.5487 123.723" fill="#F99F10"/>
<path d="M107.19 123.536C106.932 131.364 104.136 138.64 98.3313 138.146C91.9199 137.601 90.3285 130.949 90.5487 123.723" stroke="#3A1103" stroke-width="5" stroke-miterlimit="10" stroke-linecap="round"/>
<path d="M83.1976 43.3462C71.8624 38.011 60.8056 35.1814 57.8762 39.8351C54.71 44.867 65.5051 55.554 63.0951 61.4543C60.843 66.9723 48.1242 62.2354 47.2973 68.4141C46.6366 73.3587 56.5341 77.2479 56.2682 80.8628C56.0023 84.4778 48.2571 83.0027 47.692 87.6856C47.3139 90.831 54.3942 91.9736 54.1242 95.7216C53.8582 99.4695 49.0383 98.7797 49.0383 102.415C49.0383 105.374 57.6768 105.627 57.9219 111.781" stroke="#3A1103" stroke-width="5" stroke-miterlimit="10"/>
<path d="M127.235 50.9832C130.58 53.1937 135.321 50.5677 132.657 43.9319C123.732 21.7103 101.386 10.3668 94.505 14.2353C87.2834 18.2948 96.2917 37.6037 91.7626 42.0787C89.2321 44.5801 85.908 44.4721 82.8623 43.1923" stroke="#3A1103" stroke-width="5" stroke-miterlimit="10"/>
<path d="M127.367 51.0834C115.338 43.9532 94.0676 43.5751 75.1992 57.6859" stroke="#3A1103" stroke-width="5" stroke-miterlimit="10"/>
<path d="M141.856 105.399C146.011 105.553 152.281 107.688 152.086 111.976C151.89 116.269 145.138 117.669 139.491 116.048C133.845 114.428 134.277 110.319 135.166 108.927C136.055 107.535 138 105.258 141.86 105.399H141.856Z" fill="black"/>
<path d="M143.418 107.389C146.094 107.734 148.084 109.126 148.084 109.126C148.084 109.126 147.694 112.03 143.027 111.939C138.361 111.847 139.641 107.501 139.641 107.501C139.641 107.501 140.871 107.061 143.414 107.385L143.418 107.389Z" fill="white"/>
<g opacity="0.6">
<path fill-rule="evenodd" clip-rule="evenodd" d="M258.431 131.224C259.005 131.224 259.47 131.689 259.47 132.262V138.3C259.47 138.874 259.005 139.339 258.431 139.339C257.858 139.339 257.393 138.874 257.393 138.3V132.262C257.393 131.689 257.858 131.224 258.431 131.224Z" fill="#7F73F2"/>
<path fill-rule="evenodd" clip-rule="evenodd" d="M254.372 135.283C254.372 134.709 254.837 134.244 255.411 134.244H261.452C262.026 134.244 262.491 134.709 262.491 135.283C262.491 135.857 262.026 136.322 261.452 136.322H255.411C254.837 136.322 254.372 135.857 254.372 135.283Z" fill="#7F73F2"/>
<path fill-rule="evenodd" clip-rule="evenodd" d="M273.162 66.6318C273.736 66.6318 274.201 67.0969 274.201 67.6706V72.8188C274.201 73.3925 273.736 73.8576 273.162 73.8576C272.588 73.8576 272.123 73.3925 272.123 72.8188V67.6706C272.123 67.0969 272.588 66.6318 273.162 66.6318Z" fill="#5545EF"/>
<path fill-rule="evenodd" clip-rule="evenodd" d="M269.552 70.2429C269.552 69.6692 270.017 69.2041 270.591 69.2041H275.735C276.308 69.2041 276.773 69.6692 276.773 70.2429C276.773 70.8166 276.308 71.2817 275.735 71.2817H270.591C270.017 71.2817 269.552 70.8166 269.552 70.2429Z" fill="#5545EF"/>
<g opacity="0.4">
<path fill-rule="evenodd" clip-rule="evenodd" d="M206.535 85.9492C207.109 85.9492 207.574 86.4143 207.574 86.988V92.132C207.574 92.7057 207.109 93.1708 206.535 93.1708C205.961 93.1708 205.496 92.7057 205.496 92.132V86.988C205.496 86.4143 205.961 85.9492 206.535 85.9492Z" fill="#5545EF"/>
<path fill-rule="evenodd" clip-rule="evenodd" d="M202.924 89.5603C202.924 88.9866 203.389 88.5215 203.963 88.5215H209.107C209.68 88.5215 210.145 88.9866 210.145 89.5603C210.145 90.134 209.68 90.599 209.107 90.599H203.963C203.389 90.599 202.924 90.134 202.924 89.5603Z" fill="#5545EF"/>
</g>
<path fill-rule="evenodd" clip-rule="evenodd" d="M273.525 117.691C273.93 117.285 274.588 117.285 274.994 117.691L278.633 121.326C279.039 121.732 279.04 122.389 278.634 122.795C278.229 123.201 277.571 123.202 277.165 122.796L273.525 119.16C273.119 118.755 273.119 118.097 273.525 117.691Z" fill="#5545EF"/>
<path fill-rule="evenodd" clip-rule="evenodd" d="M278.634 117.691C279.04 118.097 279.039 118.755 278.633 119.16L274.994 122.796C274.588 123.202 273.93 123.201 273.525 122.795C273.119 122.389 273.119 121.732 273.525 121.326L277.165 117.691C277.571 117.285 278.229 117.285 278.634 117.691Z" fill="#5545EF"/>
<path fill-rule="evenodd" clip-rule="evenodd" d="M197.211 129.251C197.617 128.845 198.275 128.845 198.681 129.251L201.153 131.723C201.559 132.129 201.559 132.786 201.153 133.192C200.747 133.598 200.089 133.598 199.684 133.192L197.211 130.72C196.806 130.314 196.806 129.656 197.211 129.251Z" fill="#5545EF"/>
<path fill-rule="evenodd" clip-rule="evenodd" d="M201.153 129.251C201.559 129.656 201.559 130.314 201.153 130.72L198.681 133.192C198.275 133.598 197.617 133.598 197.211 133.192C196.806 132.786 196.806 132.129 197.211 131.723L199.684 129.251C200.089 128.845 200.747 128.845 201.153 129.251Z" fill="#5545EF"/>
<path fill-rule="evenodd" clip-rule="evenodd" d="M214.611 47.0368C214.611 46.4631 215.076 45.998 215.65 45.998H219.145C219.718 45.998 220.183 46.4631 220.183 47.0368C220.183 47.6105 219.718 48.0756 219.145 48.0756H215.65C215.076 48.0756 214.611 47.6105 214.611 47.0368Z" fill="#7F73F2"/>
<path fill-rule="evenodd" clip-rule="evenodd" d="M217.4 44.2529C217.974 44.2529 218.439 44.718 218.439 45.2917V48.7862C218.439 49.3599 217.974 49.825 217.4 49.825C216.826 49.825 216.361 49.3599 216.361 48.7862V45.2917C216.361 44.718 216.826 44.2529 217.4 44.2529Z" fill="#7F73F2"/>
<path d="M253.288 99.374L256.313 96.3449C256.67 95.9876 256.67 95.4059 256.313 95.0444C255.955 94.687 255.374 94.687 255.012 95.0444L251.987 98.0735L248.958 95.0485C248.601 94.6912 248.019 94.6912 247.658 95.0485C247.3 95.4059 247.3 95.9876 247.658 96.3491L250.687 99.374L247.662 102.403C247.304 102.76 247.304 103.342 247.662 103.704C247.84 103.882 248.077 103.974 248.31 103.974C248.543 103.974 248.78 103.882 248.958 103.704L251.983 100.675L255.012 103.699C255.191 103.878 255.428 103.97 255.66 103.97C255.893 103.97 256.13 103.878 256.309 103.699C256.666 103.342 256.666 102.76 256.309 102.399L253.28 99.374H253.288Z" fill="#B4ADF8"/>
<path d="M231.79 116.639V111.263C231.785 110.623 231.266 110.107 230.631 110.107C229.995 110.107 229.476 110.623 229.476 111.263V116.639C229.48 117.279 229.999 117.794 230.635 117.794C231.271 117.794 231.79 117.279 231.79 116.639Z" fill="#A59DF7"/>
<path d="M269.339 101.498V106.875C269.343 107.515 269.862 108.03 270.498 108.03C271.134 108.03 271.653 107.515 271.653 106.875V101.498C271.649 100.858 271.13 100.343 270.494 100.343C269.858 100.343 269.339 100.858 269.339 101.498Z" fill="#402EED"/>
<path d="M233.244 75.4912H227.867C227.227 75.4954 226.712 76.0148 226.712 76.6505C226.712 77.2862 227.227 77.8056 227.867 77.8056H233.244C233.884 77.8015 234.399 77.2821 234.399 76.6463C234.399 76.0106 233.884 75.4912 233.244 75.4912Z" fill="#5041E4"/>
<path d="M236.397 102.782L236.406 116.635C236.406 117.275 236.921 117.79 237.561 117.79C238.201 117.79 238.716 117.275 238.716 116.635L238.708 102.782C238.708 102.142 238.192 101.627 237.553 101.627C236.913 101.627 236.397 102.142 236.397 102.782Z" fill="#A59DF7"/>
<path d="M238.833 133.712L224.979 133.72C224.339 133.72 223.824 134.235 223.824 134.875C223.824 135.515 224.339 136.03 224.979 136.03L238.833 136.022C239.472 136.022 239.988 135.507 239.988 134.867C239.988 134.227 239.472 133.712 238.833 133.712Z" fill="#5041E4"/>
<path d="M249.847 80.1279H244.371C243.681 80.1279 243.12 80.693 243.12 81.3828V86.8592C243.12 87.5531 243.685 88.1099 244.375 88.1099H249.851C250.541 88.1099 251.102 87.549 251.102 86.8551V81.3786C251.102 80.6889 250.537 80.1279 249.847 80.1279ZM249.232 86.2401H244.99V82.0019H249.232V86.2401Z" fill="#7C6FFD"/>
<path d="M224.863 116.643V107.406C224.859 106.766 224.34 106.251 223.704 106.251C223.068 106.251 222.549 106.766 222.549 107.406V116.643C222.553 117.283 223.072 117.798 223.708 117.798C224.344 117.798 224.863 117.283 224.863 116.643Z" fill="#A59DF7"/>
<path d="M218.136 132.379C219.54 132.379 220.683 133.522 220.683 134.926C220.683 136.33 219.54 137.473 218.136 137.473C216.732 137.473 215.589 136.33 215.589 134.926C215.589 133.522 216.732 132.379 218.136 132.379ZM218.136 135.774C218.605 135.774 218.984 135.391 218.984 134.926C218.984 134.461 218.601 134.078 218.136 134.078C217.671 134.078 217.288 134.461 217.288 134.926C217.288 135.391 217.671 135.774 218.136 135.774Z" fill="#5545EF"/>
<path d="M272.9 94.8327C272.9 96.233 271.761 97.3715 270.361 97.3715C268.961 97.3715 267.822 96.233 267.822 94.8327C267.822 93.4324 268.961 92.2939 270.361 92.2939C271.761 92.2939 272.9 93.4324 272.9 94.8327ZM269.518 94.8327C269.518 95.2981 269.896 95.6804 270.365 95.6804C270.835 95.6804 271.212 95.3023 271.212 94.8327C271.212 94.3632 270.835 93.9851 270.365 93.9851C269.896 93.9851 269.518 94.3632 269.518 94.8327Z" fill="#402EED"/>
<path d="M252.402 116.236C252.232 116.236 252.032 116.207 251.862 116.124C251.692 116.065 251.521 115.953 251.409 115.812C251.268 115.7 251.156 115.529 251.098 115.359C251.01 115.189 250.985 115.018 250.985 114.819C250.985 114.449 251.127 114.079 251.409 113.826C251.521 113.685 251.692 113.572 251.862 113.514C252.203 113.373 252.602 113.373 252.942 113.514C253.113 113.572 253.283 113.685 253.395 113.826C253.678 114.079 253.823 114.449 253.823 114.819C253.823 115.018 253.794 115.189 253.711 115.359C253.653 115.529 253.541 115.7 253.399 115.812C253.287 115.953 253.117 116.07 252.947 116.124C252.776 116.207 252.606 116.236 252.406 116.236H252.402Z" fill="#7F73F2"/>
<path d="M232.844 91.3422C232.371 91.3422 231.902 91.1635 231.578 90.7978C231.216 90.4737 231.033 90.0042 231.033 89.5305C231.033 89.0569 231.212 88.5915 231.578 88.2632C232.23 87.5776 233.46 87.5776 234.108 88.2632C234.291 88.4086 234.436 88.6289 234.506 88.8449C234.615 89.0652 234.652 89.3145 234.652 89.5347C234.652 89.784 234.615 90.0042 234.506 90.2203C234.436 90.4405 234.291 90.6566 234.108 90.802C233.784 91.1677 233.314 91.3463 232.84 91.3463L232.844 91.3422Z" fill="#5545EF"/>
<path d="M282.124 89.3057C281.8 89.3057 281.48 89.1811 281.256 88.9318C281.006 88.7074 280.886 88.3874 280.886 88.0633C280.886 87.7392 281.01 87.4193 281.256 87.1949C281.7 86.7254 282.544 86.7254 282.988 87.1949C283.113 87.2946 283.213 87.4442 283.262 87.5938C283.337 87.7434 283.362 87.9142 283.362 88.0679C283.362 88.2383 283.337 88.3874 283.262 88.537C283.213 88.6866 283.113 88.8366 282.988 88.9363C282.764 89.1856 282.444 89.3099 282.12 89.3099L282.124 89.3057Z" fill="#B4ADF8"/>
<path d="M255.332 44.4387C255.158 44.4387 254.954 44.4096 254.78 44.3223C254.605 44.2642 254.431 44.1474 254.314 44.002C254.023 43.7402 253.878 43.3625 253.878 42.9844C253.878 42.7808 253.907 42.6059 253.994 42.4313C254.052 42.2568 254.169 42.0827 254.314 41.9664C254.838 41.4135 255.827 41.4135 256.35 41.9664C256.496 42.0827 256.612 42.2568 256.67 42.4313C256.757 42.6059 256.787 42.7808 256.787 42.9844C256.787 43.3625 256.641 43.7402 256.35 44.002C256.234 44.1474 256.059 44.2642 255.885 44.3223C255.71 44.4096 255.507 44.4387 255.332 44.4387Z" fill="#5545EF"/>
<path d="M255.22 125.456H204.977C201.557 125.456 198.465 123.167 197.464 119.888C197.298 119.34 197.605 118.758 198.154 118.592C198.702 118.426 199.284 118.733 199.45 119.282C200.19 121.696 202.463 123.379 204.977 123.379H255.22C258.407 123.379 260.996 120.786 260.996 117.603V79.8952C260.996 76.7123 258.403 74.1196 255.22 74.1196H239.024C238.45 74.1196 237.985 73.6542 237.985 73.0808C237.985 72.5074 238.45 72.042 239.024 72.042H255.22C259.55 72.042 263.073 75.5655 263.073 79.8952V117.603C263.073 121.933 259.55 125.456 255.22 125.456Z" fill="#5A49FA"/>
</g>
<path fill-rule="evenodd" clip-rule="evenodd" d="M164.709 81.715C165.044 82.2061 164.917 82.8756 164.426 83.2105L151.948 91.7202C151.457 92.0551 150.788 91.9285 150.453 91.4374C150.118 90.9464 150.245 90.2769 150.736 89.942L163.213 81.4323C163.704 81.0974 164.374 81.224 164.709 81.715Z" fill="white"/>
<path fill-rule="evenodd" clip-rule="evenodd" d="M150.453 81.715C150.788 81.224 151.457 81.0974 151.948 81.4323L164.426 89.942C164.917 90.2769 165.044 90.9464 164.709 91.4374C164.374 91.9285 163.704 92.0551 163.213 91.7202L150.736 83.2105C150.245 82.8756 150.118 82.2061 150.453 81.715Z" fill="white"/>
<path fill-rule="evenodd" clip-rule="evenodd" d="M146.315 81.7152C146.649 82.2063 146.523 82.8758 146.032 83.2106L133.55 91.7203C133.059 92.0551 132.389 91.9284 132.054 91.4373C131.719 90.9462 131.846 90.2767 132.337 89.9419L144.819 81.4322C145.31 81.0974 145.98 81.2241 146.315 81.7152Z" fill="white"/>
<path fill-rule="evenodd" clip-rule="evenodd" d="M132.054 81.7152C132.389 81.2241 133.059 81.0974 133.55 81.4322L146.032 89.9419C146.523 90.2767 146.649 90.9462 146.315 91.4373C145.98 91.9284 145.31 92.0551 144.819 91.7203L132.337 83.2106C131.846 82.8758 131.719 82.2063 132.054 81.7152Z" fill="white"/>
<path opacity="0.15" d="M190.949 112.022C205.067 112.022 216.511 100.578 216.511 86.4598C216.511 72.3419 205.067 60.8975 190.949 60.8975C176.832 60.8975 165.387 72.3419 165.387 86.4598C165.387 100.578 176.832 112.022 190.949 112.022Z" fill="white"/>
<path d="M220.796 92.0446C221.161 90.1249 221.332 88.1637 221.311 86.2108C221.29 84.2953 221.082 82.3714 220.692 80.4892C220.305 78.6277 219.736 76.7953 219.001 75.0418C218.265 73.2883 217.359 71.5931 216.308 70.0141C215.244 68.4144 214.019 66.9144 212.672 65.5557C211.297 64.1678 209.776 62.9172 208.156 61.8285C206.494 60.7149 204.707 59.7593 202.841 58.9947C200.976 58.2302 199.035 57.6526 197.066 57.2786C195.146 56.913 193.185 56.7426 191.232 56.7634C189.316 56.7842 187.392 56.9919 185.51 57.3825C183.648 57.769 181.816 58.3382 180.063 59.0737C178.31 59.8091 176.614 60.7149 175.035 61.7662C173.436 62.8299 171.936 64.0557 170.577 65.4019C169.189 66.7773 167.938 68.298 166.85 69.9185C165.736 71.5806 164.78 73.3673 164.016 75.2329C163.251 77.0986 162.674 79.039 162.3 81.0086C161.934 82.9282 161.764 84.8895 161.785 86.8424C161.805 88.7579 162.013 90.6817 162.404 92.564C162.79 94.4255 163.359 96.2579 164.095 98.0113C164.83 99.7648 165.736 101.46 166.787 103.039C167.851 104.639 169.077 106.139 170.423 107.497C171.798 108.885 173.319 110.136 174.94 111.225C175.85 111.835 176.797 112.396 177.773 112.907L174.616 120.611L174.233 120.453C172.904 119.909 171.375 120.549 170.83 121.878L159.329 149.93C158.785 151.259 159.424 152.788 160.754 153.333L166.575 155.722C167.905 156.266 169.434 155.626 169.978 154.297L181.48 126.245C182.024 124.916 181.384 123.387 180.055 122.842L179.672 122.684L182.83 114.981C183.886 115.305 184.954 115.571 186.03 115.774C187.949 116.14 189.911 116.311 191.864 116.29C193.779 116.269 195.703 116.061 197.585 115.671C199.447 115.284 201.279 114.715 203.033 113.979C204.786 113.244 206.481 112.338 208.06 111.287C209.66 110.223 211.16 108.997 212.518 107.651C213.906 106.276 215.157 104.755 216.246 103.135C217.359 101.473 218.315 99.6858 219.08 97.8202C219.844 95.9545 220.422 94.0141 220.796 92.0446ZM182.19 109.338C169.592 104.173 163.567 89.7676 168.732 77.1692C173.897 64.5709 188.303 58.546 200.901 63.7108C213.499 68.8756 219.524 83.2814 214.359 95.8798C209.195 108.478 194.789 114.503 182.19 109.338Z" fill="black"/>
<path opacity="0.3" d="M179.361 102.582C180.325 103.251 181.331 103.816 182.361 104.29C175.742 97.7205 174.579 87.1623 180.076 79.2343C185.573 71.3064 195.874 68.6969 204.342 72.5945C203.536 71.7967 202.655 71.0529 201.691 70.3839C192.799 64.2177 180.591 66.4241 174.425 75.3161C168.259 84.208 170.465 96.4158 179.357 102.582H179.361Z" fill="white"/>
<path d="M176.872 145.467C181.734 142.7 182.88 137.116 181.663 133.517C180.657 130.551 176.29 129.337 173.722 132.948C170.868 136.958 175.534 141.221 175.534 141.221" fill="#F99F10"/>
<path d="M176.872 145.467C181.734 142.7 182.88 137.116 181.663 133.517C180.657 130.551 176.29 129.337 173.722 132.948C170.868 136.958 175.534 141.221 175.534 141.221" stroke="#3A1103" stroke-width="5" stroke-miterlimit="10" stroke-linecap="round"/>
</g>
<defs>
<clipPath id="clip0_8449_19789">
<rect width="300" height="199.446" fill="white"/>
</clipPath>
</defs>
</svg>
