<?xml version="1.0" encoding="UTF-8"?>
<svg id="Layer_1" data-name="Layer 1" xmlns="http://www.w3.org/2000/svg" viewBox="0 0 392.1 380.69">
  <defs>
    <style>
      .cls-1 {
        fill: #f89f20;
      }

      .cls-2 {
        fill: #f8c218;
      }

      .cls-3 {
        fill: #f9a01f;
      }

      .cls-4 {
        fill: #010101;
      }

      .cls-5, .cls-6 {
        fill: #f15822;
      }

      .cls-7 {
        fill: #ed6325;
      }

      .cls-8 {
        fill: #231735;
      }

      .cls-9 {
        fill: #22509d;
      }

      .cls-10 {
        fill: #111222;
      }

      .cls-11 {
        fill: #381811;
      }

      .cls-12 {
        fill: #1d112f;
      }

      .cls-13 {
        fill: #1b4688;
      }

      .cls-14 {
        fill: #585ba8;
      }

      .cls-15 {
        fill: #768fc9;
      }

      .cls-16 {
        fill: rgba(249, 194, 19, .5);
      }

      .cls-17 {
        isolation: isolate;
        opacity: .08;
      }

      .cls-18 {
        fill: #fdece3;
      }

      .cls-18, .cls-6 {
        stroke-miterlimit: 10;
      }

      .cls-18, .cls-6, .cls-19 {
        stroke: #381810;
        stroke-width: 3px;
      }

      .cls-19 {
        fill: none;
        stroke-linecap: round;
        stroke-linejoin: round;
      }
    </style>
  </defs>
  <g>
    <g class="cls-17">
      <path class="cls-10" d="m327.03,365.93c0-8.15-56.28-14.76-125.71-14.76-69.42,0-125.7,6.61-125.7,14.76,0,8.15,56.27,14.76,125.7,14.76,69.43,0,125.71-6.61,125.71-14.76Z"/>
    </g>
    <path class="cls-7" d="m145.23,85.63h0S64.64,244.4,61.07,232.4c-3.57-12-16.92-7.3-17.35-14.44-.53-8.8,11.68-7.14,12.33-16.22.63-9.08-16.27-10.76-15.36-18.38,1.37-11.33,19.89-8.86,20.54-17.62.65-8.76-23.36-23.89-21.74-30.16,3.42-13.2,34.71-6.48,38.28-16.86s-18.48-45.9-12.64-52.38c7.19-8,48.12-3,80.11,19.3h0Z"/>
    <g>
      <path class="cls-2" d="m2.54,298.62c-.82,24.84,22.93,49.3,61.27,41.51,21.28-4.33,26.93-6.55,36.34-6.73,1.06,0,4.72-.02,5.32.02,2.63.16,4.95.48,7.05.92,2.66.72,5.54,1.83,8.86,3.4,15.85,9.94,5.29,30.66,29,31,29.12.42,32.84-23.65,52.13-25.07.96.02,1.94.02,2.91.02,16.44,1.42,14.4,26.67,39.25,25.05,26.16-1.7,20.24-27.34,56.74-55.66,11.72-11.67,87.91-103.02,18.82-196.55-53.19-72-213.42-46.7-240.02,31.14-13.12,38.42-17.88,78.89-13.48,109.76,1.64,31.9,3.27,53.78-17.41,58.97-30.17,7.57-34.62-30.95-20.3-34.78,11.54-3.08,11.08,6.6,8.65,13.58-3.29,7.27,5.51,11.75,11.51,1.37,3.75-6.51,4.59-23.79-10.29-28.81-14.89-5.01-35.37,1.5-36.35,30.86h0Z"/>
      <path class="cls-11" d="m218.06,356.38c-3.67-5.15-6.84-9.6-12.77-10.16-.9,0-1.82,0-2.72-.02-7.49.59-12.43,5.06-18.14,10.23-7.82,7.07-16.7,15.06-34.09,14.84-15.49-.22-18.33-8.98-20.83-16.72-1.81-5.59-3.52-10.88-9.35-14.59-3.11-1.46-5.8-2.5-8.24-3.16-2.09-.44-4.25-.72-6.62-.86-.43-.03-3.18-.02-4.35-.02h-.77c-6.06.11-10.47,1.1-19.25,3.08-4.29.97-9.63,2.17-16.63,3.59-19.12,3.89-36.47.26-48.85-10.2C5.22,323.74-.4,311.4.02,298.53H.02c.58-17.4,7.69-25.9,13.55-29.97,7.28-5.05,17.04-6.24,26.11-3.18,6.13,2.07,10.54,6.26,12.76,12.13,2.76,7.31,1.54,15.75-1.1,20.32-4.12,7.13-9.79,8.43-13.31,6.62-2.84-1.46-4.88-5.26-2.71-10.17,1.53-4.44,1.64-8.39.28-9.86-1.26-1.36-4.26-.81-5.93-.36-4.89,1.31-7.3,9.05-5.26,16.9,2.25,8.67,9.8,16.65,24.3,13.02,17.38-4.36,17.31-21.59,15.62-54.21l-.11-2.07c-4.52-31.88.44-72.26,13.6-110.82,6.37-18.64,20.63-35.4,41.23-48.49,19.09-12.12,42.65-20.61,68.13-24.55,26.66-4.13,53.04-2.92,76.28,3.49,25.39,7,45.72,20.05,58.78,37.73,29.2,39.53,36.56,84.92,21.26,131.26-13.81,41.84-40.06,68.31-40.33,68.57l-.23.21c-16.61,12.89-24.2,25.13-30.3,34.96-7,11.3-12.54,20.23-27.83,21.22-.82.05-1.61.08-2.38.08-13.72,0-19.61-8.26-24.39-14.97Zm120.66-111.65c14.97-45.36,8.06-87.99-20.53-126.69-12.39-16.77-31.78-29.17-56.08-35.87-22.56-6.22-48.2-7.38-74.17-3.36-52.31,8.09-93.67,35.45-105.37,69.69-12.75,37.32-17.74,77.92-13.37,108.59l.13,2.41c1.62,31.23,2.79,53.79-19.42,59.35-18.07,4.53-27.66-6.12-30.39-16.63-3.14-12.09,2.03-21.2,8.83-23.02,4.92-1.32,8.59-.71,10.92,1.8,3.93,4.24,1.84,11.93.75,15.04l-.08.21c-.78,1.72-.63,3.22.38,3.73,1.18.61,4.03-.12,6.66-4.66,1.71-2.96,3.07-9.88.75-16.02-1.69-4.48-4.94-7.55-9.66-9.14-7.57-2.55-15.66-1.6-21.64,2.55-7.05,4.89-10.99,13.88-11.39,26.01h0c-.37,11.32,4.6,22.19,13.65,29.84,11.18,9.45,27.02,12.69,44.6,9.12,6.96-1.41,12.26-2.61,16.53-3.57,8.82-1.99,13.68-3.08,20.31-3.2h.8c2.66,0,4.19,0,4.67.03,2.63.16,5.06.48,7.41.97l.14.04c2.78.75,5.81,1.92,9.28,3.56l.26.14c7.47,4.68,9.66,11.43,11.58,17.38,2.46,7.58,4.23,13.06,16.12,13.23.24,0,.48,0,.72,0,14.95,0,22.56-6.88,29.93-13.55,6.16-5.57,11.99-10.84,21.26-11.52h.12s.12,0,.12,0c.94.02,1.94.02,2.85.02h.21c8.31.72,12.5,6.59,16.54,12.27,4.99,7,9.73,13.59,22.33,12.79,12.7-.83,16.91-7.61,23.88-18.85,6.29-10.15,14.12-22.78,31.36-36.19,7.2-7.21,27.9-32.86,38.99-66.48Z"/>
    </g>
    <path class="cls-7" d="m117.43,68.81c14.99,5.03,20.99,11.67,29.79,2.97,10.98-10.84-10.14-57.09,6.65-67.46,15.02-9.27,70.82,18.11,92.44,71.95,6.45,16.08-5.03,22.44-13.14,17.08-8.11-5.35-71.52-26.44-126.01,12.16,0,0-3.25-41.25,10.27-36.71Z"/>
    <g>
      <path class="cls-14" d="m156.28,178.48h0c0-17.94,14.54-32.49,32.48-32.49h149.28c17.94,0,32.48,14.54,32.48,32.48h0c0,17.95-14.54,32.49-32.48,32.49h-149.28c-17.94,0-32.48-14.54-32.48-32.48Z"/>
      <path class="cls-8" d="m153.78,177.65c.44-19.11,16.52-34.17,35.64-34.17h148.63c19.57,0,35.44,16.15,34.98,35.83-.44,19.11-16.52,34.17-35.64,34.17h-148.62c-19.57,0-35.44-16.15-34.99-35.83Zm34.99-29.14c-16.82,0-30.44,13.92-29.95,30.86.47,16.3,14.27,29.08,30.58,29.08h148.65c16.82,0,30.44-13.92,29.95-30.86-.47-16.3-14.27-29.07-30.58-29.07h-148.64Z"/>
    </g>
    <path class="cls-12" d="m201.64,177.71c.41-11.68,10.36-20.77,22.05-20.77h112.25c11.69,0,21.64,9.09,22.05,20.77.43,12.26-9.38,22.33-21.53,22.33h-113.28c-12.15,0-21.97-10.07-21.53-22.33Z"/>
    <path class="cls-11" d="m62.71,240.76l5.03-.2c-.4-10.23-8.9-14.63-15.11-17.85-3.01-1.56-6.41-3.32-6.41-4.74,0-2.87,1.63-3.99,4.74-5.87,3.19-1.93,7.17-4.34,7.58-10.17.44-6.15-5.04-9.86-9.43-12.85-3.3-2.24-6.43-4.36-6.17-6.51.5-4.12,4.05-5.55,9.84-7.43,4.94-1.6,10.53-3.41,10.96-9.21.39-5.25-4.93-9.81-10.56-14.64-5.57-4.78-11.89-10.19-11.19-15.37.71-5.33,6.68-6.17,16.41-6.92,8.66-.67,18.47-1.42,21.7-9.32,3.31-8.09-1.87-18.52-6.87-28.61-4.48-9.04-9.12-18.39-5.97-23.38,5.37-8.53,27.65-4.91,58.15,9.44l2.14-4.55c-16.08-7.57-54.56-23.46-64.55-7.57-4.65,7.38.39,17.54,5.73,28.3,4.51,9.09,9.17,18.48,6.72,24.47-2.05,5.02-9.52,5.6-17.43,6.21-9.24.71-19.71,1.52-21.01,11.27-1.06,7.88,6.36,14.24,12.9,19.86,4.23,3.63,9.02,7.73,8.82,10.45-.16,2.19-2.52,3.19-7.49,4.8-5.51,1.79-12.37,4.01-13.28,11.62-.62,5.2,4.14,8.42,8.34,11.27,4.51,3.06,7.46,5.29,7.24,8.32-.22,3.08-2.02,4.31-5.17,6.22-3.19,1.93-7.16,4.34-7.16,10.18,0,4.48,4.43,6.78,9.13,9.21,5.95,3.08,12.11,6.28,12.4,13.58Z"/>
    <path class="cls-11" d="m239.12,97.72c2.61,0,5.14-.84,7.18-2.5,4.87-3.97,5.74-11.41,2.34-19.89-15.28-38.03-46.73-63.72-71.12-72.3-10.51-3.7-19.35-4.02-24.89-.91-11.14,6.26-8.74,23.56-6.42,40.29,1.61,11.6,3.27,23.6-.76,27.58-5.91,5.85-13.5,4.41-18.82,2.17l-1.95,4.64c9.52,4,18.15,2.86,24.31-3.23,5.82-5.75,4.06-18.43,2.2-31.85-1.99-14.36-4.24-30.63,3.91-35.21,4.2-2.36,11.76-1.9,20.75,1.27,23.32,8.21,53.43,32.86,68.12,69.43,2.54,6.33,2.22,11.61-.85,14.12-2.26,1.84-5.7,1.81-8.57-.07l-2.77,4.2c2.29,1.52,4.86,2.27,7.34,2.27Z"/>
    <path class="cls-11" d="m108.61,111.6c45.67-34.16,96.08-32.16,123.6-15.85l2.57-4.33c-28.9-17.14-81.66-19.39-129.18,16.15l3.01,4.03Z"/>
    <path class="cls-4" d="m200.25,260.36s-1.79-4.21,1.05-5.56c2.84-1.36,5.32,1.85,5.32,1.85l1.39-.19c1.29-.18,2.53.49,3.1,1.66,3.46,7.2,25.09,53.21,25.22,56.13.16,3.42-.52,9.15-.52,9.15,0,0-6.68-.84-9.31-4.03-2.32-2.81-22.04-44.83-26.78-54.97-.63-1.34-.42-2.91.52-4.05h0Z"/>
    <path class="cls-3" d="m173.31,300.83c24.4,11.33,43.6,10.33,45.97-6.12,2.39-16.44-20.14-28.39-31.79-29.55"/>
    <path class="cls-11" d="m201.25,310.88c4.61,0,8.6-.87,11.83-2.62,4.82-2.61,7.83-7.17,8.7-13.19.81-5.58-.87-11.22-4.87-16.33-6.96-8.89-20.17-15.13-29.01-16.06-1.32-.14-2.62.7-2.87,2.01-.28,1.47.76,2.84,2.22,2.98,7.62.75,19.61,6.39,25.69,14.17,3.17,4.06,4.47,8.27,3.86,12.51-.64,4.44-2.7,7.63-6.12,9.49-7.31,3.96-20.54,2.03-36.31-5.29-1.3-.61-2.85,0-3.39,1.34-.51,1.26.17,2.71,1.4,3.28,11.04,5.11,20.88,7.71,28.86,7.71Z"/>
    <g>
      <circle class="cls-15" cx="304.65" cy="185.06" r="14.05" transform="translate(-35.97 290.12) rotate(-48.42)"/>
      <circle class="cls-15" cx="264.3" cy="184.91" r="14.05" transform="translate(-49.43 259.89) rotate(-48.42)"/>
      <rect class="cls-12" x="242.97" y="190.26" width="83.07" height="8.68" transform="translate(568.26 390.32) rotate(-179.78)"/>
    </g>
    <path class="cls-4" d="m271.32,239.67c-10.2,0-19.65-5.27-25.95-15.08-.72-1.12-.53-2.66.52-3.47,1.21-.94,2.93-.62,3.73.63,7.67,12.01,20.3,15.95,32.95,10.3,1.33-.59,2.89.04,3.42,1.41.5,1.28-.19,2.75-1.44,3.3-4.43,1.96-8.9,2.91-13.24,2.91Z"/>
  </g>
  <g>
    <path class="cls-6" d="m266.97,328.15l63.15,19.97c3.7,1.17,7.7-.63,9.27-4.19l41.66-94.43c1.83-4.15-.35-8.97-4.67-10.34l-63.15-19.97c-3.7-1.17-7.7.63-9.27,4.19l-41.66,94.43c-1.83,4.15.35,8.97,4.67,10.34Z"/>
    <path class="cls-18" d="m305.12,269.17l37.83,11.96c1.73.55,3.6-.3,4.34-1.96l9.82-22.25c.86-1.94-.16-4.2-2.19-4.84l-37.83-11.96c-1.73-.55-3.6.3-4.34,1.96l-9.82,22.25c-.86,1.94.16,4.2,2.19,4.84Z"/>
    <g>
      <path class="cls-13" d="m375.1,245.75c-.59,1.34-.08,2.74,1.13,3.13s2.69-.39,3.28-1.73c.59-1.34.08-2.74-1.13-3.13s-2.69.39-3.28,1.73Z"/>
      <polygon class="cls-9" points="376.65 247.93 384.52 250.42 385.71 247.72 377.84 245.23 376.65 247.93"/>
    </g>
    <g>
      <path class="cls-13" d="m369.79,257.79c-.59,1.34-.08,2.74,1.13,3.13s2.69-.39,3.28-1.73c.59-1.34.08-2.74-1.13-3.13s-2.69.39-3.28,1.73Z"/>
      <polygon class="cls-9" points="371.34 259.98 379.2 262.46 380.4 259.76 372.53 257.28 371.34 259.98"/>
    </g>
    <path class="cls-13" d="m364.48,269.84c-.59,1.34-.08,2.74,1.13,3.13,1.22.39,2.69-.39,3.28-1.73s.08-2.74-1.13-3.13c-1.22-.39-2.69.39-3.28,1.73Z"/>
    <g>
      <path class="cls-13" d="m343.22,318c-.59,1.34-.08,2.74,1.13,3.13s2.69-.39,3.28-1.73c.59-1.34.08-2.74-1.13-3.13s-2.69.39-3.28,1.73Z"/>
      <polygon class="cls-9" points="344.77 320.19 352.64 322.67 353.83 319.97 345.97 317.49 344.77 320.19"/>
    </g>
    <g>
      <path class="cls-13" d="m337.91,330.05c-.59,1.34-.08,2.74,1.13,3.13s2.69-.39,3.28-1.73c.59-1.34.08-2.74-1.13-3.13s-2.69.39-3.28,1.73Z"/>
      <polygon class="cls-9" points="339.46 332.23 347.33 334.72 348.52 332.02 340.65 329.53 339.46 332.23"/>
    </g>
    <g>
      <path class="cls-13" d="m332.6,342.09c-.59,1.34-.08,2.74,1.13,3.13s2.69-.39,3.28-1.73.08-2.74-1.13-3.13-2.69.39-3.28,1.73Z"/>
      <polygon class="cls-9" points="334.15 344.27 342.01 346.76 343.21 344.06 335.34 341.57 334.15 344.27"/>
    </g>
    <g>
      <g>
        <path class="cls-1" d="m358.74,296.47l-6.32,13.99c14.76,4.83,23.73.98,31.95-11.17,7.04-10.42,8.54-29.3-6.05-34.4"/>
        <path class="cls-11" d="m361.78,314.96c-3.14-.19-6.51-.89-10.15-2.09-1.33-.44-2.06-1.87-1.62-3.2s1.87-2.06,3.2-1.62c13.23,4.33,21.1,1.57,29.06-10.18.79-1.16,2.36-1.46,3.52-.68,1.16.79,1.47,2.36.68,3.52-6.97,10.3-14.67,14.86-24.69,14.25Z"/>
      </g>
      <path class="cls-11" d="m384.21,301.83c-.44-.03-.87-.17-1.26-.43-1.16-.79-1.47-2.36-.68-3.52,4.37-6.46,5.93-15.46,3.8-21.89-1.41-4.27-4.3-7.19-8.58-8.69-1.32-.46-2.02-1.91-1.56-3.23.46-1.32,1.91-2.02,3.23-1.56,5.76,2.02,9.81,6.13,11.72,11.89,3.04,9.19-.02,19.84-4.41,26.33-.52.77-1.39,1.17-2.26,1.11Z"/>
      <g>
        <path class="cls-1" d="m384.1,285.45l-13.04,19.55-8.94-5.36c-3.96-1.43-12.18-9.52-8.24-21.63,3.93-12.11,15.78-16.54,24.77-12.98l5.45,20.43Z"/>
        <path class="cls-11" d="m357.49,298.95c-.62-.04-1.23-.3-1.69-.79-2.49-2.65-7.9-9.98-4.34-20.94,2.09-6.45,6.48-11.41,12.34-13.97,5.63-2.46,12.08-2.38,17.7.22,1.27.59,1.83,2.1,1.24,3.37-.59,1.27-2.09,1.83-3.37,1.24-4.3-1.99-9.23-2.05-13.53-.18-4.52,1.97-7.91,5.84-9.54,10.88-2.72,8.37,1.34,13.9,3.21,15.89.96,1.02.91,2.63-.11,3.59-.53.5-1.22.73-1.9.69Z"/>
      </g>
    </g>
    <g>
      <path class="cls-13" d="m350.51,300.54c-.59,1.34-.08,2.74,1.13,3.13s2.69-.39,3.28-1.73c.59-1.34.08-2.74-1.13-3.13-1.22-.39-2.69.39-3.28,1.73Z"/>
      <polygon class="cls-9" points="352.06 302.73 355.45 303.72 356.58 301.24 353.25 300.03 352.06 302.73"/>
      <polygon class="cls-5" points="351.16 313.3 348.5 312.1 350.18 308.07 353.62 307.74 351.16 313.3"/>
    </g>
  </g>
  <line class="cls-19" x1="299.84" y1="279.54" x2="337.66" y2="291.91"/>
  <line class="cls-19" x1="296.33" y1="286.59" x2="334.15" y2="298.96"/>
  <path class="cls-16" d="m199.95,47.07c-.04-.77-.16-1.59-.39-2.55-.22-.96-.58-1.98-1.09-3.09-.52-1.06-1.21-2.23-2.11-3.3-.32-.44-.7-.88-1.13-1.27.67-2.49-.69-4.67-.69-4.67-2.39-.19-3.89.65-4.48,1.07-.09-.05-.19-.1-.28-.1-.39-.15-.82-.35-1.24-.45-.43-.15-.86-.26-1.29-.41-.43-.1-.91-.2-1.39-.31-.09,0-.14,0-.24-.05-.99-3.33-3.94-4.77-3.94-4.77-3.35,2.05-4.07,5.02-4.07,5.02,0,0-.01.05-.05.19-.2.04-.39.09-.58.13-.24.09-.53.18-.77.23-.24.09-.53.18-.77.28-.48.23-1.02.46-1.5.7-.49.28-.97.56-1.41.84-.04-.05-.09-.05-.09-.05-4.58-1.81-8.7.28-8.7.28-.46,4.89,1.69,8.04,2.16,8.62-.1.29-.2.62-.3.91-.36,1.1-.62,2.24-.83,3.44,0,.19-.05.33-.05.53-4.35,1.94-5.68,6.24-5.68,6.24,3.48,4.14,7.65,4.5,7.65,4.5.51.97,1.12,1.84,1.78,2.72.28.34.56.68.89,1.03-1.35,3.67.08,6.81.08,6.81,3.98.21,6.6-1.62,7.13-2.04.39.15.82.25,1.2.35,1.2.35,2.44.52,3.69.64.29,0,.62,0,.91.01h.14s.1,0,.1,0h.19s.19.01.19.01c1.83,2.72,5.08,3.11,5.08,3.11,2.4-2.41,2.53-4.85,2.54-5.38v-.24c.49-.33.98-.7,1.41-1.08.93-.85,1.81-1.79,2.5-2.79.05-.09.15-.19.2-.28,2.63.19,4.53-1.55,4.53-1.55-.38-2.74-1.94-4.11-2.27-4.4l-.05-.05h-.05s-.04,0-.04-.05c0-.14.05-.33.06-.48,0-.29.05-.57.06-.91v-.67s.01-.24.01-.24v-.48s.01-.24.01-.24l-.04-.24c-.05-.29-.09-.62-.18-.92-.27-1.2-.68-2.32-1.29-3.34-.6-1.02-1.36-1.94-2.21-2.72-.85-.78-1.8-1.38-2.8-1.87-1-.45-2.05-.8-3.1-.92-.53-.06-1.06-.11-1.58-.12h-.19s-.05,0-.05,0c0,0-.1,0-.05,0h-.29s-.19-.01-.19-.01c-.29.04-.53.04-.81.08-1.06.17-2.03.54-2.95,1.05-.87.51-1.65,1.12-2.28,1.88-.64.71-1.13,1.52-1.49,2.38-.35.86-.56,1.72-.61,2.58v.62s-.01.14-.01.14v.19s-.01.29-.01.29c.03.43.12.87.21,1.25.23.82.55,1.54,1.02,2.13.42.63.99,1.12,1.56,1.56.57.39,1.19.69,1.8.89.62.2,1.2.26,1.77.27h.2s.09,0,.09,0h.29s.05,0,.05,0h.05s.09,0,.09,0c.1,0,.15,0,.2-.04.04,0,.14-.05.19-.04.15-.04.24-.04.38-.09.24-.09.49-.18.73-.28.24-.09.43-.23.63-.38.05-.04.09-.1.14-.09.19-.14.25-.43.06-.62-.14-.19-.38-.25-.58-.11-.05.05-.1.05-.14.09-.15.09-.34.14-.53.18-.2.04-.39.09-.58.13-.1,0-.2.04-.29.04h-.15s-.14,0-.14,0h-.14s-.2,0-.2,0h-.04s-.1,0-.1,0h-.14c-.43-.06-.91-.21-1.34-.41-.43-.2-.86-.5-1.23-.84-.38-.34-.71-.78-.94-1.21-.23-.48-.42-.97-.51-1.54-.04-.29-.04-.53-.03-.82v-.33s.01-.1.01-.1c0-.14.05-.29.05-.43.22-1.15.86-2.29,1.78-3.14.25-.24.49-.43.73-.56.25-.19.54-.33.83-.47.29-.14.58-.23.92-.32.29-.09.62-.14.96-.13h.48s.09.01.09.01h.15s.09,0,.09,0h.05s.15,0,.15,0c.33.05.71.11,1.05.16.67.15,1.34.41,1.95.8,1.24.69,2.28,1.82,2.93,3.12.32.68.55,1.35.63,2.07.05.19.05.39.04.53v.57s-.01.1-.01.1v.48c-.01.19-.06.38-.06.57-.01.19-.06.38-.11.58-.06.19-.1.38-.16.57-.1.38-.25.77-.4,1.15-.3.71-.7,1.43-1.19,2.09-.98,1.28-2.24,2.31-3.75,2.96-.72.32-1.49.55-2.31.68-.39.04-.82.08-1.2.12h-.15s-.14,0-.14,0h-.19s-.1,0-.1,0h-.05c-.19,0-.43-.01-.62-.06-.86-.06-1.72-.27-2.53-.52-.82-.25-1.62-.6-2.34-1-1.47-.84-2.84-1.97-3.88-3.33-.51-.68-.98-1.41-1.35-2.13-.37-.77-.64-1.54-.87-2.37-.23-.82-.31-1.64-.39-2.45v-.24s.01-.05.01-.05v-.24s.01-.1.01-.1v-.62c.02-.43.07-.81.13-1.25.05-.43.16-.86.21-1.25.1-.43.2-.81.31-1.24.26-.81.56-1.62.91-2.33.69-1.48,1.63-2.8,2.75-3.84.29-.28.58-.52.88-.75.29-.23.58-.42.92-.66.29-.19.63-.38.97-.56.14-.09.34-.14.48-.23.1-.05.19-.09.24-.09.1-.05.19-.09.24-.09.34-.14.72-.27,1.06-.37.1-.05.19-.04.29-.09.1-.05.19-.04.29-.09.19-.04.38-.09.53-.14.1-.05.19-.04.29-.04.09,0,.19-.04.29-.04.09,0,.19-.04.29-.04l.14-.04h.15c.09,0,.19-.04.29-.04.09,0,.19-.04.33-.04.1,0,.25-.04.34-.04h.19s.15,0,.15,0h.05s.09,0,.09,0h.34s.14.01.14.01h.05s.05,0,.05,0h.28s1.06.02,1.06.02c.72.06,1.39.12,2.06.27,1.34.26,2.62.72,3.76,1.31,1.14.6,2.19,1.28,3.04,2.07.05.05.1.1.14.15.05.05.1.1.14.15.1.1.19.2.33.29.1.1.19.2.29.29.09.1.18.2.28.29.38.39.7.83,1.03,1.26.61.83,1.13,1.65,1.5,2.47.04.05.04.1.09.14.05.05.05.1.05.15.04.1.09.19.13.29.05.1.1.19.14.29.05.1.09.19.14.29.14.39.28.72.37,1.06.18.53.32,1.01.4,1.45.05.15.19.29.39.24.19,0,.33-.14.34-.33.3-.71.31-1.24.27-1.82h-.01Z"/>
</svg>