<?xml version="1.0" encoding="UTF-8"?>
<svg id="Layer_1" data-name="Layer 1" xmlns="http://www.w3.org/2000/svg" viewBox="0 0 489.78 345.86">
  <defs>
    <style>
      .cls-1 {
        fill: #f9c213;
      }

      .cls-2 {
        fill: #f9a01b;
      }

      .cls-3 {
        fill: #010101;
      }

      .cls-4 {
        fill: #ee6224;
      }

      .cls-5 {
        fill: #fff;
      }

      .cls-6 {
        fill: #231735;
      }

      .cls-7 {
        fill: #111222;
      }

      .cls-8 {
        fill: #38170f;
      }

      .cls-9 {
        fill: #1c0f2d;
      }

      .cls-10 {
        fill: #46417c;
      }

      .cls-11 {
        fill: #585ba8;
      }

      .cls-12 {
        isolation: isolate;
        opacity: .1;
      }

      .cls-13 {
        opacity: .5;
      }
    </style>
  </defs>
  <ellipse class="cls-11" cx="468.11" cy="162.04" rx="15.8" ry="36.11"/>
  <g class="cls-12">
    <path class="cls-7" d="m271.72,331.84c0-7.74-53.47-14.02-119.42-14.02-65.96,0-119.42,6.28-119.42,14.02,0,7.74,53.46,14.02,119.42,14.02,65.95,0,119.42-6.28,119.42-14.02Z"/>
  </g>
  <path class="cls-2" d="m307.91,212.59c42.88-13.54,55.9-29.09,47.38-41.32-8.51-12.23-30.58-6.27-38.92.12"/>
  <path class="cls-8" d="m308.59,214.75l-1.36-4.3c37.02-11.69,45.78-22.91,47.7-28.55,1.11-3.25.62-6.3-1.49-9.32-2.2-3.16-5.63-5.12-10.2-5.84-8.75-1.36-20.05,2.29-25.5,6.46l-2.74-3.58c6.32-4.84,18.88-8.9,28.94-7.34,5.75.9,10.32,3.57,13.21,7.72,2.9,4.17,3.61,8.79,2.06,13.36-3.85,11.3-21.35,22.16-50.61,31.4Z"/>
  <path class="cls-4" d="m130.23,76.79S57.96,219.15,54.76,208.39c-3.2-10.76-15.18-6.55-15.56-12.95-.48-7.89,10.47-6.4,11.05-14.54.58-8.14-14.59-9.65-13.77-16.48,1.22-10.17,17.84-7.94,18.42-15.8.58-7.85-20.94-21.42-19.49-27.05,3.07-11.84,31.13-5.81,34.32-15.12,3.2-9.31-16.57-41.16-11.34-46.97,6.45-7.18,43.15-2.69,71.83,17.31h0Z"/>
  <g>
    <path class="cls-1" d="m57.21,304.99c19.08-3.88,24.14-5.88,32.58-6.03.96,0,4.23-.02,4.78.02,2.36.14,4.44.43,6.32.83,2.38.65,4.97,1.64,7.94,3.05,14.21,8.91,4.74,27.49,26.01,27.8,26.1.38,29.44-21.21,46.75-22.48.87.02,1.73.02,2.6.02,14.74,1.26,12.91,23.91,35.2,22.46,23.45-1.53,18.15-24.51,50.88-49.91,10.51-10.46,78.83-92.38,16.87-176.25-47.69-64.57-191.37-41.88-215.22,27.92-11.77,34.45-16.04,70.74-12.1,98.42,1.47,28.61,2.92,48.23-15.6,52.88-27.05,6.79-31.05-27.75-18.2-31.19,10.34-2.76,9.93,5.92,7.75,12.18-2.95,6.52,4.95,10.54,10.33,1.23,3.37-5.83,4.11-21.33-9.23-25.83-13.34-4.5-31.71,1.35-32.59,27.67-.74,22.27,20.57,44.21,54.93,37.22Z"/>
    <path class="cls-8" d="m217.4,332.98c-12.31,0-17.59-7.41-21.87-13.42-3.29-4.62-6.13-8.6-11.45-9.1-.81,0-1.62,0-2.44-.02-6.72.53-11.15,4.54-16.28,9.17-7.01,6.34-14.98,13.52-30.56,13.3-13.9-.2-16.45-8.06-18.69-15-1.62-5.01-3.16-9.75-8.37-13.08-2.78-1.31-5.2-2.24-7.39-2.84-1.86-.39-3.8-.64-5.93-.77-.39-.02-2.77-.02-3.79-.01h-.85c-5.4.1-9.35.99-17.22,2.76-3.84.87-8.63,1.94-14.91,3.22h0c-17.14,3.49-32.7.24-43.8-9.15C4.68,290.3-.36,279.23.02,267.69c.52-15.61,6.9-23.23,12.15-26.88,6.53-4.53,15.28-5.59,23.41-2.86,5.5,1.85,9.45,5.62,11.44,10.89,2.47,6.55,1.38,14.12-.98,18.21-3.7,6.4-8.78,7.56-11.95,5.93-2.55-1.31-4.38-4.72-2.44-9.12,1.37-3.98,1.47-7.52.25-8.84-1.13-1.21-3.81-.72-5.31-.32-4.38,1.17-6.54,8.11-4.71,15.15,2.02,7.78,8.8,14.93,21.78,11.67,15.58-3.91,15.51-19.36,14-48.63l-.1-1.84c-4.05-28.59.4-64.8,12.21-99.37,5.71-16.71,18.5-31.75,36.98-43.48,17.12-10.87,38.25-18.48,61.09-22.02,23.9-3.7,47.56-2.62,68.39,3.13,22.77,6.28,41,17.98,52.71,33.83,14.47,19.58,23.02,40.63,25.41,62.55,1.96,17.92-.18,36.48-6.34,55.15-12.38,37.52-35.93,61.25-36.16,61.49l-.21.18c-14.9,11.56-21.7,22.54-27.17,31.36-6.28,10.13-11.24,18.14-24.95,19.03-.73.05-1.44.07-2.13.07Zm-35.88-27.06h.11c.85.02,1.7.02,2.55.02h.19c7.45.65,11.2,5.91,14.83,11,4.47,6.28,8.7,12.21,20.03,11.47,11.39-.74,15.16-6.82,21.41-16.9,5.64-9.1,12.66-20.43,28.12-32.46,6.45-6.47,25.02-29.46,34.96-59.61,13.42-40.67,7.23-78.9-18.41-113.6-11.11-15.04-28.49-26.16-50.28-32.17-20.23-5.58-43.22-6.62-66.5-3.02-22.24,3.44-42.76,10.83-59.36,21.37-17.6,11.18-29.75,25.4-35.12,41.13-11.43,33.46-15.92,69.86-12,97.37l.02.2.1,1.94c1.45,28.01,2.5,48.24-17.4,53.24-16.2,4.07-24.81-5.49-27.25-14.91-2.81-10.84,1.82-19.01,7.92-20.65,4.41-1.18,7.7-.64,9.79,1.61,3.53,3.81,1.65,10.7.67,13.49l-.07.19c-.7,1.54-.56,2.88.34,3.34,1.06.55,3.62-.11,5.98-4.18,1.53-2.65,2.75-8.85.67-14.36-1.52-4.02-4.43-6.78-8.66-8.2-6.78-2.29-14.04-1.43-19.4,2.29-6.32,4.38-9.85,12.45-10.21,23.32-.34,10.15,4.12,19.9,12.24,26.76,10.03,8.48,24.23,11.38,39.99,8.17,6.23-1.27,10.99-2.34,14.82-3.2,7.91-1.78,12.27-2.76,18.17-2.87h.88c2.32,0,3.66,0,4.09.02,2.36.14,4.54.43,6.64.87l.13.03c2.5.68,5.22,1.72,8.31,3.19l.23.13c6.7,4.2,8.66,10.25,10.38,15.58,2.2,6.8,3.79,11.72,14.46,11.87,13.83.23,20.76-6.07,27.47-12.14,5.53-5,10.75-9.72,19.08-10.33h.11Z"/>
  </g>
  <path class="cls-4" d="m105.3,61.7c13.43,4.5,18.81,10.46,26.71,2.66,9.84-9.72-9.1-51.2,5.96-60.5,13.47-8.31,63.5,16.24,82.89,64.52,5.79,14.42-4.51,20.12-11.78,15.32-7.27-4.8-64.13-23.71-112.99,10.91,0,0-2.92-36.99,9.21-32.92Z"/>
  <g class="cls-13">
    <path class="cls-1" d="m184.25,40.77c-.04-.7-.14-1.43-.35-2.3-.2-.87-.53-1.79-.98-2.79-.47-.96-1.09-2.01-1.9-2.98-.3-.4-.63-.79-1.02-1.14.6-2.24-.62-4.21-.62-4.21-2.16-.17-3.51.59-4.04.97-.08-.04-.17-.09-.25-.09-.35-.14-.74-.32-1.12-.41-.39-.14-.78-.23-1.16-.37-.39-.09-.82-.19-1.25-.28-.08,0-.13,0-.22-.05-.89-3.01-3.56-4.3-3.56-4.3-3.02,1.85-3.67,4.53-3.67,4.53,0,0,0,.04-.05.17-.18.04-.35.08-.52.12-.22.08-.48.17-.7.21-.22.08-.48.17-.7.25-.44.21-.92.42-1.35.63-.44.25-.88.5-1.27.76-.04-.05-.08-.04-.08-.04-4.13-1.63-7.85.26-7.85.26-.42,4.41,1.52,7.26,1.95,7.79-.09.26-.19.56-.27.82-.32.99-.55,2.02-.75,3.11,0,.17-.05.3-.05.47-3.93,1.75-5.12,5.63-5.12,5.63,3.14,3.74,6.9,4.06,6.9,4.06.46.87,1.01,1.66,1.61,2.45.25.31.51.62.81.93-1.23,3.32.07,6.15.07,6.15,3.59.19,5.96-1.46,6.44-1.84.35.13.74.23,1.08.32,1.08.32,2.2.47,3.33.58.25,0,.56,0,.82.01h.13s.09,0,.09,0h.17s.17,0,.17,0c1.65,2.46,4.59,2.81,4.59,2.81,2.17-2.17,2.28-4.38,2.29-4.86v-.22c.44-.3.88-.63,1.27-.97.84-.77,1.63-1.62,2.26-2.52.05-.08.14-.17.17-.26,2.38.17,4.1-1.4,4.1-1.4-.34-2.47-1.75-3.71-2.05-3.98l-.05-.05h-.05s-.04,0-.04-.05c0-.13.05-.3.05-.43,0-.26.05-.52.05-.82v-.61s0-.22,0-.22v-.43s0-.22,0-.22l-.05-.22c-.04-.26-.07-.56-.15-.83-.24-1.09-.61-2.09-1.16-3.01-.54-.92-1.23-1.75-2-2.46-.77-.71-1.62-1.24-2.53-1.69-.9-.41-1.85-.72-2.8-.83-.48-.05-.96-.1-1.43-.11h-.18s-.04,0-.04,0c0,0-.09,0-.05,0h-.26s-.17,0-.17,0c-.26.04-.48.04-.74.07-.96.16-1.82.49-2.65.95-.79.46-1.49,1.01-2.07,1.7-.57.64-1.01,1.37-1.34,2.14-.32.78-.51,1.55-.55,2.33v.56s-.02.13-.02.13v.43c.03.39.11.78.19,1.13.21.74.5,1.39.92,1.92.38.57.89,1.01,1.41,1.41.51.36,1.07.62,1.62.81.56.18,1.08.23,1.6.24h.18s.08,0,.08,0h.09s.17,0,.17,0h.05s.04,0,.04,0h.09c.09,0,.13,0,.17-.04.05,0,.14-.04.18-.04.13-.04.22-.04.34-.08.22-.08.44-.16.66-.25.22-.08.39-.21.57-.34.05-.04.08-.09.13-.08.17-.13.23-.39.05-.56-.13-.18-.34-.22-.52-.1-.05.04-.09.04-.13.08-.14.08-.31.12-.49.17-.17.04-.34.08-.51.12-.09,0-.18.04-.26.04h-.14s-.13,0-.13,0h-.13s-.18,0-.18,0h-.04s-.09,0-.09,0h-.13c-.39-.05-.82-.19-1.21-.37-.39-.18-.78-.45-1.11-.75-.34-.31-.64-.71-.86-1.1-.21-.44-.37-.87-.45-1.39-.04-.26-.04-.48-.03-.74v-.3s0-.09,0-.09c0-.13.05-.26.05-.39.2-1.04.78-2.07,1.61-2.83.23-.21.44-.38.66-.51.23-.17.49-.3.75-.42.26-.13.52-.21.83-.29.25-.08.56-.12.87-.12h.43s.08,0,.08,0h.14s.08,0,.08,0h.05s.14,0,.14,0c.3.05.64.1.95.14.6.14,1.21.37,1.76.72,1.12.62,2.05,1.64,2.65,2.82.29.61.5,1.22.57,1.87.05.18.05.35.04.48v.52s0,.09,0,.09v.43c0,.17-.05.34-.06.52,0,.17-.05.34-.09.52-.05.18-.09.35-.14.52-.09.35-.23.69-.36,1.03-.27.64-.63,1.29-1.07,1.89-.88,1.15-2.03,2.09-3.39,2.67-.65.29-1.35.5-2.09.62-.35.04-.74.07-1.08.11h-.14s-.13,0-.13,0h-.17s-.09,0-.09,0h-.05c-.17,0-.39,0-.56-.05-.78-.06-1.55-.24-2.28-.47-.74-.23-1.46-.54-2.11-.9-1.33-.76-2.56-1.77-3.5-3.01-.47-.61-.89-1.27-1.22-1.93-.34-.7-.58-1.39-.79-2.14-.2-.74-.28-1.48-.35-2.22v-.13s0-.04,0-.04v-.04s0-.04,0-.04v-.13s0-.04,0-.04v-.04s0-.09,0-.09v-.17s0-.04,0-.04v-.09s0-.26,0-.26c0-.39.06-.73.11-1.12.05-.39.14-.78.19-1.13.09-.39.19-.73.28-1.12.23-.73.5-1.47.82-2.11.63-1.33,1.48-2.53,2.49-3.47.26-.26.52-.47.79-.68.26-.21.52-.38.83-.59.26-.17.57-.34.88-.51.13-.08.3-.12.43-.21.09-.04.17-.08.22-.08.09-.04.17-.08.22-.08.31-.12.65-.25.96-.33.09-.04.17-.04.26-.08.09-.04.17-.04.26-.08.17-.04.34-.08.48-.12.09-.04.17-.04.26-.04.08,0,.17-.04.26-.04.08,0,.17-.04.26-.04l.13-.04h.14c.08,0,.17-.04.26-.04.08,0,.17-.04.3-.04.09,0,.23-.04.31-.04h.17s.14,0,.14,0h.04s.09,0,.09,0h.31s.13,0,.13,0h.05s.04,0,.04,0h.26s.96.02.96.02c.64.06,1.25.11,1.86.25,1.21.24,2.37.65,3.39,1.19,1.03.54,1.98,1.16,2.74,1.87.05.05.09.09.13.13.05.05.09.09.13.13.09.09.17.18.3.27.09.09.17.18.26.26.08.09.16.18.25.26.34.35.63.75.93,1.14.55.75,1.02,1.49,1.35,2.23.04.05.04.09.08.13.05.04.05.09.04.13.05.09.09.17.13.26.05.09.08.17.13.26.05.09.08.17.13.26.13.35.25.65.33.96.16.48.29.92.36,1.31.05.13.17.26.34.22.18,0,.31-.12.32-.3.27-.64.28-1.12.24-1.64h0Z"/>
  </g>
  <path class="cls-3" d="m232.78,217c-9.05,0-17.42-4.69-22.98-13.41-.67-1.05-.36-2.45.69-3.12,1.05-.67,2.45-.36,3.12.69,6.78,10.61,17.94,14.1,29.13,9.1,1.14-.51,2.47,0,2.98,1.14.51,1.14,0,2.47-1.14,2.98-3.94,1.76-7.93,2.61-11.79,2.61Z"/>
  <g>
    <path class="cls-11" d="m140.14,160.04h0c0,16.09,13.04,29.13,29.12,29.13h133.86c16.08,0,29.12-13.04,29.12-29.12h0c0-16.09-13.04-29.13-29.12-29.13h-133.86c-16.09,0-29.12,13.04-29.12,29.12Z"/>
    <path class="cls-6" d="m303.12,191.43h-133.86c-17.3,0-31.38-14.08-31.38-31.38h0c0-17.31,14.08-31.39,31.38-31.39h133.86c17.3,0,31.38,14.08,31.38,31.38s-14.08,31.39-31.38,31.39Zm-133.86-58.26c-14.81,0-26.87,12.05-26.87,26.87h0c0,14.82,12.05,26.88,26.87,26.88h133.86c14.81,0,26.87-12.05,26.87-26.87s-12.05-26.88-26.87-26.88h-133.86Z"/>
  </g>
  <path class="cls-9" d="m180.8,160.06c0,10.67,8.65,19.32,19.32,19.32h101.58c10.67,0,19.32-8.65,19.32-19.32s-8.65-19.32-19.32-19.32h-101.58c-10.67,0-19.32,8.65-19.32,19.32Z"/>
  <path class="cls-5" d="m227.53,162.57h-24.37c-1.29,0-2.34-1.05-2.34-2.34s1.05-2.34,2.34-2.34h24.37c1.29,0,2.34,1.05,2.34,2.34s-1.05,2.34-2.34,2.34Z"/>
  <path class="cls-2" d="m132.4,228.77c-11.61,10.6-19.57,23.14-10.72,33.96,8.02,9.8,22.35,5.56,34.95-5.89"/>
  <path class="cls-8" d="m133.32,270.45c-.49,0-.97-.02-1.45-.05-4.75-.35-8.87-2.51-11.92-6.24-10.48-12.81.17-27.22,10.94-37.06.92-.84,2.35-.77,3.19.15.84.92.78,2.35-.15,3.19-13.58,12.39-17.11,22.78-10.49,30.87,2.28,2.79,5.23,4.34,8.76,4.6,6.54.48,14.89-3.43,22.92-10.72.92-.84,2.35-.77,3.19.15.84.92.77,2.35-.15,3.19-8.52,7.74-17.27,11.94-24.83,11.94Z"/>
  <path class="cls-8" d="m56.23,215.69c-.26-6.42-5.59-9.09-10.74-11.67-4.32-2.16-8.39-4.2-8.56-8.49-.21-5.32,3.44-7.5,6.36-9.25,2.78-1.66,4.5-2.82,4.69-5.54.2-2.72-2.44-4.72-6.49-7.46-3.77-2.55-8.04-5.45-7.48-10.11.82-6.83,6.97-8.82,11.91-10.42,4.45-1.44,6.57-2.34,6.71-4.3.18-2.44-4.12-6.12-7.91-9.37-5.87-5.03-12.52-10.74-11.57-17.81,1.17-8.75,10.56-9.47,18.85-10.11,7.09-.55,13.79-1.06,15.62-5.56,2.19-5.37-1.98-13.8-6.02-21.95-4.78-9.64-9.3-18.75-5.13-25.37,3.71-5.89,16.17-12.85,57.89,6.79l-1.92,4.08c-27.35-12.87-47.33-16.12-52.14-8.47-2.82,4.48,1.34,12.86,5.36,20.96,4.49,9.05,9.12,18.4,6.16,25.66-2.89,7.08-11.69,7.76-19.46,8.36-8.73.67-14.08,1.43-14.72,6.21-.62,4.64,5.04,9.5,10.04,13.78,5.05,4.33,9.81,8.42,9.47,13.13-.38,5.2-5.4,6.83-9.82,8.26-5.19,1.68-8.37,2.97-8.82,6.67-.23,1.93,2.57,3.82,5.53,5.83,3.95,2.67,8.86,6,8.46,11.52-.38,5.21-3.98,7.36-6.88,9.09-2.81,1.68-4.27,2.67-4.17,5.2.06,1.62,2.98,3.08,6.07,4.62,5.43,2.72,12.87,6.44,13.23,15.52l-4.51.18Z"/>
  <path class="cls-8" d="m214.42,87.63c-2.23,0-4.53-.68-6.58-2.04l2.49-3.77c2.56,1.69,5.65,1.72,7.68.07,2.76-2.25,3.04-6.98.76-12.66-13.17-32.79-40.17-54.9-61.09-62.26-8.06-2.84-14.84-3.25-18.61-1.13-7.31,4.11-5.29,18.7-3.5,31.58,1.67,12.03,3.24,23.4-1.97,28.55-5.52,5.45-13.26,6.48-21.8,2.89l1.75-4.16c4.77,2.01,11.58,3.3,16.88-1.94,3.61-3.57,2.12-14.32.68-24.72-2.08-15-4.23-30.52,5.76-36.14,4.97-2.79,12.89-2.5,22.32.81,21.88,7.7,50.08,30.73,63.78,64.84,3.05,7.61,2.27,14.28-2.1,17.84-1.83,1.49-4.1,2.24-6.44,2.24Z"/>
  <path class="cls-8" d="m97.38,100.08l-2.7-3.61c19.28-14.42,41.21-23.04,63.4-24.92,19.65-1.67,38.27,2.04,52.44,10.44l-2.3,3.88c-24.67-14.63-69.88-16.42-110.84,14.21Z"/>
  <path class="cls-5" d="m278.98,173.4c-7.26,0-13.17-5.91-13.17-13.17s5.91-13.17,13.17-13.17,13.17,5.91,13.17,13.17-5.91,13.17-13.17,13.17Zm0-21.67c-4.68,0-8.5,3.81-8.5,8.5s3.81,8.5,8.5,8.5,8.5-3.81,8.5-8.5-3.81-8.5-8.5-8.5Z"/>
  <g>
    <path class="cls-10" d="m287.28,144.12c-4.58,0-8.3,7.4-8.3,16.55s3.71,16.55,8.3,16.55h6.89c1.98,0,3.78-1.37,5.2-3.65l-6.61-1.7h60.67c-.2-5.47.44-10.95,1.89-16.28-.71,7.49.13,15.08,2.54,22.3.99,3,3.76,5.03,6.92,5.03h25.61c.12.33.23.67.35,1,1.03,2.88,3.78,4.81,6.85,4.81h36.82c-1.92-5.96-3.04-13.06-3.04-20.68,0-6.95.93-13.47,2.56-19.1-.6,3.69-.92,7.64-.92,11.72,0,21.19,8.62,38.37,19.26,38.37h15.99c10.64,0,19.26-17.18,19.26-38.37,0-21.19-8.62-38.37-19.26-38.37s-19.26,17.18-19.27,38.35c0,13.87,3.71,26.03,9.25,32.77-7.05-5.69-12.02-19.43-12.02-35.55,0-16.12,4.99-29.89,12.05-35.58h-5.99c-5.07,0-9.68,3.91-13.15,10.28h-41.57c-3.02,0-5.77,1.85-6.8,4.68-4.29,11.82-5.2,24.54-2.78,36.75-3.69-11.55-4.24-23.84-1.66-35.62h-21.56c-3.14,0-5.92,2.04-6.92,5.02-.65,1.99-1.21,4-1.63,6.04h-55.95c-1.51-3.29-3.69-5.35-6.11-5.35-4.58,0-8.3,7.42-8.3,16.55,0,6.01,1.61,11.26,4.01,14.15-3.05-2.44-5.22-8.39-5.22-15.34s2.15-12.89,5.2-15.34h-2.59.01Zm183.16,42.51c-7.2,0-13.02-11.62-13.02-25.95s5.83-25.95,13.02-25.95c7.2,0,13.02,11.61,13.02,25.93,0,14.33-5.83,25.95-13.02,25.95h0Z"/>
    <path class="cls-6" d="m468.26,201.31h-15.99c-5.97,0-11.3-4.37-15.17-11.55l.4,1.24h-39.91c-3.84,0-7.3-2.32-8.78-5.82h-24.03c-4.12,0-7.76-2.64-9.06-6.58-.49-1.48-.93-2.97-1.3-4.47h-52.74l-.4.64c-1.9,3.04-4.42,4.71-7.12,4.71h-6.89c-6.02,0-10.56-8.09-10.56-18.81s4.54-18.81,10.56-18.81h5.33-.01s1.12.01,1.12.01c.29-.02.58-.02.87,0h1.66l-.3.24c2.18.63,4.17,2.4,5.69,5.1h52.76c.36-1.46.78-2.94,1.29-4.48,1.32-3.94,4.96-6.57,9.06-6.57h24c1.44-3.5,4.92-5.82,8.79-5.82h40.26c3.95-6.64,9.05-10.28,14.47-10.28h12.39l-1.22.98c1.54-.64,3.16-.98,4.82-.98,12.07,0,21.52,17.84,21.52,40.62s-9.45,40.63-21.52,40.63Zm-36.5-52.97l4.4.99c-.59,3.65-.89,7.47-.89,11.36,0,19.57,7.79,36.11,17,36.11h15.99c7.12,0,13.39-9.87,15.87-23.39-2.17,8.08-6.36,13.84-11.43,15.17v.29h-2.26c-8.57.01-15.28-12.37-15.28-28.19s6.71-28.2,15.28-28.2c6.06,0,11.19,6.19,13.68,15.41-2.49-13.48-8.75-23.32-15.86-23.32-9.21,0-17,16.53-17.02,36.1,0,12.78,3.35,24.78,8.73,31.33l-3.16,3.19c-7.81-6.3-12.86-20.94-12.86-37.3,0-13.53,3.45-25.88,9.07-33.32h-.75c-4,0-7.97,3.23-11.17,9.11l-.64,1.18h-42.91c-2.1,0-3.99,1.29-4.68,3.2-4.12,11.36-5.05,23.65-2.68,35.54l-4.36,1.13c-3.51-10.99-4.28-22.7-2.26-34.05h-18.81c-2.16,0-4.08,1.4-4.78,3.48-.66,2-1.17,3.9-1.56,5.78l-.37,1.8h-59.23l-.6-1.31c-1.16-2.53-2.68-4.04-4.06-4.04-2.85,0-6.04,6.11-6.04,14.29,0,5.24,1.34,10.11,3.49,12.71l-1.56,1.58h4.12c.3,0,.58-.07.86-.18l-2.83-.73.56-4.44h58.38c.02-4.91.7-9.82,2.01-14.61l4.42.81c-.69,7.27.13,14.46,2.44,21.37.69,2.09,2.61,3.49,4.78,3.49h27.22l.87,2.52c.7,1.97,2.6,3.3,4.71,3.3h33.81c-1.5-5.68-2.29-11.98-2.29-18.43,0-6.91.92-13.73,2.65-19.72Zm38.33,36.02h.35c5.74,0,10.77-11.07,10.77-23.69,0-11.2-4.42-23.67-10.77-23.67-5.73,0-10.77,11.07-10.77,23.69s4.83,23.23,10.41,23.68Zm-185.79-35.89c-1.72,2.46-3.06,6.9-3.06,12.2,0,7.73,2.85,13.62,5.57,14.24-2.73-3.42-4.42-9.17-4.42-15.43,0-4.1.68-7.9,1.91-11.01Z"/>
  </g>
</svg>