<svg width="377" height="349" viewBox="0 0 377 349" fill="none" xmlns="http://www.w3.org/2000/svg">
<path opacity="0.3" d="M105.784 299.945C43.1906 297.283 -3.79519 249.197 21.3875 178.552C38.1336 131.715 79.8527 92.9701 120.744 92.4752C161.636 91.9803 271.931 96.8632 331.564 164.616C391.197 232.369 339.429 313.051 289.042 329.983C238.654 346.915 168.377 302.608 105.784 299.945Z" fill="#CA87E9"/>
<path d="M154.793 209.856C146.878 212.066 83.2982 230.43 94.1009 246.345C104.233 261.264 153.438 243.556 168.914 232.775" fill="#F9A01B"/>
<path d="M95.5629 245.356C97.6105 248.371 101.847 250.009 107.968 250.278C114.005 250.539 121.404 249.43 129.079 247.496C144.443 243.62 160.4 236.573 167.912 231.334L169.932 234.229C161.967 239.779 145.587 246.973 129.941 250.913C122.111 252.89 114.337 254.083 107.82 253.801C101.381 253.525 95.6688 251.781 92.6469 247.34L95.57 245.356H95.5629ZM155.267 211.558C151.327 212.659 133.549 217.778 118.143 224.577C110.411 227.995 103.428 231.758 99.0791 235.57C96.8973 237.477 95.5205 239.27 94.9486 240.887C94.412 242.398 94.5321 243.838 95.5629 245.349L92.6398 247.333C90.9665 244.869 90.7123 242.257 91.6161 239.708C92.4845 237.265 94.3626 234.999 96.7491 232.909C101.522 228.729 108.914 224.789 116.716 221.344C132.369 214.431 150.346 209.263 154.321 208.154L155.267 211.558ZM167.905 231.327C168.703 230.769 169.804 230.967 170.362 231.765C170.92 232.563 170.722 233.664 169.925 234.222L167.905 231.327ZM154.321 208.154C155.26 207.893 156.234 208.444 156.495 209.383C156.757 210.322 156.206 211.296 155.267 211.558L154.321 208.154Z" fill="black"/>
<path d="M149.823 264.117C140.687 264.731 119.272 274.383 106.846 242.498C94.4192 210.612 76.2877 186.748 59.4766 202.493" stroke="black" stroke-width="5.54424" stroke-miterlimit="10" stroke-linecap="round"/>
<path d="M99.1925 250.031C90.9317 245.328 88.983 235.839 91.0517 229.725C92.7604 224.683 100.181 222.622 104.544 228.757C109.395 235.571 101.466 242.815 101.466 242.815" fill="#F9A01B"/>
<path d="M105.984 227.733C108.95 231.899 107.926 236.192 106.394 239.15C105.624 240.633 104.699 241.868 103.979 242.716C103.612 243.146 103.294 243.485 103.061 243.725C102.948 243.845 102.849 243.937 102.779 244.001C102.743 244.036 102.715 244.057 102.694 244.078C102.687 244.085 102.673 244.093 102.666 244.1C102.666 244.1 102.666 244.1 102.659 244.107C102.659 244.107 102.261 243.674 101.465 242.807C100.67 241.937 100.272 241.504 100.272 241.508C100.272 241.508 100.272 241.508 100.279 241.501C100.286 241.494 100.308 241.48 100.329 241.452C100.371 241.41 100.442 241.339 100.533 241.247C100.717 241.064 100.978 240.781 101.282 240.428C101.889 239.708 102.645 238.705 103.252 237.526C104.473 235.161 104.989 232.421 103.104 229.774L105.977 227.726L105.984 227.733ZM89.3849 229.159C91.5595 222.748 100.795 220.433 105.991 227.733L103.118 229.781C99.5803 224.81 93.9813 226.625 92.7316 230.289L89.3849 229.152V229.159ZM98.3235 251.57C89.2296 246.394 87.0832 235.973 89.3849 229.167L92.7316 230.296C90.8959 235.719 92.6469 244.276 100.075 248.505L98.3306 251.577L98.3235 251.57ZM102.659 244.121C101.939 244.777 100.823 244.728 100.166 244.008C99.5097 243.288 99.5591 242.172 100.279 241.515L102.659 244.121ZM100.067 248.498C100.915 248.978 101.211 250.059 100.731 250.906C100.251 251.753 99.1708 252.05 98.3235 251.57L100.067 248.498Z" fill="black"/>
<g style="mix-blend-mode:multiply" opacity="0.8">
<path d="M216.292 292.204C167.35 292.204 127.675 287.546 127.675 281.8C127.675 276.054 167.35 271.396 216.292 271.396C265.234 271.396 304.91 276.054 304.91 281.8C304.91 287.546 265.234 292.204 216.292 292.204Z" fill="#EFDBF8"/>
</g>
<path d="M240.381 84.7513C262.813 69.1122 291.514 65.6031 296.562 71.2162C300.657 75.7632 285.187 100.673 287.694 107.952C290.193 115.232 312.138 110.522 314.538 119.779C315.675 124.177 298.843 134.789 299.294 140.932C299.746 147.075 312.745 145.338 313.698 153.288C314.34 158.633 302.479 159.812 302.931 166.181C303.382 172.549 311.947 171.384 311.573 177.555C311.269 182.561 301.907 179.264 299.4 187.68C296.901 196.096 240.374 84.7513 240.374 84.7513H240.381Z" fill="#EE6224"/>
<path d="M340.443 234.117C339.759 213.528 325.39 208.96 314.955 212.476C304.526 215.992 305.105 228.115 307.739 232.676C311.947 239.956 318.125 236.814 315.816 231.716C314.108 226.823 313.79 220.031 321.874 222.192C331.921 224.882 328.794 251.895 307.64 246.586C293.152 242.95 294.289 227.607 295.44 205.232C298.525 183.584 295.185 155.201 285.978 128.258C267.324 73.666 154.956 55.9228 117.655 106.42C69.1986 172.012 122.633 236.08 130.851 244.263C156.453 264.131 152.301 282.107 170.645 283.301C188.077 284.437 186.644 266.722 198.174 265.734C198.851 265.734 199.529 265.734 200.207 265.72C213.742 266.715 216.354 283.597 236.766 283.301C253.401 283.06 245.995 268.53 257.108 261.561C259.438 260.46 261.457 259.683 263.321 259.175C264.79 258.864 266.421 258.638 268.264 258.525C268.687 258.497 271.25 258.511 271.999 258.511C278.6 258.631 282.561 260.191 297.48 263.227C324.36 268.692 341.022 251.535 340.443 234.117Z" fill="#F9C213"/>
<path d="M297.833 261.497C323.752 266.764 339.215 250.299 338.678 234.173L342.209 234.053C342.83 252.77 324.967 270.612 297.127 264.95L297.833 261.49V261.497ZM272.034 256.745C275.493 256.809 278.261 257.254 281.989 258.052C285.752 258.856 290.363 259.979 297.833 261.497L297.127 264.957C289.678 263.439 284.849 262.267 281.248 261.504C277.619 260.728 275.105 260.332 271.963 260.276L272.027 256.745H272.034ZM268.151 256.767C268.652 256.731 271.335 256.745 272.006 256.745V260.276C271.815 260.276 271.511 260.276 271.158 260.276C270.805 260.276 270.403 260.276 270.014 260.276C269.619 260.276 269.245 260.276 268.941 260.276C268.786 260.276 268.659 260.276 268.56 260.276C268.511 260.276 268.468 260.276 268.433 260.276C268.398 260.276 268.384 260.276 268.384 260.276L268.151 256.752V256.767ZM262.961 257.451C264.521 257.12 266.237 256.887 268.158 256.767L268.376 260.29C266.611 260.396 265.072 260.615 263.688 260.904L262.961 257.451ZM256.359 259.972C258.753 258.842 260.871 258.023 262.862 257.48L263.794 260.883C262.057 261.356 260.137 262.09 257.87 263.163L256.359 259.972ZM236.745 281.542C240.65 281.485 242.867 280.596 244.279 279.431C245.719 278.238 246.566 276.557 247.35 274.368C248.847 270.167 249.963 263.968 256.176 260.071L258.054 263.065C253.154 266.136 252.413 270.69 250.676 275.555C249.843 277.899 248.727 280.335 246.531 282.149C244.307 283.992 241.215 285.009 236.795 285.072L236.745 281.542ZM200.341 263.968C207.846 264.519 212.408 269.567 217.082 273.677C221.826 277.849 227.171 281.683 236.745 281.542L236.795 285.072C225.964 285.228 219.793 280.765 214.745 276.324C209.626 271.82 206.11 267.929 200.08 267.484L200.341 263.961V263.968ZM198.181 263.975C198.858 263.975 199.522 263.975 200.179 263.961L200.249 267.492C199.55 267.506 198.851 267.506 198.181 267.506V263.975ZM170.764 281.549C174.803 281.81 177.613 280.984 179.767 279.678C181.962 278.344 183.615 276.43 185.21 274.277C186.735 272.215 188.331 269.73 190.209 267.83C192.179 265.832 194.622 264.279 198.025 263.989L198.329 267.506C195.971 267.71 194.269 268.741 192.723 270.309C191.078 271.975 189.786 274.03 188.049 276.374C186.382 278.626 184.398 280.991 181.602 282.693C178.764 284.416 175.22 285.376 170.539 285.072L170.772 281.549H170.764ZM131.939 242.878C145.015 253.024 150.522 262.74 154.97 269.857C157.208 273.436 159.079 276.183 161.423 278.146C163.697 280.045 166.507 281.274 170.764 281.549L170.539 285.072C165.617 284.755 162.073 283.286 159.164 280.857C156.333 278.492 154.2 275.279 151.983 271.735C147.528 264.604 142.303 255.39 129.778 245.674L131.946 242.886L131.939 242.878ZM119.081 107.478C95.2661 139.71 96.4876 171.496 104.685 196.328C112.903 221.238 128.133 239.073 132.108 243.027L129.616 245.526C125.365 241.297 109.768 223.003 101.331 197.437C92.8655 171.786 91.6017 138.743 116.243 105.381L119.081 107.478ZM284.312 128.837C279.815 115.683 269.633 104.626 256.126 96.2169C242.627 87.8148 225.907 82.1311 208.567 79.6811C173.765 74.774 137.17 82.9784 119.081 107.471L116.243 105.374C135.455 79.3704 173.688 71.2014 209.061 76.1861C226.811 78.6855 244.011 84.5175 257.99 93.2161C271.963 101.915 282.822 113.543 287.652 127.686L284.312 128.83V128.837ZM293.696 204.992C296.732 183.683 293.448 155.582 284.312 128.837L287.652 127.693C296.929 154.833 300.325 183.499 297.191 205.486L293.696 204.985V204.992ZM307.216 248.308C303.284 247.32 300.297 245.505 298.108 242.878C295.941 240.273 294.677 237.011 293.95 233.29C292.516 225.94 293.117 216.239 293.681 205.161L297.205 205.345C296.626 216.641 296.082 225.799 297.409 232.62C298.066 235.987 299.16 238.635 300.82 240.626C302.458 242.596 304.759 244.058 308.071 244.891L307.209 248.315L307.216 248.308ZM322.34 220.497C325.666 221.386 327.685 224.239 328.575 227.423C329.464 230.621 329.33 234.448 328.144 237.964C326.951 241.495 324.656 244.841 321.112 246.924C317.539 249.021 312.886 249.727 307.224 248.308L308.085 244.884C312.999 246.119 316.678 245.434 319.325 243.881C322.001 242.307 323.823 239.729 324.804 236.835C325.786 233.926 325.87 230.826 325.186 228.369C324.494 225.898 323.138 224.359 321.436 223.907L322.347 220.497H322.34ZM314.157 232.309C313.698 230.989 313.317 229.52 313.161 228.065C312.999 226.632 313.034 225.1 313.522 223.73C314.023 222.304 315.018 221.061 316.663 220.44C318.224 219.847 320.137 219.911 322.34 220.497L321.429 223.907C319.594 223.413 318.513 223.511 317.913 223.737C317.398 223.935 317.066 224.288 316.847 224.902C316.607 225.573 316.543 226.519 316.671 227.67C316.798 228.8 317.101 230.014 317.497 231.137L314.164 232.302L314.157 232.309ZM309.271 231.8C311.192 235.119 313.091 235.338 313.74 235.147C314.079 235.048 314.334 234.822 314.468 234.455C314.602 234.074 314.644 233.396 314.221 232.45L317.433 230.996C318.16 232.598 318.294 234.229 317.793 235.641C317.285 237.068 316.162 238.127 314.722 238.543C311.806 239.383 308.509 237.527 306.221 233.566L309.278 231.8H309.271ZM315.52 214.156C311.015 215.674 308.911 218.993 308.177 222.544C307.421 226.209 308.191 229.929 309.264 231.8L306.207 233.566C304.654 230.868 303.806 226.251 304.717 221.838C305.649 217.312 308.466 212.808 314.39 210.809L315.52 214.156ZM338.678 234.18C338.346 224.309 334.774 218.626 330.382 215.738C325.934 212.815 320.314 212.539 315.513 214.156L314.383 210.809C320.017 208.91 326.802 209.164 332.317 212.786C337.895 216.451 341.841 223.349 342.201 234.06L338.671 234.18H338.678ZM271.999 258.518V256.752H272.034L271.999 258.518ZM268.263 258.532L268.384 260.29H268.376L268.271 258.532H268.263ZM263.321 259.181L262.855 257.48L262.905 257.466H262.954L263.321 259.181ZM257.108 261.568L256.169 260.071L256.261 260.014L256.352 259.972L257.108 261.568ZM200.207 265.726L200.172 263.961H200.256H200.341L200.214 265.719L200.207 265.726ZM198.173 265.74L198.025 263.982H198.103H198.181V265.748L198.173 265.74ZM130.851 244.269L129.771 245.667L129.686 245.604L129.609 245.526L130.851 244.276V244.269ZM295.44 205.239L293.674 205.147V205.069L293.688 204.992L295.432 205.239H295.44ZM315.816 231.723L314.206 232.45L314.171 232.379L314.143 232.302L315.809 231.723H315.816ZM307.739 232.683L306.214 233.566L307.746 232.683H307.739Z" fill="black"/>
<path d="M267.077 98.6879C228.865 71.6178 184.391 86.4025 178.707 90.1588C173.024 93.915 164.968 89.4527 169.493 78.177C184.659 40.4172 223.789 21.2126 234.323 27.7153C246.1 34.9877 231.287 67.4238 238.983 75.028C245.161 81.1283 249.369 76.4684 259.875 72.9452C269.365 69.7609 267.077 98.6879 267.077 98.6879Z" fill="#EE6224"/>
<path d="M105.158 127.078H209.851C222.431 127.078 232.629 137.276 232.629 149.855V149.862C232.629 162.442 222.431 172.64 209.851 172.64H105.158C92.5782 172.64 82.3805 162.442 82.3805 149.862V149.855C82.3805 137.276 92.5782 127.078 105.158 127.078Z" fill="#585BA8"/>
<path d="M84.1453 149.862C84.1453 161.47 93.5499 170.875 105.157 170.875V174.405C91.6012 174.405 80.615 163.419 80.615 149.862H84.1453ZM105.157 128.85C93.5499 128.85 84.1453 138.255 84.1453 149.862H80.615C80.615 136.306 91.6012 125.32 105.157 125.32V128.85ZM209.851 128.85H105.157V125.32H209.851V128.85ZM230.863 149.862C230.863 138.255 221.459 128.85 209.851 128.85V125.32C223.407 125.32 234.394 136.306 234.394 149.862H230.863ZM209.851 170.875C221.459 170.875 230.863 161.47 230.863 149.862H234.394C234.394 163.419 223.407 174.405 209.851 174.405V170.875ZM105.157 170.875H209.851V174.405H105.157V170.875Z" fill="#231735"/>
<path d="M185.719 164.98H106.274C97.9286 164.98 91.1646 158.216 91.1646 149.87C91.1646 141.525 97.9286 134.761 106.274 134.761H185.719C194.065 134.761 200.829 141.525 200.829 149.87C200.829 158.216 194.065 164.98 185.719 164.98Z" fill="#1C0F2D"/>
<path d="M212.767 213.443C213.205 226.745 217.957 239.108 227.821 238.268C238.715 237.343 241.419 226.039 241.045 213.761" fill="#F9A01B"/>
<path d="M227.672 236.509C232.367 236.114 235.269 233.551 237.049 229.555C238.877 225.439 239.47 219.861 239.287 213.817L242.817 213.711C243.008 219.945 242.429 226.159 240.282 230.995C238.079 235.952 234.182 239.503 227.983 240.033L227.686 236.517L227.672 236.509ZM214.533 213.386C214.744 219.889 216.015 226.01 218.317 230.331C220.598 234.617 223.697 236.848 227.672 236.509L227.969 240.026C222.08 240.527 217.865 236.997 215.203 231.991C212.556 227.02 211.228 220.306 211.002 213.506L214.533 213.393V213.386ZM239.28 213.817C239.252 212.843 240.014 212.031 240.988 211.995C241.963 211.96 242.775 212.73 242.803 213.704L239.273 213.81L239.28 213.817ZM211.002 213.499C210.967 212.525 211.737 211.706 212.711 211.678C213.685 211.642 214.504 212.412 214.533 213.386L211.002 213.499Z" fill="black"/>
<path d="M313.346 177.555C313.346 179.786 311.694 181.219 310.253 182.165C308.799 183.119 306.73 184.093 305.043 185.025C301.371 187.037 298.42 189.339 298.25 193.54L294.72 193.399C294.967 187.143 299.564 184.001 303.341 181.925C305.375 180.81 306.998 180.082 308.312 179.214C309.639 178.339 309.816 177.83 309.816 177.548H313.346V177.555ZM304.697 166.053C304.852 168.228 306.165 169.11 308.34 170.431C309.35 171.038 310.621 171.8 311.602 172.888C312.654 174.053 313.346 175.557 313.346 177.562H309.816C309.816 176.475 309.477 175.804 308.983 175.26C308.411 174.625 307.613 174.123 306.511 173.46C304.478 172.224 301.47 170.508 301.174 166.314L304.697 166.067V166.053ZM315.619 152.313C315.874 154.417 314.822 156.055 313.614 157.263C312.435 158.442 310.832 159.494 309.463 160.426C308.001 161.414 306.737 162.311 305.848 163.293C304.993 164.232 304.626 165.093 304.697 166.046L301.174 166.3C301.011 164.069 301.978 162.304 303.228 160.92C304.443 159.579 306.059 158.463 307.472 157.503C308.968 156.486 310.225 155.653 311.108 154.763C311.962 153.909 312.174 153.295 312.103 152.73L315.605 152.306L315.619 152.313ZM301.054 140.798C301.11 141.539 301.484 142.097 302.501 142.683C303.616 143.318 305.099 143.77 306.935 144.37C308.651 144.935 310.642 145.627 312.266 146.785C313.967 147.999 315.302 149.75 315.612 152.313L312.11 152.737C311.941 151.325 311.27 150.407 310.218 149.659C309.088 148.854 307.585 148.296 305.834 147.724C304.203 147.187 302.254 146.616 300.743 145.747C299.14 144.829 297.7 143.396 297.53 141.059L301.054 140.798ZM316.283 119.538C316.65 122.285 315.521 124.735 313.974 126.811C312.435 128.879 310.317 130.8 308.312 132.53C306.243 134.316 304.337 135.891 302.925 137.409C301.456 138.99 300.99 140.063 301.039 140.798L297.516 141.059C297.347 138.722 298.808 136.66 300.333 135.015C301.915 133.306 304.054 131.548 305.996 129.868C308.001 128.131 309.851 126.436 311.136 124.714C312.414 122.991 312.965 121.466 312.774 120.018L316.276 119.552L316.283 119.538ZM289.326 107.281C289.99 108.905 291.437 109.915 293.781 110.579C296.161 111.249 299.055 111.44 302.162 111.68C305.135 111.913 308.354 112.188 310.917 113.163C312.23 113.664 313.466 114.377 314.44 115.443C315.429 116.531 316.064 117.893 316.283 119.538L312.781 120.004C312.647 119.023 312.301 118.345 311.828 117.823C311.334 117.286 310.628 116.834 309.653 116.46C307.648 115.697 304.965 115.436 301.88 115.196C298.921 114.963 295.61 114.758 292.821 113.968C289.99 113.17 287.307 111.673 286.057 108.609L289.326 107.274V107.281ZM298.053 70.2699C299.811 73.0659 299.5 76.4408 298.561 79.6463C297.608 82.8871 295.871 86.4103 294.191 89.8135C292.475 93.2802 290.795 96.6339 289.785 99.7335C288.761 102.861 288.542 105.375 289.326 107.288L286.057 108.623C284.793 105.523 285.33 102 286.424 98.6391C287.533 95.243 289.34 91.6421 291.02 88.246C292.736 84.7793 294.325 81.5385 295.172 78.6578C296.026 75.7418 295.991 73.6378 295.066 72.155L298.053 70.2769V70.2699ZM252.781 75.5794C262.475 71.0183 272.148 67.4739 280.098 66.09C284.066 65.3981 287.716 65.2216 290.773 65.8006C293.845 66.3795 296.471 67.7563 298.053 70.2769L295.066 72.155C294.162 70.7218 292.574 69.7333 290.117 69.2673C287.646 68.8013 284.461 68.9143 280.705 69.5709C273.2 70.8771 263.852 74.2732 254.284 78.7778L252.781 75.5865V75.5794Z" fill="black"/>
<path d="M240.226 73.7718C243.82 77.3232 248.6 77.3162 253.422 75.2898L254.792 78.5447C249.264 80.8676 242.754 81.2277 237.741 76.2783L240.226 73.7647V73.7718ZM235.192 26.1767C239.012 28.3231 240.473 32.397 240.904 36.7746C241.335 41.1662 240.784 46.3416 240.12 51.3405C239.443 56.4311 238.659 61.3241 238.496 65.4686C238.419 67.5303 238.496 69.2954 238.8 70.7358C239.104 72.1761 239.591 73.1505 240.219 73.7718L237.741 76.2853C236.442 75.0074 235.729 73.2917 235.347 71.4559C234.966 69.6202 234.889 67.5232 234.966 65.3345C235.129 60.971 235.962 55.8027 236.618 50.8815C237.282 45.8615 237.776 41.0674 237.388 37.1276C237 33.1737 235.771 30.5613 233.455 29.2621L235.185 26.1837L235.192 26.1767ZM167.863 77.5209C175.594 58.2739 189.129 43.7504 202.226 34.8612C208.779 30.4201 215.267 27.3487 220.937 25.8166C226.515 24.3056 231.655 24.1927 235.192 26.1837L233.462 29.2621C231.153 27.963 227.164 27.7936 221.862 29.2268C216.651 30.639 210.508 33.5126 204.21 37.7913C191.614 46.3416 178.574 60.3356 171.139 78.8413L167.863 77.528V77.5209ZM179.689 91.635C176.272 93.8943 171.908 93.7955 169.063 91.0843C166.175 88.3377 165.455 83.5224 167.863 77.5209L171.139 78.8342C169.021 84.1084 170.066 87.1656 171.499 88.5283C172.968 89.9263 175.474 90.1876 177.748 88.6907L179.696 91.635H179.689Z" fill="black"/>
<path d="M177.579 88.8101C198.704 76.2847 235.617 75.7834 268.18 100.135L266.069 102.959C234.508 79.356 199.135 80.1397 179.379 91.8461L177.579 88.8101Z" fill="black"/>
<path d="M136.712 159.381L115.509 144.921L117.571 141.899L138.774 156.359L136.712 159.381ZM115.509 144.921C114.676 144.349 114.457 143.212 115.029 142.379C115.601 141.546 116.738 141.327 117.571 141.899L115.509 144.921ZM138.774 156.359C139.607 156.931 139.826 158.068 139.254 158.901C138.682 159.734 137.545 159.953 136.712 159.381L138.774 156.359Z" fill="white"/>
<path d="M115.509 156.359L136.712 141.899L138.774 144.921L117.571 159.381L115.509 156.359ZM136.712 141.899C137.545 141.327 138.682 141.546 139.254 142.379C139.826 143.212 139.607 144.349 138.774 144.921L136.712 141.899ZM117.571 159.381C116.738 159.953 115.601 159.734 115.029 158.901C114.457 158.068 114.676 156.931 115.509 156.359L117.571 159.381Z" fill="white"/>
<path d="M167.976 159.381L146.766 144.921L148.828 141.899L170.038 156.359L167.976 159.381ZM146.766 144.921C145.933 144.349 145.714 143.212 146.286 142.379C146.858 141.546 147.995 141.327 148.828 141.899L146.766 144.921ZM170.038 156.359C170.871 156.931 171.09 158.068 170.518 158.901C169.946 159.734 168.809 159.953 167.976 159.381L170.038 156.359Z" fill="white"/>
<path d="M146.766 156.359L167.976 141.899L170.038 144.921L148.828 159.381L146.766 156.359ZM167.976 141.899C168.809 141.327 169.946 141.546 170.518 142.379C171.09 143.212 170.871 144.349 170.038 144.921L167.976 141.899ZM148.828 159.381C147.995 159.953 146.858 159.734 146.286 158.901C145.714 158.068 145.933 156.931 146.766 156.359L148.828 159.381Z" fill="white"/>
<path d="M40.1028 215.243L33.007 222.346" stroke="black" stroke-width="3.6063" stroke-miterlimit="10" stroke-linecap="round"/>
<path d="M47.2056 222.346L40.1027 229.442" stroke="black" stroke-width="3.6063" stroke-miterlimit="10" stroke-linecap="round"/>
<path d="M36.1257 211.268L51.1782 226.32L58.707 218.791C62.8608 214.638 62.8608 207.888 58.707 203.734C54.5532 199.58 47.8032 199.58 43.6494 203.734L36.1207 211.263L36.1257 211.268Z" fill="#F15A29" stroke="black" stroke-width="5.54424" stroke-miterlimit="10" stroke-linecap="round"/>
<path d="M154.549 185.651C148.474 185.875 139.308 188.998 139.593 195.267C139.879 201.542 149.75 203.589 158.005 201.22C166.261 198.851 165.629 192.843 164.329 190.808C163.029 188.773 160.186 185.444 154.543 185.651H154.549Z" fill="black"/>
<path d="M152.265 188.56C148.353 189.064 145.443 191.099 145.443 191.099C145.443 191.099 146.014 195.345 152.836 195.212C159.658 195.078 157.787 188.724 157.787 188.724C157.787 188.724 155.989 188.08 152.271 188.554L152.265 188.56Z" fill="white"/>
<path d="M343.695 118.833H337.75V122.796H343.695V118.833Z" fill="#D9D9D9"/>
<path d="M332.787 121.699L329.814 126.847L333.246 128.828L336.219 123.68L332.787 121.699Z" fill="#D9D9D9"/>
<path d="M333.234 130.621L329.802 132.603L332.774 137.751L336.206 135.769L333.234 130.621Z" fill="#D9D9D9"/>
<path d="M343.695 136.667H337.75V140.63H343.695V136.667Z" fill="#D9D9D9"/>
<path d="M348.227 130.623L345.254 135.771L348.686 137.752L351.659 132.604L348.227 130.623Z" fill="#D9D9D9"/>
<path d="M348.682 121.701L345.25 123.682L348.223 128.83L351.655 126.849L348.682 121.701Z" fill="#D9D9D9"/>
<path d="M319.469 64.2963L324.66 74.6792L329.852 64.2963H319.469ZM322.679 66.2777H326.642L324.66 70.2407L322.679 66.2777Z" fill="#D9D9D9"/>
<path d="M374.894 95.2963H355.08V99.2592H374.894V95.2963Z" fill="#D9D9D9"/>
<path d="M351.116 95.2963H347.153V99.2592H351.116V95.2963Z" fill="#D9D9D9"/>
<path d="M343.191 95.2963H339.228V99.2592H343.191V95.2963Z" fill="#D9D9D9"/>
<path d="M335.265 95.2963H331.302V99.2592H335.265V95.2963Z" fill="#D9D9D9"/>
<path d="M327.339 95.2963H323.376V99.2592H327.339V95.2963Z" fill="#D9D9D9"/>
<path d="M319.413 95.2963H315.45V99.2592H319.413V95.2963Z" fill="#D9D9D9"/>
<path d="M275.155 29.8518H271.192V33.8148H275.155V29.8518Z" fill="#D9D9D9"/>
<path d="M271.191 33.8149H267.228V37.7778H271.191V33.8149Z" fill="#D9D9D9"/>
<path d="M279.117 33.8149H275.154V37.7778H279.117V33.8149Z" fill="#D9D9D9"/>
<path d="M275.155 37.7778H271.192V41.7407H275.155V37.7778Z" fill="#D9D9D9"/>
<path d="M164.434 26.9814C161.917 26.9814 159.876 29.0224 159.876 31.5389C159.876 34.0553 161.917 36.0963 164.434 36.0963C166.95 36.0963 168.991 34.0553 168.991 31.5389C168.991 29.0224 166.95 26.9814 164.434 26.9814ZM164.434 33.8176C163.185 33.8176 162.155 32.7872 162.155 31.5389C162.155 30.2905 163.185 29.2601 164.434 29.2601C165.682 29.2601 166.712 30.2905 166.712 31.5389C166.712 32.7872 165.682 33.8176 164.434 33.8176Z" fill="#D9D9D9"/>
<path d="M121.528 66.7166L116.694 71.5505L118.305 73.1618L123.139 68.3279L121.528 66.7166Z" fill="#D9D9D9"/>
<path d="M111.858 76.3889L107.024 81.2228L108.635 82.8341L113.469 78.0002L111.858 76.3889Z" fill="#D9D9D9"/>
<path d="M118.306 76.3877L116.695 77.999L121.529 82.8328L123.14 81.2215L118.306 76.3877Z" fill="#D9D9D9"/>
<path d="M108.634 66.7183L107.023 68.3296L111.857 73.1634L113.468 71.5522L108.634 66.7183Z" fill="#D9D9D9"/>
<path d="M66.4189 116.198H50.567V120.161H66.4189V116.198Z" fill="#D9D9D9"/>
<path d="M74.3449 116.198H70.3819V120.161H74.3449V116.198Z" fill="#D9D9D9"/>
<path d="M73.9917 76.6338L72.3804 78.2451L73.9917 79.8564L75.6029 78.2451L73.9917 76.6338Z" fill="#D9D9D9"/>
<path d="M70.7677 79.8595L69.1564 81.4708L70.7677 83.0821L72.3789 81.4708L70.7677 79.8595Z" fill="#D9D9D9"/>
<path d="M73.9829 79.8547L72.3716 81.466L73.9829 83.0773L75.5942 81.466L73.9829 79.8547Z" fill="#D9D9D9"/>
<path d="M70.7765 76.6387L69.1652 78.2499L70.7765 79.8612L72.3878 78.2499L70.7765 76.6387Z" fill="#D9D9D9"/>
<path d="M309.08 24.6852C309.08 24.6852 309.08 28.6481 305.117 28.6481C309.08 28.6481 309.08 32.6111 309.08 32.6111C309.08 32.6111 309.08 28.6481 313.043 28.6481C309.08 28.6481 309.08 24.6852 309.08 24.6852Z" fill="#D9D9D9"/>
<path d="M331.871 185.724C331.871 185.724 331.871 189.687 327.908 189.687C331.871 189.687 331.871 193.65 331.871 193.65C331.871 193.65 331.871 189.687 335.834 189.687C331.871 189.687 331.871 185.724 331.871 185.724Z" fill="#D9D9D9"/>
<path d="M202.897 -6.10352e-05H200.618V2.27864H202.897V-6.10352e-05Z" fill="#D9D9D9"/>
<path d="M202.897 4.55743H200.618V6.83614H202.897V4.55743Z" fill="#D9D9D9"/>
<path d="M205.175 2.27844H202.897V4.55714H205.175V2.27844Z" fill="#D9D9D9"/>
<path d="M200.618 2.27844H198.339V4.55714H200.618V2.27844Z" fill="#D9D9D9"/>
<path d="M63.7965 155.972H61.5178V158.251H63.7965V155.972Z" fill="#D9D9D9"/>
<path d="M63.7965 160.53H61.5178V162.809H63.7965V160.53Z" fill="#D9D9D9"/>
<path d="M66.0753 158.251H63.7966V160.529H66.0753V158.251Z" fill="#D9D9D9"/>
<path d="M61.5179 158.251H59.2393V160.529H61.5179V158.251Z" fill="#D9D9D9"/>
</svg>
