<?xml version="1.0" encoding="utf-8"?>
<!-- Generator: Adobe Illustrator 26.3.1, SVG Export Plug-In . SVG Version: 6.00 Build 0)  -->
<svg version="1.1" id="Layer_1" xmlns="http://www.w3.org/2000/svg"
	xmlns:xlink="http://www.w3.org/1999/xlink" x="0px" y="0px"
	viewBox="0 0 400 370" style="enable-background:new 0 0 288 282;" xml:space="preserve">
<style type="text/css">
	.st0{fill:#EE6224;}
	.st1{fill:#F9C213;}
	.st2{fill:#38170F;}
	.st3{fill:#5545EF;}
	.st4{fill:#231735;}
	.st5{fill:#1C0F2D;}
	.st6{fill:#60A3C4;}
	.st7{fill:#802B20;}
	.st8{fill:#90CEFC;}
	.st9{fill:#6AB6E5;}
	.st10{fill:#FFFFFF;}
	.st11{fill:#F9A01B;}
	.st12{fill:#010101;}
	.st13{fill:#9C2F23;}
</style>
<g transform="translate(20 20)">
<path opacity="0.3" d="M105.784 299.945C43.1906 297.283 -3.79519 249.197 21.3875 178.552C38.1336 131.715 79.8527 92.9701 120.744 92.4752C161.636 91.9803 271.931 96.8632 331.564 164.616C391.197 232.369 339.429 313.051 289.042 329.983C238.654 346.915 168.377 302.608 105.784 299.945Z" fill="#CA87E9"/>
	  <g style="mix-blend-mode:multiply" opacity="0.8">
    <path
      d="M216.292 292.204C167.35 292.204 127.675 287.546 127.675 281.8C127.675 276.054 167.35 271.396
  216.292 271.396C265.234 271.396 304.91 276.054 304.91 281.8C304.91 287.546 265.234 292.204 216.292
  292.204Z"
      fill="#EFDBF8" />
  </g>
</g>
<g transform="translate(75 20)">
<path class="st0" d="M177.5,65.2c24.3-16.9,55.3-20.7,60.8-14.6c4.4,4.9-12.3,31.9-9.6,39.8c2.7,7.9,26.5,2.8,29.1,12.8
	c1.2,4.8-17,16.2-16.5,22.9c0.5,6.6,14.6,4.8,15.6,13.4c0.7,5.8-12.1,7.1-11.7,14c0.5,6.9,9.8,5.6,9.4,12.3
	c-0.3,5.4-10.5,1.8-13.2,11C238.7,185.6,177.5,65.1,177.5,65.2L177.5,65.2L177.5,65.2z"/>
<g>
	<path class="st1" d="M285.8,226.8c-0.7-22.3-16.3-27.2-27.6-23.4c-11.3,3.8-10.7,16.9-7.8,21.9c4.6,7.9,11.2,4.5,8.7-1
		c-1.8-5.3-2.2-12.6,6.6-10.3c10.9,2.9,7.5,32.1-15.4,26.4c-15.7-3.9-14.4-20.5-13.2-44.8c3.3-23.4-0.3-54.1-10.2-83.3
		C206.7,53.2,85.1,34,44.7,88.6c-52.4,71,5.4,140.3,14.3,149.2c27.7,21.5,23.2,41,43.1,42.2c18.9,1.2,17.3-17.9,29.8-19
		c0.7,0,1.5,0,2.2,0c14.6,1.1,17.5,19.3,39.6,19c18-0.3,10-16,22-23.5c2.5-1.2,4.7-2,6.7-2.6c1.6-0.3,3.4-0.6,5.3-0.7
		c0.5,0,3.2,0,4,0c7.1,0.1,11.4,1.8,27.6,5.1C268.4,264.2,286.5,245.6,285.8,226.8L285.8,226.8z"/>
	<path class="st2" d="M103.8,282c-0.6,0-1.2,0-1.8-0.1c-11.6-0.8-15.8-7.5-21.1-16.1c-4.6-7.5-10.4-16.8-23-26.5l-0.2-0.2
		c-0.2-0.2-20.1-20.3-30.6-52c-11.6-35.2-6-69.6,16.1-99.6C53.1,74,68.5,64.1,87.8,58.8c17.6-4.9,37.7-5.8,57.9-2.6
		c19.3,3,37.2,9.4,51.7,18.6c15.6,9.9,26.5,22.7,31.3,36.8c10,29.3,13.8,59.9,10.3,84.1l-0.1,1.6c-1.3,24.8-1.3,37.9,11.8,41.2
		c11,2.8,16.7-3.3,18.4-9.9c1.5-6-0.3-11.8-4-12.8c-1.3-0.3-3.5-0.8-4.5,0.3c-1,1.1-1,4.1,0.2,7.5c1.6,3.7,0.1,6.6-2.1,7.7
		c-2.7,1.4-7,0.4-10.1-5c-2-3.5-2.9-9.9-0.8-15.4c1.7-4.5,5-7.6,9.7-9.2c6.9-2.3,14.3-1.4,19.8,2.4c4.5,3.1,9.8,9.5,10.3,22.7l0,0
		c0.3,9.8-3.9,19.1-11.7,25.7c-9.4,7.9-22.6,10.7-37.1,7.7c-5.3-1.1-9.4-2-12.6-2.7c-6.7-1.5-10-2.3-14.6-2.3l-0.6,0
		c-0.9,0-3,0-3.3,0c-1.8,0.1-3.4,0.3-5,0.7c-1.9,0.5-3.9,1.3-6.3,2.4c-4.4,2.8-5.7,6.8-7.1,11.1c-1.9,5.9-4.1,12.5-15.8,12.7
		c-13.2,0.2-19.9-5.9-25.9-11.3c-4.3-3.9-8.1-7.3-13.8-7.8c-0.7,0-1.4,0-2.1,0c-4.5,0.4-6.9,3.8-9.7,7.7
		C118.6,275.7,114.2,282,103.8,282z M60.3,236.3c13.1,10.2,19,19.8,23.8,27.5c5.3,8.5,8.5,13.7,18.1,14.3c9.6,0.6,13.2-4.4,17-9.7
		c3.1-4.3,6.2-8.8,12.5-9.3l0.2,0c0.7,0,1.4,0,2.2,0l0.1,0l0.1,0c7,0.5,11.5,4.5,16.1,8.7c5.7,5.1,11.6,10.5,23.3,10.3
		c9-0.1,10.4-4.3,12.2-10c1.5-4.5,3.1-9.6,8.8-13.2l0.2-0.1c2.6-1.2,4.9-2.1,7-2.7l0.1,0c1.8-0.4,3.6-0.6,5.6-0.7c0.4,0,1.5,0,3.6,0
		l0.6,0c5,0.1,8.7,0.9,15.4,2.4c3.2,0.7,7.3,1.6,12.5,2.7c13.3,2.7,25.4,0.3,33.9-6.9c6.9-5.8,10.6-14.1,10.4-22.6l0,0
		c-0.3-9.2-3.3-16-8.6-19.7c-4.5-3.1-10.7-3.9-16.4-1.9c-3.6,1.2-6,3.5-7.3,6.9c-1.8,4.7-0.7,9.9,0.6,12.2c2,3.4,4.2,4,5.1,3.5
		c0.8-0.4,0.9-1.5,0.3-2.8l-0.1-0.2c-0.8-2.4-2.4-8.2,0.6-11.4c1.8-1.9,4.6-2.4,8.3-1.4c5.2,1.4,9.1,8.3,6.7,17.5
		c-2.1,8-9.4,16.1-23.1,12.6c-16.8-4.2-16-21.4-14.7-45.1l0.1-1.8c3.3-23.3-0.5-54.1-10.2-82.4c-8.9-26-40.3-46.8-80-52.9
		c-19.7-3-39.2-2.2-56.3,2.6C70.4,67.6,55.7,77,46.3,89.7c-21.7,29.4-26.9,61.7-15.6,96.2C39.1,211.4,54.8,230.9,60.3,236.3z"/>
</g>
<path class="st0" d="M206.4,80.2C165.1,50.9,117,66.9,110.8,71c-6.2,4.1-14.9-0.8-10-13C117.2,17.2,159.6-3.6,171,3.4
	c12.7,7.9-3.3,43,5,51.2c6.7,6.6,11.2,1.6,22.6-2.3C208.9,48.9,206.4,80.2,206.4,80.2z"/>
<g>
	<path class="st3" d="M144.5,160.3H31.2c-13.6,0-24.7-11-24.7-24.7v0c0-13.6,11-24.6,24.7-24.6h113.3c13.6,0,24.6,11,24.6,24.6v0
		C169.2,149.2,158.1,160.3,144.5,160.3z"/>
	<path class="st4" d="M144.5,162.2H31.2c-14.6,0-26.6-11.9-26.6-26.6c0-14.7,11.9-26.6,26.6-26.6h113.3c14.6,0,26.6,11.9,26.6,26.6
		C171.1,150.3,159.2,162.2,144.5,162.2z M31.2,112.9c-12.5,0-22.7,10.2-22.7,22.7c0,12.5,10.2,22.8,22.7,22.8h113.3
		c12.5,0,22.7-10.2,22.7-22.7c0-12.5-10.2-22.8-22.7-22.8H31.2z"/>
</g>
<path class="st5" d="M118.4,152h-86c-9,0-16.4-7.3-16.4-16.4s7.3-16.4,16.4-16.4h86c9,0,16.4,7.3,16.4,16.4S127.4,152,118.4,152z"/>
<path class="st2" d="M240.2,182.9l-3.8-0.2c0.3-7.8,6.8-11.1,11.5-13.5c2.3-1.2,4.9-2.5,4.9-3.6c0-2.2-1.2-3-3.6-4.5
	c-2.4-1.5-5.4-3.3-5.8-7.7c-0.3-4.7,3.8-7.5,7.2-9.8c2.5-1.7,4.9-3.3,4.7-4.9c-0.4-3.1-3.1-4.2-7.5-5.6c-3.7-1.2-8-2.6-8.3-7
	c-0.3-4,3.7-7.4,8-11.1c4.2-3.6,9-7.7,8.5-11.7c-0.5-4-5.1-4.7-12.5-5.3c-6.6-0.5-14-1.1-16.5-7.1c-2.5-6.1,1.4-14.1,5.2-21.7
	c3.4-6.9,6.9-14,4.5-17.7c-4.1-6.5-21-3.7-44.1,7.2l-1.6-3.5c12.2-5.7,41.4-17.8,49-5.7c3.5,5.6-0.3,13.3-4.3,21.5
	c-3.4,6.9-7,14-5.1,18.6c1.6,3.8,7.2,4.2,13.2,4.7c7,0.5,15,1.2,16,8.6c0.8,6-4.8,10.8-9.8,15.1c-3.2,2.8-6.8,5.9-6.7,7.9
	c0.1,1.7,1.9,2.4,5.7,3.6c4.2,1.4,9.4,3,10.1,8.8c0.5,3.9-3.1,6.4-6.3,8.6c-3.4,2.3-5.7,4-5.5,6.3c0.2,2.3,1.5,3.3,3.9,4.7
	c2.4,1.5,5.4,3.3,5.4,7.7c0,3.4-3.4,5.1-6.9,7C245.1,174.9,240.4,177.3,240.2,182.9z"/>
<path class="st2" d="M106.3,74.3c-2,0-3.9-0.6-5.4-1.9c-3.7-3-4.4-8.7-1.8-15.1C110.7,28.5,134.5,9,153,2.5c8-2.8,14.7-3.1,18.9-0.7
	c8.5,4.8,6.6,17.9,4.9,30.6c-1.2,8.8-2.5,17.9,0.6,20.9c4.5,4.4,10.2,3.3,14.3,1.6l1.5,3.5c-7.2,3-13.8,2.2-18.4-2.4
	c-4.4-4.4-3.1-14-1.7-24.2c1.5-10.9,3.2-23.3-3-26.7c-3.2-1.8-8.9-1.4-15.7,1c-17.7,6.2-40.6,24.9-51.7,52.7
	c-1.9,4.8-1.7,8.8,0.6,10.7c1.7,1.4,4.3,1.4,6.5-0.1l2.1,3.2C110.1,73.7,108.2,74.3,106.3,74.3z"/>
<path class="st2" d="M205.3,84.9c-34.7-25.9-72.9-24.4-93.8-12l-1.9-3.3c21.9-13,62-14.7,98.1,12.3L205.3,84.9z"/>
<path class="st6" d="M16.1,199.8c-0.2-3.6,15.3-7.1,34.5-7.9c19.2-0.8,34.9,1.4,35.1,5c0.2,3.6-15.3,7.1-34.5,7.9
	C32,205.6,16.3,203.3,16.1,199.8z"/>
<path class="st7" d="M51.8,196.6c-13,0.6-24.2,2.3-30.1,4.5c6.2,1.5,17.1,2.3,29.5,1.7c13-0.5,24.2-2.3,30.1-4.5
	C75,196.8,64.1,196.1,51.8,196.6z"/>
<path class="st8" d="M14.3,199.9c0.1,2.4,3,3.5,3.9,3.9c1.9,0.7,4.6,1.4,7.9,1.8c6.7,1,15.6,1.3,25,0.9c9.4-0.4,18.2-1.5,24.8-3
	c3.3-0.8,5.9-1.6,7.7-2.5c0.9-0.4,3.5-1.7,3.6-4c0.1,3.2,1.3,37.5-15.8,51.1c-0.8,0.7-1.7,1.3-2.6,1.8c-3.2,1.1-9.1,2-15.8,2.3
	c-6.7,0.3-12.6-0.1-15.9-1c-1-0.5-1.9-1-2.8-1.6C15.7,237.1,14.4,201.1,14.3,199.9L14.3,199.9z"/>
<g>
	<path class="st9" d="M99.6,212.1c-1.4-3.5-4-5.8-7.1-6.5c-1.2-0.3-2.3-0.4-3.3-0.3c-0.7,0-1.3,0.1-1.9,0.3
		c-0.1,1.3-0.1,2.7-0.3,4.1c1-0.5,1.9-0.5,2.3-0.6c0.7,0,1.5,0,2.3,0.2c1.9,0.4,3.4,1.9,4.4,4.2c1.1,2.5,1.2,5.6,0.5,8.8
		c-1.2,5.4-5,9.6-8.7,9.7c-0.4,0-0.9,0-1.3-0.1c-1.5-0.3-2.7-0.9-3.6-1.8c-0.4,1.3-0.9,2.5-1.4,3.8c1.2,0.8,2.6,1.4,4.2,1.7
		c0.8,0.2,1.5,0.2,2.3,0.2c2.7-0.1,5.5-1.5,7.7-3.9c2.2-2.3,3.8-5.4,4.5-8.9C101.2,219.3,100.9,215.3,99.6,212.1L99.6,212.1z"/>
	<path class="st9" d="M87.7,237c-0.7,0-1.5-0.1-2.2-0.2c-1.7-0.4-3.2-1-4.5-1.9l-0.7-0.5l0.3-0.8c0.5-1.2,0.9-2.4,1.4-3.7l0.5-1.5
		l1.2,1.1c0.7,0.7,1.8,1.2,3.1,1.5c0.3,0.1,0.7,0.1,1,0.1c3.2-0.1,6.6-4.1,7.7-9c0.7-2.9,0.5-5.8-0.5-8.2c-0.8-2-2.1-3.3-3.7-3.6
		c-0.8-0.2-1.4-0.2-2.1-0.2c-0.4,0-1.1,0-1.9,0.5l-1.6,0.8l0.2-1.8c0.1-1.4,0.2-2.8,0.3-4.1l0-0.8l0.7-0.2c0.7-0.2,1.4-0.3,2.1-0.3
		c1.2,0,2.4,0.1,3.6,0.4c3.4,0.8,6.2,3.3,7.8,7.1l0.6,1.4H101c1,3.1,1.1,6.7,0.3,10.3c-0.8,3.6-2.5,6.9-4.8,9.3
		c-2.4,2.6-5.4,4.1-8.4,4.2C88,237,87.8,237,87.7,237z M82.9,233.6c0.9,0.5,2,0.9,3.1,1.2c0.7,0.2,1.3,0.2,2,0.2
		c2.5-0.1,5-1.4,7-3.6c2-2.2,3.6-5.1,4.3-8.4c0.8-3.7,0.6-7.4-0.7-10.5l-0.2-0.6c-1.3-2.8-3.5-4.7-6.1-5.3c-1.1-0.2-2.1-0.3-3.1-0.3
		c-0.3,0-0.7,0-1,0.1c0,0.6-0.1,1.2-0.1,1.8c0.5-0.1,0.9-0.1,1.2-0.1c0.8,0,1.7,0.1,2.6,0.3c2.2,0.5,4,2.2,5.1,4.8
		c1.1,2.7,1.3,6.1,0.6,9.4c-1.3,5.8-5.5,10.4-9.6,10.5c-0.6,0-1.1,0-1.6-0.1c-1.1-0.2-2.1-0.6-2.9-1.1
		C83.3,232.5,83.1,233,82.9,233.6z"/>
</g>
<path class="st8" d="M17.9,195.6c1.8-0.9,4.4-1.7,7.7-2.5c6.6-1.5,15.4-2.6,24.8-3c9.4-0.4,18.3-0.1,25,0.9c3.4,0.5,6,1.1,7.9,1.8
	c0.9,0.4,3.8,1.5,3.9,3.9c0,0.1,0,0.2,0,0.2c-0.1,2.3-2.7,3.6-3.6,4c-1.8,0.9-4.4,1.7-7.7,2.5c-6.6,1.5-15.4,2.6-24.8,3
	c-9.4,0.4-18.3,0.1-25-0.9c-3.4-0.5-6-1.1-7.9-1.8c-0.9-0.4-3.8-1.5-3.9-3.9c0,0,0,0,0,0C14.2,197.4,17,196.1,17.9,195.6z
	 M27.8,202.4c6.4,0.8,14.6,1,23.2,0.7c8.6-0.4,16.8-1.3,23.1-2.6c6.7-1.4,9.1-2.9,9.7-3.5c-0.6-0.6-3.2-1.8-10-2.7
	c-6.4-0.8-14.6-1-23.2-0.7c-8.6,0.4-16.8,1.3-23.1,2.6c-6.7,1.4-9.1,2.9-9.7,3.5C18.5,200.3,21.1,201.5,27.8,202.4z"/>
<path class="st10" d="M50.5,197c-0.5,0-1.1-0.2-1.5-0.6c-5.2-4.8-5.4-10.2-0.7-16.3c1.7-2.1,2.3-4.2,1.9-6c-0.3-1.7-1.5-3.2-3.2-4.2
	c-1-0.6-1.4-1.9-0.8-3c0.6-1,1.9-1.4,3-0.8c2.8,1.6,4.7,4.2,5.3,7.2c0.4,2.2,0.3,5.6-2.8,9.5c-3.8,5-2.7,7.7,0.2,10.4
	c0.9,0.8,0.9,2.2,0.1,3.1C51.6,196.8,51,197,50.5,197z"/>
<path class="st10" d="M36.9,197c-0.5,0-1.1-0.2-1.5-0.6c-3.1-2.9-3.9-6.6-2.1-10.2c0.4-0.8,0.9-1.5,1.3-2.2c1.2-1.9,1.8-3,1.3-4.4
	c-0.4-1.1,0.1-2.4,1.3-2.8c1.1-0.4,2.4,0.1,2.8,1.3c1.4,3.6-0.3,6.2-1.7,8.3c-0.4,0.6-0.8,1.2-1.1,1.8c-0.6,1.2-1.1,3,1.1,5
	c0.9,0.8,0.9,2.2,0.1,3.1C38,196.8,37.5,197,36.9,197z"/>
<path class="st10" d="M63.4,197c-0.5,0-1.1-0.2-1.5-0.6c-3.1-2.9-3.9-6.6-2.1-10.2c0.4-0.8,0.9-1.5,1.3-2.2c1.2-1.9,1.8-3,1.3-4.4
	c-0.4-1.1,0.1-2.4,1.3-2.8c1.1-0.4,2.4,0.1,2.8,1.3c1.4,3.6-0.3,6.2-1.7,8.3c-0.4,0.6-0.8,1.2-1.1,1.8c-0.6,1.2-1.1,3,1.1,5
	c0.9,0.8,0.9,2.2,0.1,3.1C64.6,196.8,64,197,63.4,197z"/>
<path class="st11" d="M12.3,208.7c-11.5,2.5-12.1,16.9-7.7,25.4c5.1,9.9,11.5,13.6,23,11.3l-3.5-11.1"/>
<path class="st11" d="M12.1,208.8c7.1-1.9,15.6,2.6,17.5,12.1c1.9,9.5-5.1,14.8-8.2,15.5l-7.2,3.2l-8-15.9L12.1,208.8z"/>
<path class="st2" d="M4.6,236c-0.7,0-1.4-0.4-1.7-1c-2.7-5.3-4-13.6-0.9-20.2c2-4.2,5.4-6.9,9.9-7.9c1-0.2,2,0.4,2.3,1.5
	s-0.4,2-1.5,2.3c-3.4,0.7-5.8,2.7-7.3,5.8C3.3,221,3.6,228,6.3,233.2c0.5,0.9,0.1,2.1-0.8,2.6C5.2,236,4.9,236,4.6,236z"/>
<path class="st2" d="M25,236.3c-0.5,0-1.1-0.2-1.5-0.7c-0.7-0.8-0.6-2,0.2-2.7c1.6-1.3,5.2-5.1,3.9-11.7c-0.8-3.9-2.9-7.1-6-9.1
	c-2.8-1.8-6.1-2.3-9.2-1.5c-1,0.3-2.1-0.3-2.3-1.4c-0.3-1,0.3-2.1,1.4-2.3c4-1.1,8.5-0.3,12.2,2c4,2.5,6.7,6.6,7.7,11.6
	c1.7,8.6-3.1,13.6-5.2,15.4C25.9,236.2,25.4,236.3,25,236.3z"/>
<path class="st2" d="M21.6,248c-8.4,0-14.2-4.1-18.7-13c-0.5-0.9-0.1-2.1,0.8-2.6c0.9-0.5,2.1-0.1,2.6,0.8
	c4.9,9.6,10.6,12.4,21,10.3c1-0.2,2,0.5,2.2,1.5c0.2,1-0.5,2-1.5,2.2C25.7,247.8,23.6,248,21.6,248z"/>
<path class="st11" d="M115.9,201.9c-8.9,0.9-25.9,9.9-24.1,22.4c1.8,12.5,16.4,13.2,34.9,4.6"/>
<path class="st2" d="M105.5,236.5c-3.5,0-6.5-0.7-9-2c-3.7-2-5.9-5.4-6.6-10c-0.6-4.2,0.7-8.5,3.7-12.4c5.3-6.8,15.4-11.5,22.1-12.2
	c1-0.1,2,0.7,2.1,1.7c0.1,1-0.7,2-1.7,2.1c-5.8,0.6-14.9,4.8-19.5,10.7c-2.4,3.1-3.4,6.3-2.9,9.5c0.5,3.4,2.1,5.8,4.6,7.2
	c5.6,3,15.6,1.5,27.6-4c1-0.4,2.1,0,2.5,0.9c0.4,1,0,2.1-0.9,2.5C119.1,234.6,111.5,236.5,105.5,236.5z"/>
<path class="st12" d="M87.1,184c1-3-1.7-6.6-6-8c-4.3-1.4-8.6,0-9.5,3c-1,3,1.7,6.6,6,8C81.9,188.3,86.2,187,87.1,184z"/>
<path class="st10" d="M68,147.3c-1.3,0-2.7-0.5-3.7-1.4l-8.3-7.4c-0.4-0.4-1.2-0.4-1.6,0l-0.7,0.6c-2.1,1.9-5.4,1.9-7.4,0l-6-5.4
	c-0.4-0.4-1.2-0.4-1.6,0l-7.7,6.8c-0.9,0.8-2.3,0.7-3.1-0.2c-0.8-0.9-0.7-2.3,0.2-3.1l7.7-6.8c2.1-1.9,5.3-1.9,7.4,0l6,5.4
	c0.4,0.4,1.2,0.4,1.6,0l0.7-0.6c2.1-1.8,5.3-1.9,7.4,0l8.3,7.4c0.4,0.4,1.2,0.4,1.6,0l14.1-12.5c2.1-1.9,5.3-1.9,7.4,0l4.3,3.8
	c0.4,0.4,1.2,0.4,1.6,0c2.1-1.9,5.3-1.9,7.4,0l5,4.5c0.4,0.4,1.2,0.4,1.6,0l9.4-8.3c0.9-0.8,2.3-0.7,3.1,0.2
	c0.8,0.9,0.7,2.3-0.2,3.1l-9.4,8.3c-2.1,1.9-5.4,1.9-7.4,0l-5-4.5c-0.4-0.4-1.2-0.4-1.6,0c-2.1,1.9-5.4,1.9-7.4,0l-4.3-3.8
	c-0.4-0.4-1.2-0.4-1.6,0l-14.1,12.5C70.7,146.8,69.3,147.3,68,147.3z"/>
<path class="st13" d="M161.4,36.5c0-0.5,0.1-1.1,0-1.9c0-0.7-0.2-1.5-0.5-2.3c-0.3-0.9-0.6-1.7-1.1-2.6c-0.2-0.3-0.4-0.7-0.7-1.1
	c0.8-1.7,0-3.4,0-3.4c-1.7-0.4-3,0-3.5,0.3c-0.1,0-0.1-0.1-0.2-0.2c-0.3-0.2-0.5-0.3-0.9-0.5c-0.3-0.2-0.6-0.3-0.9-0.5
	c-0.3-0.1-0.7-0.2-1-0.3l-0.2,0c-0.3-2.5-2.3-3.9-2.3-3.9c-2.8,1.1-3.6,3.1-3.6,3.1v0.1c-0.1,0-0.3,0-0.5,0c-0.2,0-0.4,0-0.6,0.1
	c-0.2,0-0.4,0-0.6,0.1c-0.4,0.1-0.8,0.2-1.2,0.3c-0.4,0.1-0.8,0.3-1.2,0.4c-0.1,0,0-0.1,0-0.1c-3.2-1.9-6.6-0.9-6.6-0.9
	c-1,3.4,0.2,6,0.5,6.5c-0.1,0.2-0.3,0.4-0.4,0.6c-0.4,0.8-0.8,1.6-1.1,2.4c0,0.1-0.1,0.2-0.1,0.3c-3.5,1-5,3.9-5,3.9
	c2.1,3.4,5.1,4.1,5.1,4.1c0.3,0.8,0.6,1.4,1,2.2c0.2,0.3,0.4,0.6,0.5,0.8c-1.4,2.5-0.8,4.9-0.8,4.9c2.9,0.6,5.1-0.4,5.6-0.6
	c0.3,0.2,0.6,0.3,0.8,0.4c0.8,0.4,1.8,0.7,2.7,0.9l0.7,0.1h0.1l0.1,0h0.1l0.1,0c1,2.2,3.4,2.9,3.4,2.9c2.1-1.4,2.5-3.2,2.6-3.6V49
	c0.4-0.2,0.8-0.4,1.2-0.6c0.8-0.5,1.5-1.1,2.2-1.7c0.1,0,0.1-0.1,0.2-0.2c2,0.5,3.6-0.6,3.6-0.6c0-2-1-3.2-1.2-3.4h-0.1l0.1-0.3
	l0.1-0.6l0-0.2v-0.1l0-0.1v-0.1l0-0.2l0-0.2l0-0.2l0-0.2l0-0.2c0-0.2,0-0.5,0-0.6c-0.1-0.9-0.2-1.7-0.5-2.6
	c-0.3-0.8-0.7-1.5-1.3-2.2c-0.5-0.7-1.2-1.2-1.9-1.7c-0.7-0.5-1.4-0.8-2.2-1c-0.4-0.1-0.7-0.2-1.2-0.3H151l-0.1,0h-0.1l-0.1,0
	l-0.2,0c-0.2,0-0.4,0-0.6,0c-0.8,0-1.6,0.1-2.3,0.4c-0.7,0.3-1.4,0.6-2,1c-0.6,0.4-1,1-1.4,1.6c-0.4,0.6-0.6,1.2-0.8,1.8l-0.1,0.5
	v0.1l0,0.1l0,0.2c0,0.3,0,0.6,0,0.9c0.1,0.6,0.3,1.2,0.5,1.7c0.3,0.5,0.6,0.9,1,1.3c0.4,0.4,0.8,0.7,1.2,0.9
	c0.5,0.2,0.8,0.3,1.3,0.4l0.2,0h0.1l0.1,0h0.1l0.1,0l0.2,0c0,0,0.1,0,0.2,0c0.1,0,0.2,0,0.3,0c0.2,0,0.4,0,0.6-0.1
	c0.2,0,0.3-0.1,0.5-0.2c0.1,0,0.1,0,0.1-0.1c0.2-0.1,0.2-0.3,0.1-0.4c-0.1-0.1-0.3-0.2-0.4-0.1c-0.1,0-0.1,0-0.1,0
	c-0.1,0-0.3,0.1-0.4,0.1c-0.1,0-0.3,0-0.4,0l-0.2,0h-0.1l-0.1,0h-0.1l-0.1,0h-0.1l-0.1,0c-0.3-0.1-0.6-0.2-0.9-0.5
	c-0.3-0.2-0.6-0.5-0.8-0.7c-0.2-0.3-0.4-0.7-0.5-1c-0.1-0.4-0.2-0.7-0.2-1.1c0-0.2,0-0.4,0-0.6l0-0.2v-0.1c0-0.1,0.1-0.2,0.1-0.3
	c0.3-0.8,0.9-1.5,1.7-2.1c0.2-0.1,0.4-0.2,0.6-0.4c0.2-0.1,0.5-0.2,0.6-0.2c0.3-0.1,0.5-0.1,0.7-0.1c0.2,0,0.5,0,0.7,0l0.4,0.1h0.1
	l0.1,0h0.1l0.1,0c0.2,0,0.5,0.2,0.7,0.3c0.5,0.2,0.9,0.5,1.4,0.8c0.8,0.7,1.4,1.6,1.8,2.6c0.1,0.5,0.2,1,0.2,1.6c0,0.1,0,0.3,0,0.4
	v0.1l0,0.1v0.1l0,0.1v0.1l0,0.1l0,0.2c0,0.2,0,0.3-0.1,0.4c0,0.1-0.1,0.3-0.1,0.4c0,0.1-0.1,0.3-0.2,0.4c-0.1,0.3-0.3,0.5-0.4,0.7
	c-0.3,0.5-0.7,0.9-1.2,1.4c-0.9,0.8-2,1.4-3.2,1.6c-0.6,0.1-1.2,0.2-1.8,0.2c-0.3,0-0.6,0-0.9,0h-0.1l-0.1,0h-0.1l-0.1,0l-0.5-0.1
	c-0.6-0.2-1.3-0.4-1.8-0.7c-0.6-0.3-1.2-0.6-1.6-1c-1-0.8-1.9-1.7-2.5-2.8c-0.3-0.5-0.6-1.1-0.7-1.7c-0.2-0.6-0.3-1.2-0.4-1.8
	c-0.1-0.6-0.1-1.2,0-1.8v-0.1l0-0.1v-0.1l0-0.1v-0.1l0-0.1v-0.1l0-0.2c0-0.3,0.2-0.6,0.2-0.9c0.1-0.3,0.2-0.6,0.4-0.9
	c0.1-0.3,0.2-0.6,0.4-0.9c0.3-0.5,0.6-1,1-1.6c0.7-1,1.6-1.8,2.5-2.4c0.2-0.1,0.5-0.3,0.7-0.5c0.3-0.1,0.5-0.3,0.8-0.3
	c0.3-0.1,0.5-0.2,0.8-0.3l0.4-0.1c0,0,0.1,0,0.2,0s0.1,0,0.2,0c0.3-0.1,0.6-0.1,0.8-0.1c0.1,0,0.1,0,0.2,0s0.1,0,0.2,0
	c0.1,0,0.3,0,0.4,0c0.1,0,0.1,0,0.2,0c0.1,0,0.1,0,0.2,0c0.1,0,0.1,0,0.2,0h0.1l0.1,0c0,0,0.1,0,0.2,0c0.1,0,0.2,0,0.2,0l0.2,0
	l0.2,0h0.1l0.1,0h0.1l0.2,0h0.1c0,0,0.1,0,0,0h0.1l0.2,0l0.8,0.1c0.5,0.1,1,0.3,1.5,0.5c1,0.3,1.8,0.8,2.6,1.4
	c0.8,0.5,1.5,1.2,2,1.9l0.1,0.1l0.1,0.1c0,0,0.1,0.1,0.2,0.3c0,0.1,0.1,0.1,0.2,0.3c0,0.1,0.1,0.2,0.2,0.3c0.2,0.3,0.4,0.7,0.6,1
	c0.4,0.6,0.7,1.3,0.8,2c0,0.1,0,0.1,0,0.1c0,0.1,0,0.1,0,0.1c0,0.1,0,0.1,0.1,0.3c0,0.1,0,0.1,0.1,0.3c0,0.1,0,0.1,0.1,0.3
	c0.1,0.3,0.1,0.5,0.1,0.8c0,0.4,0.1,0.8,0.1,1.1c0,0.1,0.1,0.3,0.3,0.2c0.1,0,0.3-0.1,0.3-0.2C161.4,37.4,161.5,37,161.4,36.5
	L161.4,36.5z"/>
	</g>
</svg>