<svg width="103" height="123" viewBox="0 0 103 123" fill="none" xmlns="http://www.w3.org/2000/svg">
<path d="M11.6133 122.877C9.70058 122.877 8.05798 122.577 6.68539 121.976C5.3353 121.375 4.10899 120.474 3.00642 119.273L6.0441 116.476C6.74164 117.325 7.55168 117.988 8.47425 118.465C9.39681 118.92 10.5219 119.148 11.8495 119.148C13.042 119.148 13.9871 118.931 14.6847 118.496C15.4046 118.061 15.7647 117.46 15.7647 116.693C15.7647 116.03 15.5622 115.492 15.1571 115.077C14.752 114.663 14.2121 114.311 13.537 114.021C12.8844 113.731 12.1532 113.472 11.3432 113.244C10.5556 112.995 9.75683 112.716 8.94676 112.405C8.15922 112.094 7.42792 111.711 6.7529 111.255C6.10035 110.778 5.57156 110.178 5.16655 109.453C4.76152 108.707 4.55901 107.774 4.55901 106.656C4.55901 105.33 4.90777 104.201 5.60532 103.268C6.30286 102.336 7.25917 101.621 8.47425 101.124C9.68932 100.627 11.0619 100.378 12.5919 100.378C14.2121 100.378 15.6746 100.658 16.9798 101.217C18.2849 101.777 19.3536 102.502 20.1861 103.393L17.1484 106.19C16.451 105.485 15.7309 104.967 14.9885 104.636C14.2684 104.304 13.4471 104.139 12.5246 104.139C11.4669 104.139 10.6344 104.325 10.0268 104.698C9.4193 105.071 9.11554 105.61 9.11554 106.314C9.11554 106.915 9.31804 107.402 9.72307 107.774C10.1281 108.147 10.6569 108.468 11.3094 108.738C11.9844 109.007 12.7157 109.266 13.5032 109.515C14.3134 109.763 15.1121 110.043 15.8998 110.354C16.7098 110.665 17.4409 111.069 18.0935 111.566C18.7686 112.063 19.3086 112.705 19.7137 113.492C20.1188 114.259 20.3212 115.212 20.3212 116.351C20.3212 118.382 19.545 119.977 17.9924 121.137C16.4398 122.297 14.3134 122.877 11.6133 122.877ZM25.8678 122.567V101.311H30.2895V122.567H25.8678ZM22.054 111.131V107.557H34.1033V111.131H22.054ZM43.5429 122.877C42.1029 122.877 40.8202 122.598 39.695 122.038C38.5925 121.479 37.7263 120.702 37.0962 119.708C36.4662 118.713 36.1511 117.563 36.1511 116.258V107.557H40.6063V116.165C40.6063 116.787 40.7189 117.325 40.9439 117.781C41.169 118.216 41.5064 118.547 41.9565 118.775C42.4066 119.003 42.9353 119.117 43.5429 119.117C44.4655 119.117 45.1854 118.858 45.703 118.34C46.2205 117.822 46.4792 117.097 46.4792 116.165V107.557H50.9009V116.258C50.9009 117.584 50.5858 118.744 49.9558 119.739C49.3483 120.733 48.482 121.51 47.3568 122.07C46.2543 122.608 44.9829 122.877 43.5429 122.877ZM61.3072 122.877C59.7996 122.877 58.4496 122.536 57.2571 121.852C56.0643 121.168 55.1194 120.236 54.4218 119.055C53.7467 117.874 53.4092 116.548 53.4092 115.077C53.4092 113.586 53.7467 112.249 54.4218 111.069C55.1194 109.888 56.0532 108.955 57.2233 108.272C58.4158 107.588 59.7771 107.246 61.3072 107.246C62.4772 107.246 63.5236 107.464 64.4462 107.899C65.3912 108.334 66.1449 108.945 66.7074 109.732C67.2927 110.499 67.6075 111.369 67.6525 112.343V117.688C67.6075 118.661 67.3037 119.542 66.7412 120.329C66.1787 121.116 65.425 121.738 64.4799 122.194C63.5349 122.65 62.4772 122.877 61.3072 122.877ZM62.0498 119.117C62.8823 119.117 63.6024 118.952 64.2099 118.62C64.84 118.268 65.3237 117.791 65.6612 117.19C66.0213 116.569 66.2012 115.854 66.2012 115.046C66.2012 114.259 66.0213 113.565 65.6612 112.964C65.3237 112.343 64.84 111.866 64.2099 111.535C63.6024 111.183 62.8936 111.006 62.0836 111.006C61.2509 111.006 60.5197 111.183 59.8896 111.535C59.2821 111.887 58.7982 112.363 58.4384 112.964C58.1008 113.565 57.9319 114.259 57.9319 115.046C57.9319 115.854 58.1008 116.569 58.4384 117.19C58.7982 117.791 59.2934 118.268 59.9234 118.62C60.5535 118.952 61.2621 119.117 62.0498 119.117ZM70.3526 122.567H65.965V118.527L66.6739 114.86L65.9312 111.255V100.099H70.3526V122.567ZM74.2642 122.567V107.557H78.7197V122.567H74.2642ZM76.492 105.133C75.7718 105.133 75.1756 104.915 74.7031 104.48C74.2305 104.025 73.9943 103.465 73.9943 102.802C73.9943 102.16 74.2305 101.611 74.7031 101.155C75.1756 100.699 75.7718 100.472 76.492 100.472C77.2344 100.472 77.8307 100.699 78.2808 101.155C78.7532 101.611 78.9896 102.16 78.9896 102.802C78.9896 103.465 78.7532 104.025 78.2808 104.48C77.8307 104.915 77.2344 105.133 76.492 105.133ZM90.2981 122.877C88.6554 122.877 87.1704 122.536 85.8429 121.852C84.5378 121.148 83.4914 120.205 82.7039 119.024C81.9387 117.822 81.5564 116.486 81.5564 115.015C81.5564 113.544 81.9387 112.229 82.7039 111.069C83.4688 109.888 84.5153 108.955 85.8429 108.272C87.1704 107.567 88.6442 107.215 90.2643 107.215C91.9293 107.215 93.4146 107.567 94.7195 108.272C96.0472 108.955 97.0934 109.888 97.8585 111.069C98.6235 112.229 99.006 113.544 99.006 115.015C99.006 116.486 98.6235 117.822 97.8585 119.024C97.0934 120.205 96.0472 121.148 94.7195 121.852C93.4146 122.536 91.9406 122.877 90.2981 122.877ZM90.2643 119.086C91.0968 119.086 91.8282 118.92 92.4583 118.589C93.1108 118.237 93.6058 117.76 93.9433 117.159C94.3034 116.538 94.4833 115.834 94.4833 115.046C94.4833 114.259 94.3034 113.565 93.9433 112.964C93.5833 112.363 93.0883 111.897 92.4583 111.566C91.8282 111.214 91.0968 111.037 90.2643 111.037C89.4544 111.037 88.7342 111.214 88.1042 111.566C87.4741 111.897 86.9792 112.363 86.6191 112.964C86.2591 113.565 86.0791 114.259 86.0791 115.046C86.0791 115.834 86.2591 116.538 86.6191 117.159C86.9792 117.76 87.4741 118.237 88.1042 118.589C88.7342 118.92 89.4544 119.086 90.2643 119.086Z" fill="black"/>
<path d="M102.572 87.6319C102.907 89.091 101.698 90.464 100.078 90.464H2.85077C0.983805 90.464 -0.24979 88.6769 0.542769 87.1207L32.274 24.8086C32.9561 23.4693 34.7974 23.0378 36.092 23.9138L52.3342 34.9068C53.52 35.7095 55.1954 35.4234 55.9898 34.2829L78.467 2.01457C79.6975 0.247861 82.6356 0.743001 83.1068 2.79649L102.572 87.6319ZM64.9535 75.7226H65.1734C67.7544 75.7226 70.2431 74.8087 72.1008 73.157C73.0582 72.3605 73.8168 71.3877 74.3274 70.2975C74.8379 69.2071 75.1002 68.0321 75.079 66.8504C75.1215 65.708 74.8876 64.572 74.3912 63.5209C73.8947 62.4763 73.1504 61.5426 72.2072 60.792C70.6259 59.3296 68.4917 58.4874 66.251 58.4285H66.0809C65.7903 58.4285 65.4925 58.4612 65.2159 58.5396L70.7253 50.9991L66.3362 48.1789L64.2587 50.9991L58.9476 58.4678C58.0329 59.7082 57.2744 60.7984 56.7992 61.5557C56.3099 62.3588 55.8845 63.1943 55.5372 64.0562C55.1399 64.9702 54.9343 65.9495 54.9343 66.9352C54.9203 68.1039 55.1754 69.2658 55.6861 70.3431C56.1895 71.4204 56.9411 72.3801 57.877 73.1765C59.7134 74.8218 62.181 75.7422 64.7407 75.7422L64.9463 75.7291L64.9535 75.7226ZM41.6182 67.6077L47.7018 75.5269H54.204L47.0495 66.3346L53.4027 58.2132L49.1839 55.5235L47.3191 57.7888L41.604 65.2051V50.2875L35.9101 46.0115V75.5202H41.604V67.5946H41.611L41.6182 67.6077ZM64.9605 70.7871C63.8474 70.7871 62.7838 70.3824 61.9966 69.6576C61.2095 68.9329 60.77 67.9537 60.77 66.9288C60.77 65.9037 61.2095 64.9244 61.9966 64.1998C62.7838 63.4752 63.8474 63.0703 64.9605 63.0703H64.996C65.5492 63.0703 66.0951 63.1749 66.5986 63.3707C67.109 63.5732 67.5628 63.8603 67.9458 64.2325C68.35 64.572 68.6691 64.9831 68.8817 65.4467C69.1016 65.9102 69.2078 66.4064 69.2078 66.909C69.1937 67.9405 68.7398 68.9198 67.9458 69.6447C67.1515 70.3693 66.0809 70.774 64.9605 70.7806V70.7871Z" fill="url(#paint0_linear_8869_7005)"/>
<path d="M64.9621 70.7803C63.849 70.7803 62.7854 70.3754 61.9983 69.6508C61.2113 68.9262 60.7716 67.9469 60.7716 66.922C60.7716 65.897 61.2113 64.9177 61.9983 64.193C62.7854 63.4684 63.849 63.0637 64.9621 63.0637H64.9976C65.5507 63.0637 66.0967 63.168 66.6001 63.3639C67.1106 63.5664 67.5645 63.8535 67.9473 64.2257C68.3516 64.5652 68.6706 64.9763 68.8833 65.4399C69.1031 65.9034 69.2095 66.3996 69.2095 66.9025C69.1953 67.934 68.7416 68.9131 67.9473 69.6379C67.1533 70.3625 66.0824 70.7672 64.9621 70.7738V70.7803Z" fill="url(#paint1_linear_8869_7005)"/>
<defs>
<linearGradient id="paint0_linear_8869_7005" x1="51.031" y1="-2.80215" x2="51.031" y2="90.464" gradientUnits="userSpaceOnUse">
<stop offset="0.26" stop-color="#F35D29"/>
<stop offset="1" stop-color="#FAAF13"/>
</linearGradient>
<linearGradient id="paint1_linear_8869_7005" x1="64.9906" y1="53.6229" x2="64.9906" y2="77.7775" gradientUnits="userSpaceOnUse">
<stop stop-color="#F25B29"/>
<stop offset="1" stop-color="#FCC90B"/>
</linearGradient>
</defs>
</svg>
