<svg width="1024" height="1024" viewBox="0 0 1024 1024" fill="none" xmlns="http://www.w3.org/2000/svg">
<path d="M1023.44 961.291C1026.79 977.149 1014.69 992.071 998.482 992.071H25.5392C6.85664 992.071 -5.48783 972.649 2.44323 955.734L319.975 278.491C326.801 263.934 345.227 259.244 358.181 268.765L520.715 388.244C532.581 396.968 549.347 393.858 557.297 381.463L782.224 30.7515C794.538 11.5499 823.939 16.9313 828.654 39.2499L1023.44 961.291ZM646.996 831.854H649.196C675.024 831.854 699.929 821.92 718.518 803.969C728.099 795.313 735.69 784.739 740.8 772.891C745.908 761.04 748.533 748.268 748.32 735.425C748.746 723.008 746.405 710.662 741.437 699.239C736.47 687.885 729.021 677.737 719.583 669.578C703.759 653.684 682.402 644.531 659.98 643.891H658.277C655.369 643.891 652.389 644.246 649.621 645.099L704.754 563.144L660.832 532.493L640.043 563.144L586.896 644.318C577.742 657.8 570.151 669.649 565.396 677.879C560.5 686.608 556.243 695.689 552.767 705.057C548.792 714.99 546.734 725.634 546.734 736.347C546.594 749.048 549.147 761.677 554.257 773.386C559.295 785.094 566.816 795.525 576.182 804.181C594.559 822.063 619.251 832.066 644.866 832.066L646.924 831.924L646.996 831.854ZM413.481 743.655L474.36 829.726H539.426L467.832 729.819L531.408 641.551L489.191 612.318L470.529 636.938L413.339 717.543V555.41L356.361 508.936V829.654H413.339V743.513H413.409L413.481 743.655ZM647.066 778.211C635.927 778.211 625.284 773.813 617.406 765.935C609.53 758.059 605.132 747.416 605.132 736.277C605.132 725.136 609.53 714.493 617.406 706.617C625.284 698.741 635.927 694.341 647.066 694.341H647.421C652.956 694.341 658.42 695.478 663.458 697.606C668.566 699.806 673.106 702.927 676.939 706.972C680.984 710.662 684.177 715.13 686.305 720.168C688.505 725.206 689.568 730.599 689.568 736.062C689.427 747.273 684.885 757.917 676.939 765.795C668.991 773.671 658.277 778.069 647.066 778.141V778.211Z" fill="url(#paint0_linear_8756_18093)"/>
<path d="M647.07 778.147C635.932 778.147 625.288 773.747 617.412 765.871C609.536 757.996 605.136 747.352 605.136 736.213C605.136 725.073 609.536 714.429 617.412 706.553C625.288 698.677 635.932 694.279 647.07 694.279H647.425C652.961 694.279 658.424 695.412 663.462 697.542C668.57 699.742 673.113 702.863 676.943 706.908C680.988 710.598 684.181 715.067 686.309 720.105C688.509 725.143 689.574 730.536 689.574 736.001C689.432 747.212 684.891 757.853 676.943 765.731C668.997 773.607 658.281 778.005 647.07 778.077V778.147Z" fill="url(#paint1_linear_8756_18093)"/>
<defs>
<linearGradient id="paint0_linear_8756_18093" x1="507.674" y1="-21.5995" x2="507.674" y2="992.071" gradientUnits="userSpaceOnUse">
<stop offset="0.26" stop-color="#F35D29"/>
<stop offset="1" stop-color="#FAAF13"/>
</linearGradient>
<linearGradient id="paint1_linear_8756_18093" x1="647.355" y1="591.671" x2="647.355" y2="854.197" gradientUnits="userSpaceOnUse">
<stop stop-color="#F25B29"/>
<stop offset="1" stop-color="#FCC90B"/>
</linearGradient>
</defs>
</svg>
